<svg width="1366" height="1333" viewBox="0 0 1366 1333" fill="none" xmlns="http://www.w3.org/2000/svg"><g clip-path="url(#clip0_547_2729)" fill="#fff"><path d="M48.894 75.008c4.316 17.759-37.361 41.58 0 85.023 33.496 38.945 68.705 20.79 81.994 6.309 13.289-14.481 14.692-14.246 20.999-15.413 6.307-1.168 37.833 6.769 44.14-16.356 6.307-23.124-2.474-35.71-9.338-42.04-12.143-11.214-22.423-6.073-29.887-13.785-7.356-7.594 8.256-39.533-15.173-44.61-25.872-5.602-24.523 28.726-38.529 24.763-14.007-3.963-4.465-57.464-38.111-50.052-27.82 6.138-22.402 40.23-16.095 66.161zm159.662 435.226c-9.573-5.827 4.551-24.303-30.487-26.938-31.407-2.356-38.807 20.779-38.282 32.829.514 12.039-.193 12.553-2.42 15.788-2.228 3.245-19.34 13.474-12.047 26.23 7.292 12.768 16.555 14.407 22.273 14.182 10.13-.407 10.709-1.168 17.283-1.071 6.575.096 15.206 14.802 27.574 6.844 13.643-8.794.547-18.991 8.342-23.35 7.796-4.359 15.517 7.594 24.822-11.375 7.346-14.984-3.084-24.646-17.058-33.15v.011zm426.728-68.303c7.463-12.264 43.839-2.335 47.213-47.225 3.019-40.24-26.621-49.72-42.041-49.056-15.42.665-16.074-.246-20.228-3.106-4.155-2.859-17.252-24.785-33.593-15.445-16.34 9.34-18.45 21.208-18.161 28.545.514 12.971 4.059 13.849 3.93 22.278-.128 8.312-21.524 19.355-11.329 35.196 11.254 17.491 12.218 8.258 17.797 18.252 5.579 9.993-12.09 23.788 10.719 38.366 18.857 12.05 34.781-9.897 45.682-27.805h.011zM421.845 227.874c22.134 4.723 19.414 32.732 12.475 45.489-6.939 12.756 9.98 29.68-8.042 36.62-18.022 6.93-15.249-8.601-22.466-12.756-7.218-4.156-29.116-6.009-26.899-27.42 2.216-21.411 11.65-13.367 17.754-18.359 6.104-4.991 10.259-27.184 27.178-23.574zm192.482 308.419c22.135 4.724 19.415 32.733 12.476 45.489-6.929 12.757 9.98 29.68-8.042 36.621-18.023 6.93-15.249-8.601-22.467-12.757-7.217-4.156-29.116-6.009-26.899-27.42 2.217-21.411 11.651-13.367 17.755-18.358 6.103-4.991 10.258-27.184 27.177-23.575zM76.072 349.142c.171-16.28 24.126-18.305 7.764-39.394-16.363-21.079-23.023-.557-31.622 0s-26.343-13.314-33.56 1.938c-7.207 15.253 9.155 26.906 0 34.95-9.156 8.044-34.395 26.081-4.433 51.316 29.95 25.245 61.573-21.636 61.851-48.82v.01zm-44.065-120.54c.214 5.152-7.624 12.896-1.381 17.202 6.243 4.306 18.515.899 19.478-4.574.964-5.473-3.887-3.674-2.495-7.347 1.392-3.674 5.75-7.766 1.317-12.554-4.433-4.787-17.54-7.765-16.919 7.284v-.011zm457.343 87.069c.493 11.792-17.465 29.53-3.18 39.384s42.383 2.067 44.611-10.476c2.227-12.542-8.888-8.418-5.719-16.826 3.17-8.408 13.172-17.78 3.02-28.738-10.151-10.957-40.167-17.78-38.732 16.677v-.021zm-203.309-71.078c3.791 3.492 3.727 14.514 11.18 13.143 7.453-1.371 13.728-12.457 10.537-17.02-3.191-4.563-5.343.15-6.96-3.427-1.617-3.578-1.425-9.565-7.946-9.812-6.521-.246-17.894 6.92-6.811 17.116zm21.535 258.068c3.791 3.492 3.726 14.513 11.179 13.142 7.453-1.371 13.729-12.456 10.537-17.019-3.191-4.563-5.343.15-6.96-3.428-1.617-3.577-1.424-9.564-7.946-9.811-6.521-.246-17.893 6.919-6.81 17.116zM447.523 27.174c25.84 6.694 38.09 8.879 36.237 31.436-1.852 22.557-29.212 11.096-47.705 10.357-18.494-.739-11.201 18.498-31.676 7.766-20.463-10.722-2.345-21.454-1.606-28.855.739-7.402-9.241-25.15 11.469-29.22s13.31 3.331 33.281 8.505v.01zM78.706 609.352c25.84 6.694 38.09 8.879 36.237 31.437-1.852 22.557-29.212 11.096-47.705 10.357-18.494-.739-11.201 18.498-31.676 7.765-20.463-10.721-2.345-21.454-1.606-28.855.74-7.401-9.241-25.149 11.469-29.219s13.31 3.331 33.281 8.504v.011zm112.17-413.3c35.156.417 27.317 8.14 35.456 14.427 8.138 6.288 18.118 2.957 21.448 15.906 3.331 12.949-3.694 19.976 0 31.811 3.695 11.836-7.024 35.507-24.04 37.724-17.015 2.217-19.971-15.531-41.784-20.34-21.813-4.809-25.143-22.193-18.857-38.838 6.286-16.644-3.598-41.054 27.777-40.69zm157.863 405.063c-.418 35.164-8.139 27.324-14.424 35.464-6.286 8.14-2.956 18.123-15.902 21.454-12.947 3.331-19.971-3.695-31.804 0-11.833 3.695-35.498-7.026-37.715-24.046-2.216-17.009 15.527-19.976 20.335-41.794 4.808-21.818 22.188-25.149 38.829-18.861 16.641 6.287 41.045-3.599 40.681 27.783zM176.848 360.721c-15.484.214-21.481 13.688-16.308 27.366 5.172 13.678-10.355 19.976-6.661 34.028 3.694 14.053 27.735 11.097 37.351-7.765s13.021-54.004-14.382-53.629zM28.398 473.078c-9.294 7.433-13.642 54.775 6.34 51.701 19.982-3.074 7.688-9.608 22.68-7.112 14.992 2.496 30.937 1.542 32.093-19.601 1.157-21.143-23.248-14.417-32.093-17.105-8.834-2.688-18.45-16.334-29.02-7.883zm236.066-60.581c10.794 28.052 42.33 5.602 71.082 12.425 28.752 6.822 36.152 37.884 73.502 23.092 37.351-14.791 37.49-95.016-11.019-90.785-48.508 4.231-39.267 7.187-52.214-5.752-12.946-12.939-53.166-21.636-61.305 9.436-8.138 31.073-30.861 23.489-20.046 51.595v-.011zm184.88 63.558c-28.045 10.797-5.601 42.34-12.422 71.099-6.821 28.759-37.875 36.16-23.087 73.52 14.788 37.359 94.994 37.498 90.764-11.022-4.23-48.52-7.185-39.277 5.75-52.226 12.936-12.95 21.631-53.18-9.434-61.32-31.065-8.14-23.483-30.869-51.582-20.051h.011zM374 121.483c-12.722-.3-10.259 17.673-14.778 18.476-4.519.803-15.248-10.786-17.09 0-1.842 10.786 8.502 12.264 7.763 20.029-.739 7.766-19.061 22.932 9.327 32.915 28.388 9.982 26.835-18.862 38.004-25.524 11.169-6.662 32.168 9.361 37.715-9.19 5.547-18.551-5.194-34.457-17.572-32.979-12.379 1.478-15.72 14.91-23.484 12.264-7.763-2.646-5.761-15.659-19.885-16.002v.011zm260.116-6.138c19.382.461 15.624-26.916 22.509-28.137 6.886-1.221 23.227 16.43 26.043 0 2.816-16.43-12.957-18.68-11.833-30.515 1.125-11.836 29.031-34.928-14.21-50.149-43.24-15.21-40.873 28.738-57.889 38.87-17.005 10.143-49.001-14.267-57.45 14-8.449 28.254 7.913 52.482 26.771 50.233 18.857-2.249 23.954-22.718 35.765-18.68 11.812 4.038 8.781 23.864 30.294 24.368v.01zM229.469 43.69c-6.489 17.244 10.816 25.03 15.613 36.995 4.808 11.964 22.82 35.399 42.341 21.882s-11.094-28.951 6.007-38.398c13.589-7.508 39.343-39.095 8.706-42.48-18.333-2.024-14.413 19.601-27.028 19.901-12.614.3-32.435-33.043-45.649 2.1h.01zm360.293 98.915c-26.567-9.994-38.55 16.655-56.979 24.067-18.429 7.412-54.527 35.174-33.699 65.25 20.817 30.077 44.59-17.105 59.153 9.255 11.565 20.929 60.224 60.623 65.428 13.42 3.116-28.244-30.198-22.214-30.658-41.654-.46-19.44 50.897-49.977-3.234-70.338h-.011zm231.611 14.191c8.717-14.32 51.207-2.731 55.148-55.161 3.534-46.999-31.086-58.074-49.108-57.303-18.012.771-18.772-.289-23.623-3.62-4.851-3.331-20.153-28.94-39.246-18.037-19.093 10.914-21.556 24.774-21.213 33.343.61 15.156 10.601 18.487 10.451 28.34-.15 9.855-31.001 20.287-19.093 38.796 13.15 20.425 34.545-2.732 41.056 8.943 6.511 11.664-34.395 40.155-7.753 57.186 22.027 14.074 40.627-11.568 53.36-32.476l.021-.011zm80.409 357.54c-9.573-5.827 4.551-24.303-30.486-26.938-31.408-2.356-38.808 20.779-38.283 32.829.514 12.039-.192 12.553-2.42 15.788-2.227 3.245-19.339 13.474-12.047 26.231 7.293 12.767 16.555 14.406 22.274 14.181 10.13-.407 10.708-1.168 17.283-1.071 6.575.096 15.206 14.802 27.574 6.844 13.642-8.794.546-18.99 8.342-23.35 7.795-4.359 15.516 7.594 24.822-11.375 7.346-14.984-3.084-24.645-17.059-33.15v.011zm391.678-60.056c7.47-12.264 43.84-2.335 47.21-47.224 3.02-40.241-26.62-49.72-42.04-49.056-15.42.664-16.07-.246-20.22-3.106-4.16-2.86-17.26-24.785-33.6-15.445s-18.45 21.207-18.16 28.544c.52 12.971 4.06 13.849 3.93 22.279-.13 8.311-21.52 19.354-11.33 35.196 11.26 17.491 12.22 8.258 17.8 18.251 5.58 9.993-12.09 23.789 10.72 38.366 18.86 12.05 34.78-9.896 45.68-27.805h.01zm-188.62-226.406c22.14 4.723 19.42 32.732 12.48 45.489-6.94 12.756 9.98 29.679-8.04 36.62-18.02 6.93-15.25-8.601-22.47-12.757-7.22-4.155-29.11-6.008-26.9-27.419 2.22-21.411 11.65-13.368 17.76-18.359 6.1-4.991 10.26-27.184 27.17-23.574zm212.49 308.419c22.13 4.724 19.41 32.733 12.48 45.489-6.93 12.757 9.98 29.68-8.05 36.621-18.02 6.93-15.25-8.601-22.46-12.757-7.22-4.156-29.12-6.009-26.9-27.42 2.21-21.411 11.65-13.367 17.75-18.358 6.11-4.991 10.26-27.184 27.18-23.575zM800.62 320.437c.172-16.28 24.126-18.305 7.764-39.394-16.362-21.079-23.023-.557-31.622 0s-26.342-13.314-33.56 1.938c-7.207 15.252 9.156 26.906 0 34.95-9.155 8.044-34.395 26.081-4.433 51.316 29.951 25.245 61.573-21.636 61.851-48.821v.011zm-96.717-88.108c.342 6.866-12.122 17.202-2.206 22.932 9.916 5.731 29.426 1.2 30.968-6.105 1.542-7.305-6.168-4.905-3.962-9.8 2.206-4.895 9.145-10.358 2.099-16.741-7.046-6.384-27.884-10.358-26.889 9.714h-.01zm478.157 85.912c.22 5.152-7.62 12.896-1.38 17.202 6.24 4.306 18.52.9 19.48-4.574.96-5.473-3.89-3.674-2.5-7.347 1.4-3.674 5.75-7.766 1.32-12.553-4.43-4.788-17.54-7.766-16.92 7.283v-.011zm-201.25-63.954c3.93 3.352-1.039 19.279 10.312 14.01 11.348-5.27 25.308-24.036 22.728-29.198-2.59-5.163-7.78 2.57-8.53-1.875-.75-4.445 2.18-13.163-7.12-10.636-9.295 2.528-28.859 17.888-17.39 27.688v.011zm9.766 248.374c3.791 3.492 3.726 14.513 11.184 13.142 7.45-1.371 13.72-12.456 10.53-17.019-3.19-4.563-5.34.15-6.96-3.428-1.61-3.577-1.42-9.564-7.944-9.811-6.521-.246-17.893 6.919-6.81 17.116zM1112.61 9.682c25.84 6.695 38.09 8.88 36.24 31.437-1.86 22.557-29.22 11.096-47.71 10.357-18.49-.739-11.2 18.498-31.68 7.766-20.46-10.722-2.34-21.454-1.6-28.855.74-7.402-9.24-25.15 11.47-29.22s13.31 3.331 33.28 8.505v.01zM756.63 588.327c25.84 6.694 38.09 8.879 36.238 31.436-1.853 22.557-29.213 11.097-47.706 10.358-18.493-.74-11.201 18.497-31.675 7.765-20.464-10.722-2.346-21.454-1.607-28.855.739-7.401-9.241-25.149 11.469-29.219 20.71-4.071 13.31 3.331 33.281 8.504v.011zm117.246-392.275c35.156.417 27.317 8.14 35.456 14.427 8.138 6.288 18.118 2.957 21.448 15.906 3.331 12.949-3.694 19.976 0 31.811 3.695 11.836-7.024 35.507-24.04 37.724-17.015 2.217-19.971-15.531-41.784-20.34-21.813-4.809-25.143-22.193-18.857-38.838 6.286-16.644-3.598-41.054 27.777-40.69zm157.864 405.063c-.42 35.164-8.14 27.324-14.43 35.464-6.28 8.14-2.95 18.123-15.9 21.454-12.944 3.331-19.968-3.695-31.801 0-11.833 3.695-35.498-7.026-37.715-24.046-2.216-17.009 15.527-19.976 20.335-41.794 4.808-21.818 22.188-25.149 38.829-18.861 16.642 6.287 41.042-3.599 40.682 27.783zM859.848 360.721c-15.484.214-21.481 13.688-16.309 27.366 5.173 13.678-10.354 19.976-6.66 34.028 3.694 14.053 27.735 11.097 37.351-7.765s13.021-54.004-14.382-53.629zM711.399 460.974c-9.295 7.434-13.643 54.776 6.339 51.702 19.982-3.074 7.688-9.608 22.68-7.112 14.992 2.495 30.937 1.542 32.093-19.601 1.157-21.143-23.248-14.417-32.093-17.105-8.834-2.689-18.45-16.334-29.019-7.884zm239.502-42.982c10.794 28.051 42.331 5.602 71.079 12.424 28.77 6.812 36.15 37.885 73.51 23.093 37.35-14.792 37.49-95.016-11.02-90.785-48.51 4.23-39.27 7.187-52.22-5.752-12.94-12.939-53.164-21.636-61.303 9.436-8.138 31.072-30.861 23.489-20.046 51.594v-.01zm194.759 75.747c-28.04 10.796-5.6 42.34-12.42 71.099-6.82 28.758-37.87 36.159-23.08 73.519 14.78 37.359 94.99 37.499 90.76-11.021-4.23-48.521-7.19-39.277 5.75-52.227 12.94-12.949 21.63-53.179-9.43-61.319-31.07-8.141-23.49-30.869-51.59-20.051h.01zM1057 121.482c-12.72-.299-10.26 17.673-14.78 18.477-4.52.803-15.25-10.786-17.09 0-1.84 10.786 8.5 12.264 7.77 20.029-.74 7.765-19.07 22.932 9.32 32.915 28.39 9.982 26.84-18.862 38.01-25.524 11.16-6.663 32.16 9.361 37.71-9.19 5.55-18.552-5.19-34.457-17.57-32.979-12.38 1.478-15.72 14.909-23.49 12.264-7.76-2.646-5.76-15.659-19.88-16.002v.01zm260.12-6.137c19.38.461 15.62-26.916 22.51-28.137 6.88-1.221 23.22 16.43 26.04 0 2.81-16.43-12.96-18.68-11.83-30.516 1.12-11.835 29.03-34.928-14.21-50.148-43.25-15.21-40.88 28.737-57.89 38.87-17.01 10.143-49.01-14.267-57.45 13.999-8.45 28.255 7.91 52.483 26.77 50.234 18.85-2.249 23.95-22.718 35.76-18.68 11.81 4.038 8.78 23.864 30.3 24.367v.011zM912.469 43.69c-6.489 17.244 10.816 25.03 15.613 36.995 4.808 11.964 22.819 35.399 42.341 21.882 19.521-13.517-11.094-28.951 6.007-38.398 13.589-7.508 39.34-39.095 8.706-42.48-18.333-2.024-14.413 19.601-27.028 19.901-12.614.3-32.435-33.043-45.65 2.1h.011zm380.401 123.667c-21.23-7.99-30.81 13.314-45.54 19.237-14.73 5.923-43.57 28.105-26.93 52.151 16.64 24.046 35.64-13.667 47.28 7.401 9.24 16.731 48.13 48.456 52.28 10.722 2.5-22.568-24.13-17.759-24.5-33.289-.37-15.531 40.68-39.941-2.59-56.222zM57.697 757.119c3.747 15.413-32.436 36.096 0 73.82 29.073 33.814 59.645 18.048 71.178 5.473 11.533-12.575 12.754-12.371 18.226-13.389 5.472-1.017 32.842 5.881 38.314-14.192 5.472-20.072-2.152-30.997-8.106-36.502-10.548-9.736-19.468-5.27-25.947-11.964-6.478-6.695 7.175-34.318-13.182-38.731-22.455-4.863-21.288 24.946-33.452 21.497-12.165-3.449-3.855-49.891-33.057-43.443-24.147 5.323-19.446 34.928-13.975 57.442v-.011zm150.859 420.931c-9.573-5.83 4.551-24.31-30.487-26.94-31.407-2.36-38.807 20.78-38.282 32.83.514 12.04-.193 12.55-2.42 15.78-2.228 3.24-19.34 13.48-12.047 26.24 7.292 12.75 16.555 14.4 22.273 14.18 10.13-.41 10.709-1.17 17.283-1.07 6.575.09 15.206 14.8 27.574 6.84 13.643-8.79.547-18.99 8.342-23.35 7.796-4.36 15.517 7.59 24.822-11.37 7.346-14.99-3.084-24.65-17.058-33.15v.01zm404.133-50.7c6.157-10.11 36.151-1.93 38.936-38.94 2.495-33.19-21.942-40.99-34.663-40.45-12.722.55-13.257-.2-16.673-2.56-3.416-2.35-14.221-20.43-27.703-12.73-13.482 7.7-15.216 17.49-14.97 23.53.428 10.7 3.352 11.42 3.245 18.37-.108 6.95-17.744 15.96-9.338 29.02 9.284 14.42 10.076 6.82 14.67 15.05 4.594 8.24-9.969 19.62 8.835 31.63 15.548 9.94 28.687-8.16 37.672-22.93l-.011.01zM421.845 895.686c22.134 4.723 19.414 32.732 12.475 45.489-6.939 12.757 9.98 29.68-8.042 36.62-18.022 6.93-15.249-8.6-22.466-12.756-7.218-4.156-29.116-6.009-26.899-27.42 2.216-21.411 11.65-13.367 17.754-18.359 6.104-4.991 10.259-27.184 27.178-23.574zm212.486 308.424c22.134 4.72 19.414 32.73 12.475 45.48-6.929 12.76 9.98 29.68-8.042 36.62-18.022 6.93-15.249-8.6-22.466-12.75-7.218-4.16-29.116-6.01-26.9-27.42 2.217-21.41 11.651-13.37 17.755-18.36 6.103-4.99 10.258-27.18 27.178-23.57zM76.072 1016.95c.171-16.28 24.126-18.301 7.764-39.39-16.363-21.079-23.023-.557-31.622 0s-26.343-13.314-33.56 1.938c-7.207 15.253 9.155 26.902 0 34.952-9.156 8.04-34.395 26.08-4.433 51.31 29.95 25.25 61.573-21.63 61.851-48.82v.01zM32.007 896.414c.214 5.152-7.624 12.896-1.381 17.202 6.243 4.306 18.515.9 19.478-4.574.964-5.473-3.887-3.674-2.495-7.347 1.392-3.674 5.75-7.766 1.317-12.554-4.433-4.787-17.54-7.765-16.919 7.284v-.011zm469.476 77.429c.353 8.44-12.497 21.133-2.27 28.167 10.226 7.04 30.326 1.48 31.91-7.495 1.585-8.976-6.36-6.019-4.09-12.039 2.27-6.019 9.423-12.724 2.152-20.565-7.271-7.84-28.73-12.724-27.713 11.932h.011zm-215.442-61.438c3.791 3.492 3.727 14.514 11.18 13.143 7.453-1.371 13.728-12.457 10.537-17.02-3.191-4.563-5.343.15-6.96-3.427-1.617-3.578-1.425-9.565-7.946-9.811-6.521-.247-17.894 6.919-6.811 17.115zm21.535 258.065c3.791 3.5 3.726 14.52 11.179 13.15 7.453-1.38 13.729-12.46 10.537-17.02-3.191-4.57-5.343.15-6.96-3.43s-1.424-9.57-7.946-9.81c-6.521-.25-17.893 6.92-6.81 17.11zm147.186-477.851c25.839 6.694 38.09 8.879 36.237 31.436-1.852 22.557-29.212 11.096-47.705 10.357-18.494-.739-11.201 18.498-31.676 7.766-20.463-10.722-2.345-21.454-1.606-28.855.739-7.402-9.241-25.15 11.469-29.22s13.31 3.331 33.281 8.505v.011zM78.706 1277.16c25.84 6.7 38.09 8.88 36.237 31.44-1.852 22.56-29.212 11.1-47.705 10.36-18.494-.74-11.201 18.5-31.676 7.76-20.463-10.72-2.345-21.45-1.606-28.85.74-7.4-9.241-25.15 11.469-29.22s13.31 3.33 33.281 8.5v.01zm112.17-400.893c35.156.418 27.317 8.14 35.456 14.428 8.138 6.287 18.118 2.956 21.448 15.905 3.331 12.95-3.694 19.976 0 31.811 3.695 11.836-7.024 35.507-24.04 37.724-17.005 2.217-19.971-15.531-41.784-20.34-21.813-4.809-25.143-22.193-18.857-38.837 6.286-16.645-3.598-41.055 27.777-40.691zm157.863 392.663c-.418 35.16-8.139 27.32-14.424 35.46-6.286 8.14-2.956 18.12-15.902 21.46-12.947 3.33-19.971-3.7-31.804 0-11.833 3.69-35.498-7.03-37.715-24.05-2.216-17.01 15.527-19.98 20.335-41.79 4.808-21.82 22.188-25.15 38.829-18.87 16.641 6.29 41.045-3.6 40.681 27.79zm-171.891-240.39c-15.484.22-21.481 13.69-16.308 27.37 5.172 13.69-10.355 19.98-6.661 34.03 3.694 14.05 27.735 11.09 37.351-7.77s13.021-54-14.382-53.63zm-148.45 112.35c-9.294 7.43-13.642 54.78 6.34 51.7 19.982-3.07 7.688-9.61 22.68-7.11 14.992 2.49 30.937 1.54 32.093-19.6 1.157-21.14-23.248-14.42-32.093-17.11-8.834-2.69-18.45-16.33-29.02-7.88zm246.892-51.33c11.351 29.51 44.515 5.89 74.755 13.06 30.241 7.17 38.026 39.84 77.304 24.28 39.278-15.56 39.428-99.92-11.587-95.48-51.014 4.45-41.302 7.57-54.912-6.05-13.61-13.61-55.919-22.75-64.475 9.92-8.556 32.68-32.457 24.7-21.085 54.26v.01zm188.671 54.54c-28.046 10.8-5.601 42.34-12.422 71.1-6.811 28.77-37.876 36.16-23.087 73.52 14.788 37.36 94.993 37.5 90.764-11.02-4.23-48.52-7.186-39.28 5.75-52.23 12.946-12.95 21.631-53.18-9.434-61.32-31.065-8.14-23.483-30.86-51.582-20.05h.011zm-73.759-354.805c-12.722-.3-10.259 17.673-14.778 18.476-4.519.793-15.249-10.786-17.09 0-1.842 10.786 8.502 12.264 7.763 20.029-.739 7.766-19.061 22.932 9.327 32.915 28.388 9.982 26.835-18.862 38.004-25.524 11.169-6.662 32.168 9.361 37.715-9.19 5.547-18.551-5.194-34.457-17.573-32.979-12.378 1.478-15.719 14.91-23.483 12.264-7.753-2.645-5.761-15.659-19.885-16.002v.011zm251.474-2.999c22.274.525 17.958-30.933 25.872-32.336 7.913-1.404 26.685 18.872 29.919 0 3.234-18.873-14.885-21.465-13.589-35.068 1.296-13.592 33.367-40.144-16.33-57.624-49.698-17.48-46.978 33.021-66.521 44.675-19.542 11.653-56.315-16.388-66.027 16.088-9.713 32.475 9.091 60.312 30.754 57.72 21.674-2.592 27.521-26.102 41.099-21.464 13.578 4.638 10.087 27.42 34.813 28.009h.01zm-398.596-43.09c-6.49 17.244 10.815 25.031 15.612 36.995 4.808 11.964 22.82 35.4 42.341 21.883 19.521-13.518-11.094-28.952 6.008-38.399 13.588-7.508 39.342-39.095 8.705-42.479-18.332-2.025-14.413 19.601-27.027 19.901-12.615.299-32.436-33.043-45.65 2.099h.011zm365.283 78.339c-25.904-9.939-37.587 16.559-55.566 23.918-17.979 7.358-53.167 34.96-32.864 64.865 20.303 29.904 43.476-16.999 57.675 9.2 11.276 20.811 58.725 60.26 63.801 13.346 3.041-28.073-29.448-22.086-29.898-41.398-.45-19.311 49.633-49.687-3.159-69.92l.011-.011zm164.544-80.631c3.641 14.963-31.493 35.046 0 71.677 28.238 32.829 57.911 17.523 69.123 5.312 11.201-12.21 12.378-12.006 17.7-12.992 5.323-.985 31.89 5.709 37.212-13.785 5.311-19.493-2.088-30.097-7.871-35.442-10.237-9.447-18.9-5.12-25.196-11.621-6.201-6.405 6.96-33.332-12.797-37.606-21.802-4.724-20.667 24.217-32.478 20.875-11.812-3.341-3.738-48.434-32.104-42.19-23.451 5.174-18.889 33.922-13.567 55.772h-.022zm66.606 417.256c-9.573-5.83 4.551-24.31-30.486-26.94-31.408-2.36-38.807 20.78-38.283 32.83.514 12.04-.193 12.55-2.42 15.79-2.227 3.23-19.339 13.47-12.047 26.23 7.293 12.75 16.555 14.4 22.274 14.18 10.13-.41 10.708-1.17 17.283-1.07 6.575.09 15.206 14.8 27.574 6.84 13.642-8.79.546-18.99 8.342-23.35 7.795-4.36 15.516 7.59 24.822-11.37 7.346-14.99-3.084-24.65-17.059-33.15v.01zm453.947-36.08c7.47-12.26 43.84-2.33 47.21-47.22 3.02-40.24-26.62-49.72-42.04-49.06-15.42.67-16.07-.24-20.22-3.1-4.16-2.86-17.26-24.789-33.6-15.45-16.34 9.34-18.45 21.21-18.16 28.55.52 12.97 4.06 13.84 3.93 22.27-.13 8.32-21.52 19.36-11.33 35.2 11.26 17.49 12.22 8.26 17.8 18.25s-12.09 23.79 10.72 38.37c18.86 12.05 34.78-9.9 45.68-27.81h.01zm-157.35-320.521c22.14 4.724 19.42 32.733 12.48 45.489-6.94 12.757 9.98 29.68-8.04 36.621-18.03 6.93-15.25-8.601-22.47-12.757-7.22-4.156-29.12-6.009-26.9-27.42 2.22-21.411 11.65-13.367 17.76-18.358 6.1-4.991 10.25-27.184 27.17-23.575zm181.22 402.541c22.13 4.72 19.41 32.73 12.48 45.48-6.93 12.76 9.98 29.68-8.05 36.62-18.02 6.93-15.25-8.6-22.46-12.75-7.22-4.16-29.12-6.01-26.9-27.42 2.21-21.41 11.65-13.37 17.75-18.36 6.11-4.99 10.26-27.18 27.18-23.57zM741.853 997.096c-15.463-5.087-10.152-28.544-35.188-19.322-25.036 9.222-7.496 21.775-9.562 30.136-2.067 8.37-20.657 21.09-8.299 32.59 12.357 11.49 28.409-.59 33.303 10.57 4.894 11.16 14.445 40.68 47.556 19.76 33.12-20.92-1.992-65.24-27.81-73.734zM686.512 854.47c.214 5.152-7.624 12.896-1.381 17.202 6.243 4.306 18.515.9 19.478-4.573.964-5.474-3.887-3.674-2.495-7.348s5.751-7.766 1.317-12.553c-4.433-4.788-17.54-7.766-16.919 7.283v-.011zm495.548 131.583c.22 5.152-7.62 12.896-1.38 17.197 6.24 4.31 18.52.9 19.48-4.569.96-5.473-3.89-3.673-2.5-7.347 1.4-3.674 5.75-7.766 1.32-12.553-4.43-4.788-17.54-7.766-16.92 7.283v-.011zM986.774 849.811c3.791 3.492 3.727 14.513 11.18 13.142 7.456-1.371 13.726-12.456 10.536-17.019-3.19-4.563-5.34.15-6.96-3.428-1.616-3.577-1.42-9.564-7.945-9.811-6.521-.246-17.894 6.919-6.811 17.116zm-18.429 325.999c3.791 3.49 3.727 14.51 11.18 13.14 7.453-1.37 13.728-12.46 10.537-17.02-3.191-4.56-5.344.15-6.961-3.43-1.616-3.58-1.424-9.56-7.945-9.81-6.521-.25-17.894 6.92-6.811 17.12zm146.085-470.199c25.84 6.694 38.09 8.879 36.24 31.436-1.86 22.557-29.22 11.096-47.71 10.357-18.49-.739-11.2 18.498-31.68 7.766-20.46-10.722-2.34-21.454-1.6-28.855.74-7.402-9.24-25.149 11.47-29.22 20.71-4.07 13.31 3.332 33.28 8.505v.011zM761.717 1277.16c25.839 6.7 38.09 8.88 36.237 31.44-1.852 22.56-29.212 11.1-47.706 10.36-18.493-.74-11.201 18.5-31.675 7.76-20.464-10.72-2.345-21.45-1.606-28.85.739-7.4-9.241-25.15 11.468-29.22 20.71-4.07 13.311 3.33 33.282 8.5v.01zm127.89-411.625c35.155.417 27.317 8.14 35.455 14.427 8.138 6.288 18.119 2.956 21.449 15.906 3.33 12.949-3.694 19.976 0 31.811 3.694 11.836-7.025 35.507-24.04 37.724-17.005 2.217-19.971-15.531-41.784-20.34-21.813-4.809-25.143-22.193-18.858-38.838 6.286-16.644-3.598-41.054 27.778-40.69zm142.133 403.395c-.42 35.16-8.14 27.32-14.43 35.46-6.28 8.14-2.95 18.12-15.9 21.46-12.944 3.33-19.968-3.7-31.801 0-11.833 3.69-35.498-7.03-37.715-24.05-2.216-17.01 15.527-19.98 20.335-41.79 4.808-21.82 22.188-25.15 38.829-18.87 16.642 6.29 41.042-3.6 40.682 27.79zm-131.907-225.88c-15.484.21-21.481 13.68-16.309 27.36 5.173 13.69-10.355 19.98-6.66 34.03 3.694 14.05 27.734 11.1 37.351-7.76 9.616-18.87 13.021-54.01-14.382-53.63zM756.234 899.413c-9.294 7.434-13.642 54.776 6.34 51.702 19.982-3.074 7.688-9.608 22.68-7.112 14.992 2.495 30.937 1.542 32.093-19.601 1.157-21.144-23.248-14.417-32.093-17.106-8.834-2.688-18.45-16.334-29.02-7.883zm246.976 177.447c3.08 21.29 28.65 10.64 47.64 19.97 18.99 9.32 19.21 32.18 47.63 27.79 28.42-4.39 41.26-60.35 6.73-65.11-34.54-4.76-28.55-1.22-35.53-12.32-6.97-11.1-33.67-23.55-44.29-3.16-10.61 20.39-25.27 11.48-22.19 32.82l.01.01zm142.45 84.69c-28.04 10.8-5.6 42.34-12.42 71.1-6.81 28.77-37.87 36.16-23.08 73.52 14.78 37.36 94.99 37.5 90.76-11.02-4.23-48.52-7.19-39.28 5.75-52.23 12.95-12.95 21.63-53.18-9.43-61.32-31.07-8.14-23.49-30.87-51.59-20.05h.01zm-104.23-251.072c-12.72-.3-10.26 17.672-14.78 18.476-4.52.792-15.25-10.786-17.09 0-1.84 10.786 8.5 12.264 7.77 20.029-.74 7.765-19.066 22.932 9.32 32.915 28.39 9.982 26.84-18.862 38.01-25.524 11.16-6.663 32.16 9.361 37.71-9.19 5.55-18.552-5.19-34.457-17.57-32.979-12.38 1.478-15.72 14.909-23.48 12.264-7.76-2.646-5.77-15.659-19.89-16.002v.011zm275.69-127.31c19.38.461 15.62-26.916 22.51-28.138 6.88-1.221 23.22 16.431 26.04 0 2.81-16.43-12.96-18.679-11.83-30.515 1.12-11.835 29.03-34.928-14.21-50.148-43.25-15.21-40.88 28.737-57.89 38.87-17.01 10.143-49.01-14.267-57.45 13.999-8.45 28.255 7.91 52.483 26.77 50.234 18.85-2.25 23.95-22.718 35.76-18.68 11.81 4.038 8.78 23.864 30.3 24.367v.011zm-404.651-71.666c-6.489 17.244 10.816 25.031 15.613 36.995 4.808 11.964 22.819 35.399 42.341 21.882 19.521-13.517-11.094-28.951 6.007-38.398 13.589-7.508 39.34-39.095 8.706-42.479-18.333-2.025-14.413 19.6-27.028 19.9-12.614.3-32.435-33.043-45.65 2.1h.011zm380.401 123.667c-21.23-7.99-30.81 13.314-45.54 19.237-14.73 5.923-43.57 28.105-26.93 52.151 16.64 24.046 35.64-13.667 47.28 7.401 9.24 16.731 48.13 48.456 52.28 10.722 2.5-22.568-24.13-17.759-24.5-33.289-.37-15.531 40.68-39.941-2.59-56.222z"/></g><defs><clipPath id="clip0_547_2729"><path fill="#fff" d="M0 0h1366v1333H0z"/></clipPath></defs></svg> 289.939 773.132 307.041 763.685C320.629 756.177 346.383 724.59 315.746 721.206C297.414 719.181 301.333 740.807 288.719 741.107C276.104 741.406 256.283 708.064 243.069 743.206H243.08Z" fill="white"/>
<path d="M608.363 821.545C582.459 811.606 570.776 838.104 552.797 845.463C534.818 852.821 499.63 880.423 519.933 910.328C540.236 940.232 563.409 893.329 577.608 919.528C588.884 940.339 636.333 979.788 641.409 932.874C644.45 904.801 611.961 910.788 611.511 891.476C611.061 872.165 661.144 841.789 608.352 821.556L608.363 821.545Z" fill="white"/>
<path d="M772.907 740.914C776.548 755.877 741.414 775.96 772.907 812.591C801.145 845.42 830.818 830.114 842.03 817.903C853.231 805.693 854.408 805.897 859.73 804.911C865.053 803.926 891.62 810.62 896.942 791.126C902.253 771.633 894.854 761.029 889.071 755.684C878.834 746.237 870.171 750.564 863.875 744.063C857.674 737.658 870.835 710.731 851.078 706.457C829.276 701.733 830.411 730.674 818.6 727.332C806.788 723.991 814.862 678.898 786.496 685.142C763.045 690.316 767.607 719.064 772.929 740.914H772.907Z" fill="white"/>
<path d="M839.513 1158.17C829.94 1152.34 844.064 1133.86 809.027 1131.23C777.619 1128.87 770.22 1152.01 770.744 1164.06C771.258 1176.1 770.551 1176.61 768.324 1179.85C766.097 1183.08 748.985 1193.32 756.277 1206.08C763.57 1218.83 772.832 1220.48 778.551 1220.26C788.681 1219.85 789.259 1219.09 795.834 1219.19C802.409 1219.28 811.04 1233.99 823.408 1226.03C837.05 1217.24 823.954 1207.04 831.75 1202.68C839.545 1198.32 847.266 1210.27 856.572 1191.31C863.918 1176.32 853.488 1166.66 839.513 1158.16V1158.17Z" fill="white"/>
<path d="M1293.46 1122.09C1300.93 1109.83 1337.3 1119.76 1340.67 1074.87C1343.69 1034.63 1314.05 1025.15 1298.63 1025.81C1283.21 1026.48 1282.56 1025.57 1278.41 1022.71C1274.25 1019.85 1261.15 997.921 1244.81 1007.26C1228.47 1016.6 1226.36 1028.47 1226.65 1035.81C1227.17 1048.78 1230.71 1049.65 1230.58 1058.08C1230.45 1066.4 1209.06 1077.44 1219.25 1093.28C1230.51 1110.77 1231.47 1101.54 1237.05 1111.53C1242.63 1121.52 1224.96 1135.32 1247.77 1149.9C1266.63 1161.95 1282.55 1140 1293.45 1122.09H1293.46Z" fill="white"/>
<path d="M1136.11 801.569C1158.25 806.293 1155.53 834.302 1148.59 847.058C1141.65 859.815 1158.57 876.738 1140.55 883.679C1122.52 890.609 1125.3 875.078 1118.08 870.922C1110.86 866.766 1088.96 864.913 1091.18 843.502C1093.4 822.091 1102.83 830.135 1108.94 825.144C1115.04 820.153 1119.19 797.96 1136.11 801.569Z" fill="white"/>
<path d="M1317.33 1204.11C1339.46 1208.83 1336.74 1236.84 1329.81 1249.59C1322.88 1262.35 1339.79 1279.27 1321.76 1286.21C1303.74 1293.14 1306.51 1277.61 1299.3 1273.46C1292.08 1269.3 1270.18 1267.45 1272.4 1246.04C1274.61 1224.63 1284.05 1232.67 1290.15 1227.68C1296.26 1222.69 1300.41 1200.5 1317.33 1204.11Z" fill="white"/>
<path d="M741.853 997.096C726.39 992.009 731.701 968.552 706.665 977.774C681.629 986.996 699.169 999.549 697.103 1007.91C695.036 1016.28 676.446 1029 688.804 1040.5C701.161 1051.99 717.213 1039.91 722.107 1051.07C727.001 1062.23 736.552 1091.75 769.663 1070.83C802.783 1049.91 767.671 1005.59 741.853 997.096Z" fill="white"/>
<path d="M686.512 854.47C686.726 859.622 678.888 867.366 685.131 871.672C691.374 875.978 703.646 872.572 704.609 867.099C705.573 861.625 700.722 863.425 702.114 859.751C703.506 856.077 707.865 851.985 703.431 847.198C698.998 842.41 685.891 839.432 686.512 854.481V854.47Z" fill="white"/>
<path d="M1182.06 986.053C1182.28 991.205 1174.44 998.949 1180.68 1003.25C1186.92 1007.56 1199.2 1004.15 1200.16 998.681C1201.12 993.208 1196.27 995.008 1197.66 991.334C1199.06 987.66 1203.41 983.568 1198.98 978.781C1194.55 973.993 1181.44 971.015 1182.06 986.064V986.053Z" fill="white"/>
<path d="M986.774 849.811C990.565 853.303 990.501 864.324 997.954 862.953C1005.41 861.582 1011.68 850.497 1008.49 845.934C1005.3 841.371 1003.15 846.084 1001.53 842.506C999.914 838.929 1000.11 832.942 993.585 832.695C987.064 832.449 975.691 839.614 986.774 849.811Z" fill="white"/>
<path d="M968.345 1175.81C972.136 1179.3 972.072 1190.32 979.525 1188.95C986.978 1187.58 993.253 1176.49 990.062 1171.93C986.871 1167.37 984.718 1172.08 983.101 1168.5C981.485 1164.92 981.677 1158.94 975.156 1158.69C968.635 1158.44 957.262 1165.61 968.345 1175.81Z" fill="white"/>
<path d="M1114.43 705.611C1140.27 712.305 1152.52 714.49 1150.67 737.047C1148.81 759.604 1121.45 748.143 1102.96 747.404C1084.47 746.665 1091.76 765.902 1071.28 755.17C1050.82 744.448 1068.94 733.716 1069.68 726.315C1070.42 718.913 1060.44 701.166 1081.15 697.095C1101.86 693.025 1094.46 700.427 1114.43 705.6V705.611Z" fill="white"/>
<path d="M761.717 1277.16C787.556 1283.86 799.807 1286.04 797.954 1308.6C796.102 1331.16 768.742 1319.7 750.248 1318.96C731.755 1318.22 739.047 1337.46 718.573 1326.72C698.109 1316 716.228 1305.27 716.967 1297.87C717.706 1290.47 707.726 1272.72 728.435 1268.65C749.145 1264.58 741.746 1271.98 761.717 1277.15V1277.16Z" fill="white"/>
<path d="M889.607 865.535C924.762 865.952 916.924 873.675 925.062 879.962C933.2 886.25 943.181 882.918 946.511 895.868C949.841 908.817 942.817 915.844 946.511 927.679C950.205 939.515 939.486 963.186 922.471 965.403C905.466 967.62 902.5 949.872 880.687 945.063C858.874 940.254 855.544 922.87 861.829 906.225C868.115 889.581 858.231 865.171 889.607 865.535Z" fill="white"/>
<path d="M1031.74 1268.93C1031.32 1304.09 1023.6 1296.25 1017.31 1304.39C1011.03 1312.53 1014.36 1322.51 1001.41 1325.85C988.466 1329.18 981.442 1322.15 969.609 1325.85C957.776 1329.54 934.111 1318.82 931.894 1301.8C929.678 1284.79 947.421 1281.82 952.229 1260.01C957.037 1238.19 974.417 1234.86 991.058 1241.14C1007.7 1247.43 1032.1 1237.54 1031.74 1268.93Z" fill="white"/>
<path d="M899.833 1043.05C884.349 1043.26 878.352 1056.73 883.524 1070.41C888.697 1084.1 873.169 1090.39 876.864 1104.44C880.558 1118.49 904.598 1115.54 914.215 1096.68C923.831 1077.81 927.236 1042.67 899.833 1043.05Z" fill="white"/>
<path d="M756.234 899.413C746.94 906.847 742.592 954.189 762.574 951.115C782.556 948.041 770.262 941.507 785.254 944.003C800.246 946.498 816.191 945.545 817.347 924.402C818.504 903.258 794.099 909.985 785.254 907.296C776.42 904.608 766.804 890.962 756.234 899.413Z" fill="white"/>
<path d="M1003.21 1076.86C1006.29 1098.15 1031.86 1087.5 1050.85 1096.83C1069.84 1106.15 1070.06 1129.01 1098.48 1124.62C1126.9 1120.23 1139.74 1064.27 1105.21 1059.51C1070.67 1054.75 1076.66 1058.29 1069.68 1047.19C1062.71 1036.09 1036.01 1023.64 1025.39 1044.03C1014.78 1064.42 1000.12 1055.51 1003.2 1076.85L1003.21 1076.86Z" fill="white"/>
<path d="M1145.66 1161.55C1117.62 1172.35 1140.06 1203.89 1133.24 1232.65C1126.43 1261.42 1095.37 1268.81 1110.16 1306.17C1124.94 1343.53 1205.15 1343.67 1200.92 1295.15C1196.69 1246.63 1193.73 1255.87 1206.67 1242.92C1219.62 1229.97 1228.3 1189.74 1197.24 1181.6C1166.17 1173.46 1173.75 1150.73 1145.65 1161.55H1145.66Z" fill="white"/>
<path d="M1041.43 910.478C1028.71 910.178 1031.17 928.15 1026.65 928.954C1022.13 929.746 1011.4 918.168 1009.56 928.954C1007.72 939.74 1018.06 941.218 1017.33 948.983C1016.59 956.748 998.264 971.915 1026.65 981.898C1055.04 991.88 1053.49 963.036 1064.66 956.374C1075.82 949.711 1096.82 965.735 1102.37 947.184C1107.92 928.632 1097.18 912.727 1084.8 914.205C1072.42 915.683 1069.08 929.114 1061.32 926.469C1053.56 923.823 1055.55 910.81 1041.43 910.467V910.478Z" fill="white"/>
<path d="M1317.12 783.168C1336.5 783.629 1332.74 756.252 1339.63 755.03C1346.51 753.809 1362.85 771.461 1365.67 755.03C1368.48 738.6 1352.71 736.351 1353.84 724.515C1354.96 712.68 1382.87 689.587 1339.63 674.367C1296.38 659.157 1298.75 703.104 1281.74 713.237C1264.73 723.38 1232.73 698.97 1224.29 727.236C1215.84 755.491 1232.2 779.719 1251.06 777.47C1269.91 775.22 1275.01 754.752 1286.82 758.79C1298.63 762.828 1295.6 782.654 1317.12 783.157V783.168Z" fill="white"/>
<path d="M912.469 711.502C905.98 728.746 923.285 736.533 928.082 748.497C932.89 760.461 950.901 783.896 970.423 770.379C989.944 756.862 959.329 741.428 976.43 731.981C990.019 724.473 1015.77 692.886 985.136 689.502C966.803 687.477 970.723 709.102 958.108 709.402C945.494 709.702 925.673 676.359 912.458 711.502H912.469Z" fill="white"/>
<path d="M1292.87 835.169C1271.64 827.179 1262.06 848.483 1247.33 854.406C1232.6 860.329 1203.76 882.511 1220.4 906.557C1237.04 930.603 1256.04 892.89 1267.68 913.958C1276.92 930.689 1315.81 962.414 1319.96 924.68C1322.46 902.112 1295.83 906.921 1295.46 891.391C1295.09 875.86 1336.14 851.45 1292.87 835.169Z" fill="white"/>
</g>
<defs>
<clipPath id="clip0_547_2729">
<rect width="1366" height="1333" fill="white"/>
</clipPath>
</defs>
</svg>
