<svg width="165" height="45" viewBox="0 0 165 45" fill="none" xmlns="http://www.w3.org/2000/svg">
<path d="M159.952 33.2094V39.4233H160.111L163.172 33.2094H165V40.5893H163.753V34.5969H163.593L160.619 40.5893H158.704V33.2094H159.952ZM160.488 30.4051C160.488 30.7003 160.59 30.966 160.793 31.1874C160.996 31.4235 161.359 31.5268 161.852 31.5268C162.345 31.5268 162.694 31.4235 162.897 31.1874C163.1 30.966 163.216 30.7003 163.216 30.4051L164.318 30.5527C164.318 31.1578 164.086 31.6449 163.636 31.9991C163.187 32.3534 162.592 32.5305 161.852 32.5305C161.098 32.5305 160.503 32.3534 160.053 31.9991C159.604 31.6449 159.386 31.1578 159.386 30.5527L160.488 30.4051Z" fill="#111111"/>
<path d="M152.004 33.2094V39.4233H152.164L155.225 33.2094H157.052V40.5893H155.805V34.5969H155.645L152.671 40.5893H150.756V33.2094H152.004Z" fill="#111111"/>
<path d="M144.198 33.2094V36.2647H147.854V33.2094H149.101V40.5893H147.854V37.3569H144.198V40.5893H142.95V33.2094H144.198Z" fill="#111111"/>
<path d="M137.104 40.796C136.785 40.796 136.48 40.7664 136.19 40.6779C135.9 40.6041 135.639 40.486 135.436 40.3089C135.218 40.1465 135.044 39.9399 134.928 39.6742C134.798 39.4233 134.74 39.1133 134.74 38.7591C134.74 38.4934 134.798 38.1982 134.914 37.8735C135.03 37.5636 135.291 37.2684 135.668 37.0027C136.045 36.737 136.582 36.5156 137.278 36.3385C137.975 36.1614 138.889 36.0728 140.035 36.0728V35.8072C140.035 35.6005 139.991 35.3791 139.919 35.1725C139.846 34.9659 139.73 34.7887 139.585 34.6264C139.425 34.464 139.222 34.3312 138.961 34.2426C138.7 34.1541 138.395 34.095 138.047 34.095C137.365 34.095 136.858 34.2574 136.524 34.5821C136.19 34.9068 136.031 35.3201 136.031 35.8219H134.783C134.783 35.3496 134.87 34.9216 135.059 34.5673C135.233 34.2131 135.479 33.9327 135.784 33.6965C136.074 33.4604 136.422 33.298 136.814 33.1799C137.191 33.0618 137.597 33.0028 138.004 33.0028C138.598 33.0028 139.106 33.0766 139.527 33.2242C139.933 33.3718 140.281 33.5784 140.542 33.8441C140.803 34.1098 140.992 34.4345 141.108 34.7887C141.224 35.1577 141.282 35.5562 141.282 35.999V37.9326C141.282 38.3016 141.282 38.6115 141.297 38.8772C141.311 39.1429 141.34 39.379 141.369 39.5857C141.398 39.7923 141.427 39.9842 141.471 40.1318C141.5 40.2941 141.543 40.4417 141.587 40.5893H140.31C140.223 40.3974 140.165 40.1613 140.136 39.8956C140.107 39.6299 140.078 39.3938 140.078 39.1871H139.919C139.686 39.6447 139.324 40.0285 138.831 40.3384C138.337 40.6484 137.757 40.796 137.104 40.796ZM137.278 39.7333C137.655 39.7333 138.004 39.6742 138.352 39.5414C138.685 39.4085 138.976 39.2314 139.222 39.01C139.469 38.8034 139.672 38.5672 139.817 38.3016C139.962 38.0359 140.035 37.7702 140.035 37.5045V36.9879C139.222 37.0175 138.569 37.0765 138.047 37.1651C137.525 37.2684 137.119 37.4012 136.814 37.5488C136.509 37.6964 136.292 37.8735 136.176 38.0802C136.06 38.2868 136.002 38.4934 136.002 38.7001C136.002 39.0543 136.118 39.32 136.364 39.4823C136.596 39.6595 136.901 39.7333 137.278 39.7333Z" fill="#111111"/>
<path d="M133.438 33.2094V40.5893H132.19V34.3017H128.303V40.5893H127.055V33.2094H133.438Z" fill="#111111"/>
<path d="M119.04 33.2094L121.173 39.5709H121.318L123.465 33.2094H125.394V40.5893H124.219V34.5378H124.074L122.014 40.5893H120.418L118.373 34.5378H118.228V40.5893H117.067V33.2094H119.04Z" fill="#111111"/>
<path d="M108.175 36.8846C108.175 36.2795 108.262 35.7334 108.465 35.2463C108.653 34.774 108.915 34.3607 109.263 34.036C109.596 33.7113 110.003 33.4456 110.467 33.2685C110.931 33.0914 111.453 33.0028 112.005 33.0028C112.556 33.0028 113.064 33.0914 113.528 33.2685C113.992 33.4456 114.398 33.7113 114.746 34.036C115.08 34.3607 115.341 34.774 115.544 35.2463C115.733 35.7334 115.834 36.2795 115.834 36.8846C115.834 37.5341 115.733 38.0949 115.544 38.582C115.341 39.0691 115.08 39.4823 114.746 39.8071C114.398 40.1318 113.992 40.3827 113.528 40.545C113.064 40.7222 112.556 40.796 112.005 40.796C111.453 40.796 110.931 40.7222 110.467 40.545C110.003 40.3827 109.596 40.1318 109.263 39.8071C108.915 39.4823 108.653 39.0691 108.465 38.582C108.262 38.0949 108.175 37.5341 108.175 36.8846ZM114.587 36.9141C114.587 36.4271 114.514 35.999 114.369 35.6448C114.224 35.2906 114.036 35.0101 113.803 34.774C113.571 34.5378 113.296 34.3755 112.991 34.2574C112.672 34.1541 112.353 34.095 112.005 34.095C111.656 34.095 111.323 34.1541 111.018 34.2574C110.699 34.3755 110.423 34.5378 110.191 34.774C109.959 35.0101 109.77 35.2906 109.625 35.6448C109.48 35.999 109.422 36.4271 109.422 36.9141C109.422 37.416 109.48 37.8292 109.625 38.1835C109.77 38.5377 109.959 38.8182 110.191 39.0395C110.423 39.2757 110.699 39.4381 111.018 39.5414C111.323 39.6595 111.656 39.7037 112.005 39.7037C112.353 39.7037 112.672 39.6595 112.991 39.5414C113.296 39.4381 113.571 39.2757 113.803 39.0395C114.036 38.8182 114.224 38.5377 114.369 38.1835C114.514 37.8292 114.587 37.416 114.587 36.9141Z" fill="#111111"/>
<path d="M105.151 38.272C104.977 37.9621 104.789 37.7407 104.615 37.6079C104.426 37.4898 104.179 37.416 103.875 37.416H102.83V40.5893H101.583V33.2094H102.83V36.3238H103.875C104.179 36.3238 104.441 36.2647 104.658 36.1466C104.861 36.0286 105.05 35.8072 105.195 35.4529L106.138 33.2094H107.487L106.515 35.4086C106.399 35.6596 106.298 35.8662 106.196 36.0286C106.094 36.1909 105.993 36.3238 105.891 36.4123C105.79 36.5156 105.688 36.5894 105.572 36.6337C105.456 36.6927 105.34 36.7223 105.195 36.737V36.9437C105.5 37.0027 105.746 37.1355 105.935 37.3569C106.123 37.5783 106.327 37.8735 106.559 38.2573L107.893 40.5893H106.399L105.151 38.272Z" fill="#111111"/>
<path d="M92.1098 40.796C91.7906 40.796 91.486 40.7664 91.1958 40.6779C90.9057 40.6041 90.6446 40.486 90.4415 40.3089C90.2239 40.1465 90.0498 39.9399 89.9337 39.6742C89.8032 39.4233 89.7451 39.1133 89.7451 38.7591C89.7451 38.4934 89.8032 38.1982 89.9192 37.8735C90.0353 37.5636 90.2964 37.2684 90.6736 37.0027C91.0508 36.737 91.5875 36.5156 92.2839 36.3385C92.9802 36.1614 93.8941 36.0728 95.0402 36.0728V35.8072C95.0402 35.6005 94.9967 35.3791 94.9241 35.1725C94.8516 34.9659 94.7355 34.7887 94.5905 34.6264C94.4309 34.464 94.2278 34.3312 93.9667 34.2426C93.7056 34.1541 93.4009 34.095 93.0527 34.095C92.3709 34.095 91.8632 34.2574 91.5295 34.5821C91.1958 34.9068 91.0363 35.3201 91.0363 35.8219H89.7887C89.7887 35.3496 89.8757 34.9216 90.0643 34.5673C90.2384 34.2131 90.485 33.9327 90.7896 33.6965C91.0798 33.4604 91.428 33.298 91.8196 33.1799C92.1968 33.0618 92.603 33.0028 93.0092 33.0028C93.604 33.0028 94.1117 33.0766 94.5325 33.2242C94.9386 33.3718 95.2868 33.5784 95.5479 33.8441C95.8091 34.1098 95.9977 34.4345 96.1137 34.7887C96.2298 35.1577 96.2878 35.5562 96.2878 35.999V37.9326C96.2878 38.3016 96.2878 38.6115 96.3023 38.8772C96.3168 39.1429 96.3458 39.379 96.3748 39.5857C96.4039 39.7923 96.4329 39.9842 96.4764 40.1318C96.5054 40.2941 96.5489 40.4417 96.5924 40.5893H95.3158C95.2288 40.3974 95.1708 40.1613 95.1417 39.8956C95.1127 39.6299 95.0837 39.3938 95.0837 39.1871H94.9241C94.692 39.6447 94.3294 40.0285 93.8361 40.3384C93.3429 40.6484 92.7626 40.796 92.1098 40.796ZM92.2839 39.7333C92.661 39.7333 93.0092 39.6742 93.3574 39.5414C93.691 39.4085 93.9812 39.2314 94.2278 39.01C94.4744 38.8034 94.6775 38.5672 94.8226 38.3016C94.9677 38.0359 95.0402 37.7702 95.0402 37.5045V36.9879C94.2278 37.0175 93.575 37.0765 93.0527 37.1651C92.5305 37.2684 92.1243 37.4012 91.8196 37.5488C91.515 37.6964 91.2974 37.8735 91.1813 38.0802C91.0653 38.2868 91.0072 38.4934 91.0072 38.7001C91.0072 39.0543 91.1233 39.32 91.3699 39.4823C91.602 39.6595 91.9067 39.7333 92.2839 39.7333Z" fill="#111111"/>
<path d="M88.4437 33.2094V40.5893H87.1961V34.3017H83.3082V40.5893H82.0606V33.2094H88.4437Z" fill="#111111"/>
<path d="M80.411 33.2094V40.5893H79.1634V34.3017H75.2755V40.5893H74.0279V33.2094H80.411Z" fill="#111111"/>
<path d="M68.4388 40.5893L65.6969 33.2094H67.0171L69.2657 39.4971H69.4688L71.6883 33.2094H73.0085L69.2657 43.2461H68.0181L69.0626 40.5893H68.4388Z" fill="#111111"/>
<path d="M59.0371 33.2094L59.1096 34.5378H59.2837C59.6029 33.977 59.9945 33.5784 60.4733 33.3423C60.9375 33.1209 61.4598 33.0028 62.011 33.0028C62.4898 33.0028 62.9395 33.0914 63.3602 33.2685C63.7664 33.4456 64.129 33.6965 64.4337 34.0212C64.7238 34.3607 64.9559 34.774 65.13 35.2463C65.3041 35.7186 65.3912 36.2647 65.3912 36.8846C65.3912 37.5341 65.3041 38.0949 65.13 38.582C64.9559 39.0691 64.7093 39.4823 64.4047 39.8071C64.0855 40.1318 63.7228 40.3827 63.3021 40.545C62.8814 40.7222 62.4172 40.796 61.924 40.796C61.4307 40.796 60.952 40.6926 60.4733 40.4712C59.9945 40.2498 59.6029 39.8809 59.2837 39.3495H59.1096L59.1676 40.4417V43.2461H57.92V33.2094H59.0371ZM64.1436 36.9141C64.1436 36.4123 64.071 35.9843 63.955 35.6153C63.8389 35.2611 63.6648 34.9511 63.4472 34.7149C63.2296 34.4788 62.9685 34.3164 62.6783 34.1983C62.3737 34.095 62.0545 34.036 61.7064 34.036C61.3582 34.036 61.0391 34.095 60.7344 34.1836C60.4153 34.2869 60.1541 34.4493 59.922 34.6707C59.6899 34.9068 59.5013 35.202 59.3707 35.5562C59.2257 35.9252 59.1676 36.3828 59.1676 36.9141C59.1676 37.4455 59.2257 37.903 59.3707 38.2573C59.5013 38.6115 59.6899 38.9067 59.922 39.1281C60.1541 39.3643 60.4153 39.5266 60.7344 39.6152C61.0391 39.7185 61.3582 39.7628 61.7064 39.7628C62.0545 39.7628 62.3737 39.7185 62.6783 39.6004C62.9685 39.4971 63.2296 39.3347 63.4472 39.0986C63.6648 38.8624 63.8389 38.5672 63.955 38.213C64.071 37.8588 64.1436 37.416 64.1436 36.9141Z" fill="#111111"/>
<path d="M56.8096 33.2094V34.3017H52.8492V40.5893H51.6016V33.2094H56.8096Z" fill="#111111"/>
<path d="M119.81 14.0218C119.81 12.7524 119.636 11.6012 119.288 10.568C118.94 9.5348 118.446 8.64921 117.808 7.91123C117.141 7.20276 116.328 6.64189 115.342 6.22861C114.356 5.84486 113.224 5.63822 111.947 5.63822C110.671 5.63822 109.539 5.84486 108.553 6.22861C107.566 6.64189 106.725 7.20276 106.087 7.91123C105.419 8.64921 104.926 9.5348 104.578 10.568C104.23 11.6012 104.085 12.7524 104.085 14.0218C104.085 15.0845 104.23 16.0881 104.52 17.0918C104.81 18.0955 105.245 19.0106 105.883 19.7781C106.522 20.5751 107.334 21.2245 108.321 21.6968C109.307 22.1692 110.526 22.4053 111.947 22.4053C113.34 22.4053 114.559 22.1692 115.545 21.6968C116.532 21.2245 117.344 20.5751 117.982 19.7781C118.621 19.0106 119.085 18.0955 119.375 17.0918C119.665 16.0881 119.81 15.0845 119.81 14.0218ZM101.473 14.0218C101.473 12.5753 101.705 11.1879 102.17 9.88903C102.634 8.59017 103.301 7.43891 104.201 6.46477C105.071 5.49063 106.174 4.72312 107.479 4.13273C108.785 3.57186 110.265 3.27666 111.947 3.27666C113.601 3.27666 115.081 3.57186 116.386 4.13273C117.692 4.72312 118.795 5.49063 119.694 6.46477C120.564 7.43891 121.261 8.59017 121.725 9.88903C122.189 11.1879 122.421 12.5753 122.421 14.0218C122.421 15.4977 122.189 16.8556 121.754 18.1545C121.29 19.4534 120.623 20.6046 119.752 21.5788C118.882 22.5529 117.779 23.3204 116.474 23.9108C115.168 24.5012 113.659 24.7669 111.947 24.7669C110.206 24.7669 108.698 24.5012 107.392 23.9108C106.087 23.3204 104.984 22.5529 104.114 21.5788C103.243 20.6046 102.576 19.4534 102.141 18.1545C101.676 16.8556 101.473 15.4977 101.473 14.0218Z" fill="#111111"/>
<path d="M86.6492 3.68994V21.4312H86.9683L95.1793 3.68994H98.9511V24.3536H96.3398V6.78949H96.0497L87.8387 24.3536H84.0379V3.68994H86.6492Z" fill="#111111"/>
<path d="M73.8032 3.68994C74.9638 3.68994 76.0083 3.86705 76.9367 4.16225C77.8652 4.45744 78.6485 4.90024 79.2868 5.49063C79.9252 6.08102 80.4474 6.78949 80.7956 7.61603C81.1437 8.4721 81.3468 9.44624 81.3468 10.5089C81.3468 11.5126 81.1728 12.4277 80.8246 13.2838C80.4764 14.1398 80.0122 14.8778 79.3739 15.4977C78.7356 16.1472 77.9522 16.649 77.0238 17.0032C76.0953 17.3575 75.0218 17.5346 73.8612 17.5346H69.4221V24.3536H66.8108V3.68994H73.8032ZM69.4221 6.0515V15.173H74.0643C75.428 15.173 76.5595 14.7893 77.43 13.9627C78.3004 13.1362 78.7356 11.9849 78.7356 10.5089C78.7356 9.03297 78.3004 7.94074 77.488 7.17324C76.6466 6.43525 75.457 6.0515 73.9483 6.0515H69.4221Z" fill="#111111"/>
<path d="M48.5986 6.0515V3.68994H64.4403V6.0515H57.8251V24.3536H55.2138V6.0515H48.5986Z" fill="#111111"/>
<path d="M28.0207 22.5086C28.8318 22.5086 29.4955 21.8333 29.4955 21.0081V19.5076C29.4955 18.6824 28.8318 18.0072 28.0207 18.0072C27.2096 18.0072 26.5459 18.6824 26.5459 19.5076V21.0081C26.5459 21.8333 27.2096 22.5086 28.0207 22.5086ZM7.24114 6.75365C8.96662 6.75365 10.4414 7.92401 10.8986 9.52951C10.3972 10.0397 9.98422 10.6249 9.64502 11.255H7.5066C6.49356 11.255 5.52201 10.8456 4.80569 10.1168C4.08936 9.388 3.68693 8.39953 3.68693 7.36884V7.06875C3.68693 6.88869 3.81966 6.75365 3.99664 6.75365H7.24114ZM19.1721 30.0109C19.1721 30.4088 19.0167 30.7905 18.7401 31.0719C18.4635 31.3533 18.0884 31.5114 17.6973 31.5114C17.3062 31.5114 16.931 31.3533 16.6545 31.0719C16.3779 30.7905 16.2225 30.4088 16.2225 30.0109C16.2225 29.6129 16.3779 29.2313 16.6545 28.9499C16.931 28.6685 17.3062 28.5104 17.6973 28.5104C18.0884 28.5104 18.4635 28.6685 18.7401 28.9499C19.0167 29.2313 19.1721 29.6129 19.1721 30.0109ZM26.5459 31.5114C26.9371 31.5114 27.3122 31.3533 27.5888 31.0719C27.8653 30.7905 28.0207 30.4088 28.0207 30.0109C28.0207 29.6129 27.8653 29.2313 27.5888 28.9499C27.3122 28.6685 26.9371 28.5104 26.5459 28.5104C26.1548 28.5104 25.7797 28.6685 25.5031 28.9499C25.2265 29.2313 25.0712 29.6129 25.0712 30.0109C25.0712 30.4088 25.2265 30.7905 25.5031 31.0719C25.7797 31.3533 26.1548 31.5114 26.5459 31.5114Z" fill="#111111"/>
<path d="M17.917 0.147088L17.9023 0.15459C17.4613 0.333146 17.0086 0.559716 16.5602 0.874814C14.6991 2.1277 13.5222 3.94777 13.3098 6.07994C12.628 5.12812 11.7352 4.35338 10.7037 3.81865C9.67232 3.28392 8.53147 3.00429 7.37387 3.00248H2.21216C1.62546 3.00248 1.06279 3.2396 0.647927 3.66169C0.233066 4.08378 0 4.65626 0 5.25318V7.50388C0 9.49362 0.776887 11.4019 2.15976 12.8088C2.84448 13.5055 3.65737 14.0581 4.55201 14.4351C5.44665 14.8122 6.40552 15.0062 7.37387 15.0062V27.1255C6.43851 28.6206 5.92808 30.35 5.8991 32.1221C5.86615 34.6672 6.81248 37.1246 8.53604 38.9696C10.2596 40.8146 12.6238 41.9009 15.1238 41.9966C16.0341 42.9472 17.1223 43.7026 18.3241 44.2184C19.526 44.7343 20.8172 45 22.1216 45C23.426 45 24.7172 44.7343 25.9191 44.2184C27.1209 43.7026 28.2091 42.9472 29.1194 41.9966C31.6194 41.9009 33.9836 40.8146 35.7072 38.9696C37.4307 37.1246 38.3771 34.6672 38.3441 32.1221C38.3162 30.3479 37.8057 28.6164 36.8693 27.1195V15.0062C38.825 15.0062 40.7006 14.2158 42.0835 12.8088C43.4663 11.4019 44.2432 9.49362 44.2432 7.50388V5.25318C44.2432 4.65626 44.0101 4.08378 43.5953 3.66169C43.1804 3.2396 42.6178 3.00248 42.0311 3.00248H36.8693C35.1323 3.00346 33.4519 3.63078 32.1265 4.77303C31.6413 3.21254 30.6134 1.85462 29.1563 0.874814C28.7373 0.584535 28.2876 0.342952 27.8157 0.15459L27.801 0.147088C26.0652 -0.535625 24.5034 1.28894 25.2319 2.93045L25.2363 2.94246L25.2422 2.95446C25.7112 3.95978 25.8071 4.96959 25.4575 6.00341H20.5289C20.4855 5.78135 20.4476 5.55821 20.4153 5.3342C20.3423 4.85626 20.3092 4.37288 20.3165 3.88925C20.3312 3.41961 20.402 3.11651 20.4772 2.95446L20.4831 2.94246L20.4876 2.93045C21.2161 1.28894 19.6528 -0.535625 17.917 0.147088ZM15.4851 9.00435H23.5964L25.6316 11.075C26.391 11.8466 27.2925 12.4585 28.2844 12.8756C29.2764 13.2926 30.3394 13.5068 31.4127 13.5058H33.8711L33.8888 13.6708C33.9095 13.8659 33.9198 14.0609 33.9198 14.256V26.2507C32.3619 25.2664 30.5624 24.75 28.7286 24.7608H20.6468V22.6886C20.6468 18.8174 18.6411 14.9012 15.4851 12.7555C13.9101 11.6827 10.3234 12.0053 10.3234 12.0053H7.37387C6.20047 12.0053 5.07512 11.531 4.2454 10.6869C3.41568 9.84268 2.94955 8.69773 2.94955 7.50388V6.00341H7.37387C8.2332 6.00297 9.07407 6.25715 9.79376 6.73491C10.5134 7.21267 11.0808 7.89333 11.4265 8.69375L12.0238 10.0772L13.3791 9.45899C14.0428 9.1589 14.7595 9.00285 15.4851 9.00435ZM15.4851 39.0137C14.6052 39.0138 13.7341 38.8359 12.9224 38.4903C12.1107 38.1447 11.3747 37.6383 10.7571 37.0006C10.1396 36.363 9.65281 35.6067 9.32517 34.7759C8.99753 33.945 8.83554 33.0562 8.84864 32.1611C8.86632 30.8115 9.2865 29.4991 10.0535 28.3979L10.1568 28.2493C11.5224 27.007 13.4603 26.2237 15.6341 26.2612H28.7301C30.8567 26.2552 32.7488 27.0295 34.0879 28.2463L34.1897 28.3934C34.9566 29.4962 35.3783 30.8091 35.3946 32.1611C35.4077 33.0562 35.2457 33.945 34.918 34.7759C34.5904 35.6067 34.1036 36.363 33.4861 37.0006C32.8685 37.6383 32.1325 38.1447 31.3208 38.4903C30.5091 38.8359 29.638 39.0138 28.7581 39.0137H15.4851ZM17.8861 40.5142H26.3454C25.3514 41.3065 24.1617 41.8042 22.9074 41.9525C21.6531 42.1007 20.383 41.8938 19.2369 41.3544C18.7566 41.1278 18.3033 40.8458 17.8861 40.5142ZM36.8693 12.0053H34.9344C34.836 11.7491 34.7237 11.4987 34.5982 11.255H36.7366C37.7496 11.255 38.7212 10.8456 39.4375 10.1168C40.1539 9.388 40.5563 8.39952 40.5563 7.36884V7.06874C40.5563 6.88869 40.4235 6.75365 40.2466 6.75365H37.0021C35.2766 6.75365 33.8018 7.92401 33.3446 9.52951C33.3584 9.54352 33.3702 9.55802 33.38 9.57302C33.1641 9.35424 32.9351 9.14928 32.6943 8.95933L32.8093 8.68925C33.1562 7.8885 33.725 7.20799 34.4461 6.73097C35.1671 6.25396 36.0092 6.00113 36.8693 6.00341H41.2937V7.50388C41.2937 8.69773 40.8275 9.84268 39.9978 10.6869C39.1681 11.531 38.0427 12.0053 36.8693 12.0053ZM14.7477 21.0081V19.5076C14.7477 18.6824 15.4114 18.0072 16.2225 18.0072C17.0336 18.0072 17.6973 18.6824 17.6973 19.5076V21.0081C17.6973 21.8333 17.0336 22.5086 16.2225 22.5086C15.4114 22.5086 14.7477 21.8333 14.7477 21.0081Z" fill="#111111"/>
</svg>
