<svg width="1758" height="780" viewBox="0 0 1758 780" fill="none" xmlns="http://www.w3.org/2000/svg"><path d="M1092 278v50h-57.5v300h-55V328H922v-50h170zm105.22 0c27.34 0 47.84 7.333 61.5 22 13.67 14.667 20.5 36.167 20.5 64.5V410c0 28.333-6.83 49.833-20.5 64.5-13.66 14.667-34.16 22-61.5 22h-26V628h-55V278h81zm-26 168.5h26c9 0 15.67-2.5 20-7.5 4.67-5 7-13.5 7-25.5V361c0-12-2.33-20.5-7-25.5-4.33-5-11-7.5-20-7.5h-26v118.5zM1304.7 628V278h49v221.5l20-77 45-144.5h60.5v350h-49.5V381.5l-22.5 86-46 160.5h-56.5zm208.88-266c0-28 7.16-49.667 21.5-65 14.33-15.333 35-23 62-23s47.66 7.667 62 23c14.33 15.333 21.5 37 21.5 65v182c0 28-7.17 49.667-21.5 65-14.34 15.333-35 23-62 23s-47.67-7.667-62-23c-14.34-15.333-21.5-37-21.5-65V362zm55 185.5c0 23 9.5 34.5 28.5 34.5s28.5-11.5 28.5-34.5v-189c0-23-9.5-34.5-28.5-34.5s-28.5 11.5-28.5 34.5v189z" fill="#fff"/><g clip-path="url(#clip0_2765_804)" fill="#fff"><path d="M383.641 408.3c-3.2-2.9-8.5-1.2-9.4-.8 5.8 10.6 3.6 17.8-1.5 22-5.1 4.3-15.8 9-8.3 14.9 0 0 10.9-1.6 19.4-3.9 8.5-2.2 13.2-8.3 10.9-15.2-2.3-6.9-7.9-14.1-11.1-17zm399.871 10.29c-5.45 2.51-6.43 9.26-4.37 15.39 2.06 6.13 11.05 10.46 15.26 10.59 4.25.22 8.05 6.48 10.51 5.36 5.1-2.33 4.47-7.61 0-15.21-4.48-7.6-12.75-4.24-16.86-8.22-4.12-3.98.93-10.42-4.52-7.91h-.02zM129.04 544.4c-8.1 3.4-9.4 9.2-7 19 0 0 6-3.4 12-5.5s4.2-9.2 6.6-15.9c-5 1.9-3.5-1-11.6 2.4zm146.761-185.021c.26-.9.5-1.8.7-2.69l1.41-6.16c-.63 2.67-1.35 5.72-2.11 8.85zm3.921-16.719l-.37 1.6c.15-.62.27-1.16.37-1.6zm-216.42 19.619c6.68 0 12.72.75 18.01 1.88 5.85-84.21 40.4-160.51 93.92-219.2-.26-2.13-.48-4.23-.69-6.29-1.05-10.11-1.14-20.17-.25-28.31.08-.78.18-1.58.3-2.41-68.15 65.13-112.72 154.74-119.58 254.71h.04c2.74-.25 5.52-.38 8.25-.38z"/><path d="M855.051 400.799c-12.08-10.1-27.97-23.43-33.74-36.41-2.5-5.63-12.93-23.15-15.11-37.03-1.22-7.71 4.44-8.78 4.41-21 5.62-.37 9.66-3.15 12.44-10.89-9.56 1.33-13.15-1.89-11.44-11.45 10.59 2.3 39.77-13.17 46.66-47.02 1.56-7.64-34.44-27.2-59.55-18.76-8.46 2.85-15.06 12.77-21.26 8.37-3.51-2.43-.42-23.59-16.45-38.37-7.07-6.52-21.68-13.56-35.85-14.51-10.48-.71-20.99 4.1-26.66 3.63-5.84-.49-19.44-8.98-33.89-7.45-18.23 1.93-38.55 13.06-54.41 1-3.35 1.06-8.37 4.37-14.22 9.26 11.7.27 33.23 11.55 50.96 11.93-2.39-6.32 15.96-9.73 30.22-7.41 13.16 2.14 24.37 9.79 29.48 10.07 3.97.22 9.07-5.99 25.6-5.18 17.59.89 41.54 46.22 21.26 27.11 7.63 12.81 21.98 27.82 24.25 30.22 7.1 7.6 19.69 18.76 21.62 29.18 2.24 12.14-5.99 20.97-5.84 38.15-3.63-6.44-4.55-13.06-6.07-22.22-1.8 1.8-1.85 21.71 2.44 34.59 2.08 6.23 10.34 30.36 24.6 49.93 17.43 23.95 41.79 37.37 39.22 43.48-4.47 10.64-18.45 23.45-6.67 31.78 8.89-22 7.18-8.27 7 1.11-.15 7.92-5.22 24.11-15.89 21.45-6.21-1.56-18.07-2.04-26.66-1.2-8.78.86-22.96 6.86-35.12 9.08-20.99 3.84-31.46-14.01-37.11-18.82-2.55-2.18-7.18-7.58-16.33-7.84 12.78 11.44 9.93 16.52 12.22 21.78-28.37-7.63-43.24-9.42-61.17-16.98-14.6-6.15-27.05-10.32-37.05-17.69-5.3-3.91-42.89-22.22-27.78-97.56 2.6 19.48 8 51.13 27.59 63.29 16 9.93 46.86-1.29 63.19-13.18 14.66-10.68 43.44-6.77 51.44-17.66 7.32-9.96 9.63-20.15 3.12-30.22-8.68-13.42-21.56-22.23-19.56-42.23.56-5.63 2.07-13.56-4.44-30.37-6.31-16.26-34.81-26.02-44.89-22.46-7.92 2.79-24.76-5.52-41.44-15.3-6.67 16.16-19.99 47.15-42.03 53.33-4.76 1.33-11.4 5.12-15.17 6.14-7.48 2.02-16.39 43.74-3.31 89.82-10.99-35.69-16.07-40.01-23.12-93.19 7.8-4.5 18.2-6.6 38.9-12.4 20.7-5.8 34.3-45.5 38-53.5 3.7-8.1 7.2-17.1-.2-18.6-7.2-1.46-16.52-16.36-64.57-21.59-5-.54-6.72-7.31-6.06-7.71 39.44-23.8 51.3-52.12 54.11-72.54 2.07-15.11 4-40.89-3.08-43.11-6.15-1.93-14.7 14.82-19.41 26.9-9.14 23.41-23.57 26.68-28.33 29.25-11.75 6.34-31.28 3.25-46.52 4.56-6.75.58-16.9.53-21.85.92 0 0-1.93-1.48-2.59-1.96-9.63-7.07-21.77-10.22-40.9-11.52-20.7-1.4-47.1 9.6-55.1 13.5-8 3.9-11 3.1-24.2 1.7-13.2-1.4-31.1-4.7-52.1-5.5-20.51-.79-33.62 4.8-54.99 22.69-9.7-.11-23.11 4.14-33.01 4.65-31.7 1.63-29.89-53.17-43.81-51.69-6.08 3.4-7.15 22.8-5.37 39.98 1.67 16.18 3.32 29.52 20.29 45.93 15.98 15.45 26.08 9.33 42.82 25.63-1.22.53-2.19 4.44-9.59 7.74-16.07 4.81-43.87 3.32-49.54 3.77-6.4.6-5.4 6.9-4.5 9.9.8 3 1 6.9 2.3 15.7 1.2 8.8 9.4 22.6 28.4 36.3 19 13.6 27.3 15.7 63.6 13.2 3.26 7.78.6 27.24-3.21 45.99l-.03.14v.02l-.05.2c-1.55 7.63-3.3 15.12-4.91 21.65 0 0-2.01 7.2-2.83 10.24-3.26 12.05-15.79 18.7-19.79 22.41-4 3.7-5.32 10.4-6.06 19.54-.74 9.13 6.39 14.9 11.1 21.2 4.71 6.3 7.7 12.44 8.44 18.07.81 6.1-4.54 10.81-6.1 15.58-1.56 4.78 11.81 19.51 11.81 19.51 3.11 3.34 6.06 6.4 7.73 8.55 4.8 6.2 4.4 6 18 2.5 3.1 7 4.1 9.3 8.7 16.1 4.5 6.8 10.8 10.3 27.3 10.8 4.5 20.7 0 46.3-5.4 69.9-5.4 23.5-7.83 51.08 25.67 99.88 15.75 22.94 37.58 41.72 56.44 55.16-6.67-.62-13.28-1.41-19.84-2.38-1.2-.43-2.63-.89-4.31-1.37-28.89-8.28-81.36-78.38-84.15-110.38-2.01-23.17 29.78-62.44 21.19-97.7 0 0-8.43-6.04-16.78-10.11-13.44-6.56-14.33-18.7-14.33-18.7s-2.67 1.92-9.33 2.81c-6.41.86-13.77-3.76-22.82-17.48-.37-.56-.74-1.14-1.12-1.73-6.15-9.44-12.91-18.9-12.66-23.31.67-11.78 9.66-18.45 7.26-24-2.4-5.56-16.89-24.81-14.22-33.26 2.67-8.44 2.94-20.22 14.78-26.39 9.74-5.07 10.13-11.39 13.96-21.68-5.11.72-3.61-.43-11.54 3.34-6.3-7-10.6-15.3-21.8-22.3-11.2-7-13.1-11-40.1-12.9-27-2-50.5 4.7-66.5 18.4-11.8 10.1-20.7 17-30.4 32.6 0 0-16.1-10.9-40.9-8.6-24.8 2.3-48 17.5-53.8 23.2-5.8 5.7-.5 11.5 1.3 15.6 1.8 4.2 17.2 32.4 41.7 35.8 24.5 3.4 34.3-2.6 34.3-2.6 1.6 13.2 4.9 24.9 4.6 33.5-.6 15.7-10.8 38-19.1 51.7-8.2 13.7-7.4 39.9 8.6 55.2 16 15.3 15.2 11 47.3 14.1 32.1 3.1 35.6.4 44.6-2.3 9-2.8 16.2-7.1 38.9 8.7 9.3 6.5 16.2 23.4 23.7 64 .72 3.9 1.46 7.53 2.22 10.9a365.878 365.878 0 01-22.82-17.9c-16.3-13.7-31.2-28.9-44.8-45.3-4.8 1.3-10.3 2.1-18.8 2.1-3.5 0-7.6-.2-12.2-.5 23.9 31.7 52.5 59.7 84.7 82.9 63.9 46 142.4 73 227.1 73 30.1 0 59.4-3.4 87.6-9.9.3-.1.6-.2.9-.2 4-1 8.1-2 12.1-3.1 120.2-32 217.6-120.1 262.4-234.5-8.5 1.4-18.8 2.6-28.6 2.8-16.25 37.47-38.62 71.66-65.83 101.34 12.45-26.9-2.1-62.29-4.83-77.38-4.17-23.05-1.12-38.87 6.66-48.16 19.94-17.24 39.58-6.28 54.23-.29 14.9 6.1 36.89 3.18 46.59.48 9.6-2.8 19.9-15.14 24-21.44 4.2-6.3 14 0 23.89-23.23 2.28-5.35 2.17-16.38 1.89-28.33-.32-13.87 6.33-23.44-9.89-37v.01zm-187.47-104.45l-.04.06c.49-.06.98-.08 1.47-.04a17.441 17.441 0 00-3.58 8.4c-1.36 9.61 5.32 18.49 14.94 19.85 5.2.74 10.22-.89 13.92-4.09-8.21-8.18-10.25-12.43-9.58-17.17.09-.63.31-1.23.63-1.78.56.33 1.12.65 1.66.95 5.46 3.19 9.02 5.93 12.45 10.37.14.17.29.37.43.56.09.08.16.18.23.28.19.27.39.56.6.85.13.19.27.38.4.58.27.39.54.8.81 1.21.15.24.31.47.46.72 1.95 3.05 3.98 6.78 6.45 11.55-4.94-1.48-6.74-1.58-13.52-1.22-3.82 1.69-12.88 2.79-17.93 2.07-11.52-1.63-21.29-15.1-20.07-24.44.1-.75.54-1.72 1.24-2.73-2.3-.75-5.43-2.44-5.83-6.09 7.85.97 14.86.11 14.86.11zm-473.53 173.99c7.28 0 13.19-5.9 13.19-13.18 0-4.38-2.14-8.26-5.43-10.65 8.68 1.92 9.79 9.69 9.43 12.49-.4 3.1-2.9 10.5-9.4 12.5-6.5 1.9-15.5-2.7-19.4.4-3.9 3.2-8.2 2.8-8.2 2.8s.13-4.85 2.28-10.93c1.01-2.87 2.47-6.01 4.58-9.04.14-.21.29-.42.44-.63 0 0 4.19-6.36 12.84-7.75.62 2.02 1.1 4.25 1.23 6.23.31 4.77-6.84 10.42-12.23 12.31 2.39 3.3 6.28 5.45 10.67 5.45zm11.41-54.54c-9.19.59-49.04 8.61-51.41 28.6-2.37 19.99-2.81 31.8-9.33 46.02-6.52 14.22 6.52 34.71 17.78 34.71 11.26 0 38.22 2.03 44.14 13.31 3.41 6.5 15.19 10.02 26.08 9.25-12.12 9.66-25.33 14.87-41.68 17.71-19.6 3.4-20.6 7.8-38.1 15.9-17.5 8.1-28.9 6.1-45 5.7-16-.4-20.2-6-27-20-6.8-14.1-1.6-25.3 8.9-49.4 10.6-24.2 11-38.6 9.9-48.8-1.1-10.2-3-23.8-4-41.6s8.1-24 23.5-45.4 49.8-35.8 79.8-28.7c28.07 6.55 32.15 23.95 36.66 33.62-12.12 19.84-20.93 28.48-30.24 29.08zm259.29-134.93c-2.4 2.88-10.95 7.84-20.63 4.92-18.53 5.33-24.71 1.09-25.11-.85.58-.23 7.58-4.61 9.64-7.97.71-1.17 1.34-2.25 1.94-3.42.19-.36.37-.73.55-1.11.76-1.59 1.51-3.44 2.36-5.92 1.3-3.81 7.09-11.26 15.13-15.03.24 1.15.45 2.4.64 3.75 2.04 14.53-12.69 17.49-12.8 24.22a18.63 18.63 0 007.13 3.6c10.02 2.59 20.25-3.44 22.84-13.46 2.08-8.04-1.4-16.21-8.03-20.46 11.8-.68 24.1 1.65 30.89 6.08-3.68 2.26-18.02 2.17-20.17 4.91 2.19 11.52-.39 15.96-4.38 20.74zm-186.4-14.63c0-3.59 1.45-6.85 3.79-9.22-6.1-1.1-8.53 2.11-8.53 2.11.61-5.39 9.39-8.44 13.83-5.94.23.13.46.25.69.36.48.25.97.48 1.48.69 4.08 1.76 8.61 2.55 8.61 2.55s-.56 1.95-4.61 2.4c-3.14.34-4.62-.48-7.97-1.39a10.209 10.209 0 00-1.67 5.63c0 4.87 3.38 8.95 7.92 10.02-1.3 2.08-2.59 4.01-3.68 5.51-5.67-1.45-9.86-6.59-9.86-12.72zm104.59 248.86s-13 0-25.2-1-28.7 0-28.7 0l-3.1-14.1s2.3-1.6 21.9-3.9c19.6-2.3 43.6 6 43.6 6l-8.5 13zm54.5-79.3c-1.7 19.6-13.9 42.3-14.9 47.9-1 5.6-6.2 7.2-12.2 6.6-6-.6-47.3-12-58.1-15.5-10.8-3.5-11.6-3.7-19.6-.9-8.1 2.9-33.5 9.7-35.8 11.2-2.3 1.5-7 3.7-9.3 1.7-2.3-2.1-7.4-5.8-11-9.7-3.5-3.9 8.5-20.3 12.1-27.7 3.6-7.4-11-17.2-17-22.6-5.9-5.4-7.9-9.6-5.1-16.8 2.8-7.2 14.9-8.3 70-9.9-16-13.7-42.6-8.2-47.8-12-2.48-1.81-.87-12.89 1.71-25.02 1-1.09 2.17-2.72 3.56-5.02 12.69-21 19.3-70.85 25.41-92.32 6.11-21.47-10.26-35.42-21.52-38.98-9.16-2.89-23.76-9.84-28.29-23.69 4.02-13.91 11.17-30.53 16.53-38.17 6.8-9.7 24-19.2 36.8-23.4 12.8-4.1 58.3 8.1 70.9 7.2 12.6-.8 12.8-4.5 35.6-11.2 22.7-6.6 23.1-8.9 49 .6-.6 2.3-1 3.3.4 19.2.32 3.44 1.03 6.94 1.99 10.4-6.95 3.04-18.8 9.19-23.46 17.33-6.76 11.84-32.98 8.46-44.83 15.23-11.84 6.76-30.41 9.64-47.08 56.79-16.68 47.15.44 100.23 13.13 108.97 12.69 8.75 40.75 8.47 58.07 31.31 16.51 21.76 22.58 41.21 48.03 29.83-15.05 11.9-32.42 24.71-35.65 25.14-4.5.6-4.4 2.7-11.6-16.5zm72.53 127.6c-9.15 12.43-21.25 64.18-21.4 109.27-16.24-58.8-17.23-140.03 20.89-174.18 56.08-50.24 25.5-155.6 24.47-159.1 35.77 101.94 30.27 150.39-23.96 224.01zm56.62 169.7c-9.68-.22 18.73-50.52 29.24-64.41 19.3-25.4 67.11-40.58 75.41-77.48 2.83-12.56 8.27-26.99 14.98-40.46-.4 12.83-.1 27.56 2.2 39.42 5.19 26.67-3.11 51.85-30.37 82.5-25.37 28.53-36.87 35.65-38.25 36.45-.04.02-.09.05-.13.08h-.01a360.856 360.856 0 01-50.86 23.12c-.73.27-1.47.54-2.21.79v-.01z"/><path d="M444.861 0c-91.17 0-175.03 31.3-241.42 83.73 8.17 3.56 12.56 12.49 15.9 21.18 61.96-49.12 140.32-78.44 225.52-78.44 54.48 0 106.16 11.99 152.55 33.48 7.54-9.88 14.22-11.45 19.22-11.45 1.87 0 3.72.28 5.5.84 10.4 3.27 15.42 13.32 15.55 32.45a365.16 365.16 0 0187.58 76.92c.31.01.61.03.91.05 18.52 1.25 36.32 10.44 45.01 18.45.44.41.87.82 1.29 1.23C703.031 71.06 582.251 0 444.861 0z"/></g><path d="M923.33 108h37.7v13h-23.4v78h-14.3v-91zm68.41 0c7.107 0 12.44 1.907 15.99 5.72 3.55 3.813 5.33 9.403 5.33 16.77v11.83c0 7.367-1.78 12.957-5.33 16.77-3.55 3.813-8.883 5.72-15.99 5.72h-6.76V199h-14.3v-91h21.06zm-6.76 43.81h6.76c2.34 0 4.074-.65 5.2-1.95 1.214-1.3 1.82-3.51 1.82-6.63v-13.65c0-3.12-.606-5.33-1.82-6.63-1.126-1.3-2.86-1.95-5.2-1.95h-6.76v30.81zm66.42 24.05c-1.12 5.46-2.6 9.88-4.42 13.26-1.73 3.293-4.24 5.807-7.54 7.54-3.2 1.733-7.54 2.6-13 2.6-1.64 0-2.94-.043-3.9-.13v-12.74c.61.087 1.48.13 2.6.13 3.04 0 5.33-.563 6.89-1.69 1.56-1.127 2.6-3.077 3.12-5.85l.13-.78-19.76-70.2h14.17l7.8 31.07 4.42 21.32 3.38-21.19 6.5-31.2h14.95l-15.34 67.86zm21.35 23.14v-91h45.11v91h-14.56v-78h-16.25v78h-14.3zm55.48 0v-91h45.11v91h-14.56v-78h-16.25v78h-14.3zm87.33 0l-2.47-16.51h-17.55l-2.47 16.51h-13.13l14.56-91h20.93l14.56 91h-14.43zm-4.42-28.86l-6.89-46.02-6.89 46.02h13.78zm59.99.91V199h-14.3v-91h14.3v39.65l18.72-39.65h14.3l-19.89 40.56 19.89 50.44h-14.69l-13.91-36.27-4.42 8.32zm38.36-41.21c0-7.28 1.86-12.913 5.59-16.9 3.73-3.987 9.1-5.98 16.12-5.98 7.02 0 12.39 1.993 16.12 5.98 3.73 3.987 5.59 9.62 5.59 16.9v47.32c0 7.28-1.86 12.913-5.59 16.9-3.73 3.987-9.1 5.98-16.12 5.98-7.02 0-12.39-1.993-16.12-5.98-3.73-3.987-5.59-9.62-5.59-16.9v-47.32zm14.3 48.23c0 5.98 2.47 8.97 7.41 8.97 4.94 0 7.41-2.99 7.41-8.97v-49.14c0-5.98-2.47-8.97-7.41-8.97-4.94 0-7.41 2.99-7.41 8.97v49.14zm78.45-70.07h19.89v91h-13.52v-65.26l-9.88 65.26h-13.52l-10.66-64.35V199h-12.48v-91h19.89l10.53 64.61 9.75-64.61zm30.3 91v-91h45.11v91h-14.56v-78h-16.25v78h-14.3zm87.32 0l-2.47-16.51h-17.55l-2.47 16.51h-13.13l14.56-91h20.93l14.56 91h-14.43zm-4.42-28.86l-6.89-46.02-6.89 46.02h13.78zm25.51 28.86v-91h14.3v39h16.25v-39h14.56v91h-14.56v-39h-16.25v39h-14.3zm55.48 0v-91h12.74v57.59l5.2-20.02 11.7-37.57h15.73v91h-12.87v-64.09l-5.85 22.36-11.96 41.73h-14.69zM1690 87.72h-8.71c-.17 2.253-.78 3.813-1.82 4.68-1.04.867-2.6 1.3-4.68 1.3-1.99 0-3.47-.39-4.42-1.17-.95-.867-1.52-2.47-1.69-4.81h-8.84c.17 4.593 1.47 8.147 3.9 10.66 2.51 2.513 6.2 3.77 11.05 3.77 4.94 0 8.71-1.257 11.31-3.77 2.6-2.6 3.9-6.153 3.9-10.66zm-5.59 47.19l-5.85 22.36L1666.6 199h-14.69v-91h12.74v57.59l5.2-20.02 11.7-37.57h15.73v91h-12.87v-64.09z" fill="#fff"/><defs><clipPath id="clip0_2765_804"><path fill="#fff" d="M0 0h866.02v779.7H0z"/></clipPath></defs></svg>.549C430.781 273.189 430.961 272.819 431.141 272.439C431.901 270.849 432.651 268.999 433.501 266.519C434.801 262.709 440.591 255.259 448.631 251.489C448.871 252.639 449.081 253.889 449.271 255.239C451.311 269.769 436.581 272.729 436.471 279.459C438.491 281.109 440.901 282.359 443.601 283.059C453.621 285.649 463.851 279.619 466.441 269.599C468.521 261.559 465.041 253.389 458.411 249.139C470.211 248.459 482.511 250.789 489.301 255.219C485.621 257.479 471.281 257.389 469.131 260.129C471.321 271.649 468.741 276.089 464.751 280.869ZM278.351 266.239C278.351 262.649 279.801 259.389 282.141 257.019C276.041 255.919 273.611 259.129 273.611 259.129C274.221 253.739 283.001 250.689 287.441 253.189C287.671 253.319 287.901 253.439 288.131 253.549C288.611 253.799 289.101 254.029 289.611 254.239C293.691 255.999 298.221 256.789 298.221 256.789C298.221 256.789 297.661 258.739 293.611 259.189C290.471 259.529 288.991 258.709 285.641 257.799C284.581 259.409 283.971 261.349 283.971 263.429C283.971 268.299 287.351 272.379 291.891 273.449C290.591 275.529 289.301 277.459 288.211 278.959C282.541 277.509 278.351 272.369 278.351 266.239ZM382.941 515.099C382.941 515.099 369.941 515.099 357.741 514.099C345.541 513.099 329.041 514.099 329.041 514.099L325.941 499.999C325.941 499.999 328.241 498.399 347.841 496.099C367.441 493.799 391.441 502.099 391.441 502.099L382.941 515.099ZM437.441 435.799C435.741 455.399 423.541 478.099 422.541 483.699C421.541 489.299 416.341 490.899 410.341 490.299C404.341 489.699 363.041 478.299 352.241 474.799C341.441 471.299 340.641 471.099 332.641 473.899C324.541 476.799 299.141 483.599 296.841 485.099C294.541 486.599 289.841 488.799 287.541 486.799C285.241 484.699 280.141 480.999 276.541 477.099C273.041 473.199 285.041 456.799 288.641 449.399C292.241 441.999 277.641 432.199 271.641 426.799C265.741 421.399 263.741 417.199 266.541 409.999C269.341 402.799 281.441 401.699 336.541 400.099C320.541 386.399 293.941 391.899 288.741 388.099C286.261 386.289 287.871 375.209 290.451 363.079C291.451 361.989 292.621 360.359 294.011 358.059C306.701 337.059 313.311 287.209 319.421 265.739C325.531 244.269 309.161 230.319 297.901 226.759C288.741 223.869 274.141 216.919 269.611 203.069C273.631 189.159 280.781 172.539 286.141 164.899C292.941 155.199 310.141 145.699 322.941 141.499C335.741 137.399 381.241 149.599 393.841 148.699C406.441 147.899 406.641 144.199 429.441 137.499C452.141 130.899 452.541 128.599 478.441 138.099C477.841 140.399 477.441 141.399 478.841 157.299C479.161 160.739 479.871 164.239 480.831 167.699C473.881 170.739 462.031 176.889 457.371 185.029C450.611 196.869 424.391 193.489 412.541 200.259C400.701 207.019 382.131 209.899 365.461 257.049C348.781 304.199 365.901 357.279 378.591 366.019C391.281 374.769 419.341 374.489 436.661 397.329C453.171 419.089 459.241 438.539 484.691 427.159C469.641 439.059 452.271 451.869 449.041 452.299C444.541 452.899 444.641 454.999 437.441 435.799ZM509.971 563.399C500.821 575.829 488.721 627.579 488.571 672.669C472.331 613.869 471.341 532.639 509.461 498.489C565.541 448.249 534.961 342.889 533.931 339.389C569.701 441.329 564.201 489.779 509.971 563.399ZM566.591 733.099C556.911 732.879 585.321 682.579 595.831 668.689C615.131 643.289 662.941 628.109 671.241 591.209C674.071 578.649 679.511 564.219 686.221 550.749C685.821 563.579 686.121 578.309 688.421 590.169C693.611 616.839 685.311 642.019 658.051 672.669C632.681 701.199 621.181 708.319 619.801 709.119C619.761 709.139 619.711 709.169 619.671 709.199H619.661C603.421 718.159 586.431 725.899 568.801 732.319C568.071 732.589 567.331 732.859 566.591 733.109V733.099Z" fill="white"/>
<path d="M444.861 0C353.691 0 269.831 31.3 203.441 83.73C211.611 87.29 216.001 96.22 219.341 104.91C281.301 55.79 359.661 26.47 444.861 26.47C499.341 26.47 551.021 38.46 597.411 59.95C604.951 50.07 611.631 48.5 616.631 48.5C618.501 48.5 620.351 48.78 622.131 49.34C632.531 52.61 637.551 62.66 637.681 81.79C670.861 102.6 700.431 128.62 725.261 158.71C725.571 158.72 725.871 158.74 726.171 158.76C744.691 160.01 762.491 169.2 771.181 177.21C771.621 177.62 772.051 178.03 772.471 178.44C703.031 71.06 582.251 0 444.861 0Z" fill="white"/>
</g>
<path d="M923.33 108H961.03V121H937.63V199H923.33V108ZM991.74 108C998.847 108 1004.18 109.907 1007.73 113.72C1011.28 117.533 1013.06 123.123 1013.06 130.49V142.32C1013.06 149.687 1011.28 155.277 1007.73 159.09C1004.18 162.903 998.847 164.81 991.74 164.81H984.98V199H970.68V108H991.74ZM984.98 151.81H991.74C994.08 151.81 995.814 151.16 996.94 149.86C998.154 148.56 998.76 146.35 998.76 143.23V129.58C998.76 126.46 998.154 124.25 996.94 122.95C995.814 121.65 994.08 121 991.74 121H984.98V151.81ZM1051.4 175.86C1050.28 181.32 1048.8 185.74 1046.98 189.12C1045.25 192.413 1042.74 194.927 1039.44 196.66C1036.24 198.393 1031.9 199.26 1026.44 199.26C1024.8 199.26 1023.5 199.217 1022.54 199.13V186.39C1023.15 186.477 1024.02 186.52 1025.14 186.52C1028.18 186.52 1030.47 185.957 1032.03 184.83C1033.59 183.703 1034.63 181.753 1035.15 178.98L1035.28 178.2L1015.52 108H1029.69L1037.49 139.07L1041.91 160.39L1045.29 139.2L1051.79 108H1066.74L1051.4 175.86ZM1072.75 199V108H1117.86V199H1103.3V121H1087.05V199H1072.75ZM1128.23 199V108H1173.34V199H1158.78V121H1142.53V199H1128.23ZM1215.56 199L1213.09 182.49H1195.54L1193.07 199H1179.94L1194.5 108H1215.43L1229.99 199H1215.56ZM1211.14 170.14L1204.25 124.12L1197.36 170.14H1211.14ZM1271.13 171.05V199H1256.83V108H1271.13V147.65L1289.85 108H1304.15L1284.26 148.56L1304.15 199H1289.46L1275.55 162.73L1271.13 171.05ZM1309.49 129.84C1309.49 122.56 1311.35 116.927 1315.08 112.94C1318.81 108.953 1324.18 106.96 1331.2 106.96C1338.22 106.96 1343.59 108.953 1347.32 112.94C1351.05 116.927 1352.91 122.56 1352.91 129.84V177.16C1352.91 184.44 1351.05 190.073 1347.32 194.06C1343.59 198.047 1338.22 200.04 1331.2 200.04C1324.18 200.04 1318.81 198.047 1315.08 194.06C1311.35 190.073 1309.49 184.44 1309.49 177.16V129.84ZM1323.79 178.07C1323.79 184.05 1326.26 187.04 1331.2 187.04C1336.14 187.04 1338.61 184.05 1338.61 178.07V128.93C1338.61 122.95 1336.14 119.96 1331.2 119.96C1326.26 119.96 1323.79 122.95 1323.79 128.93V178.07ZM1402.24 108H1422.13V199H1408.61V133.74L1398.73 199H1385.21L1374.55 134.65V199H1362.07V108H1381.96L1392.49 172.61L1402.24 108ZM1432.54 199V108H1477.65V199H1463.09V121H1446.84V199H1432.54ZM1519.86 199L1517.39 182.49H1499.84L1497.37 199H1484.24L1498.8 108H1519.73L1534.29 199H1519.86ZM1515.44 170.14L1508.55 124.12L1501.66 170.14H1515.44ZM1540.95 199V108H1555.25V147H1571.5V108H1586.06V199H1571.5V160H1555.25V199H1540.95ZM1596.43 199V108H1609.17V165.59L1614.37 145.57L1626.07 108H1641.8V199H1628.93V134.91L1623.08 157.27L1611.12 199H1596.43ZM1690 87.72H1681.29C1681.12 89.9733 1680.51 91.5333 1679.47 92.4C1678.43 93.2667 1676.87 93.7 1674.79 93.7C1672.8 93.7 1671.32 93.31 1670.37 92.53C1669.42 91.6633 1668.85 90.06 1668.68 87.72H1659.84C1660.01 92.3133 1661.31 95.8667 1663.74 98.38C1666.25 100.893 1669.94 102.15 1674.79 102.15C1679.73 102.15 1683.5 100.893 1686.1 98.38C1688.7 95.78 1690 92.2267 1690 87.72ZM1684.41 134.91L1678.56 157.27L1666.6 199H1651.91V108H1664.65V165.59L1669.85 145.57L1681.55 108H1697.28V199H1684.41V134.91Z" fill="white"/>
<defs>
<clipPath id="clip0_2765_804">
<rect width="866.02" height="779.7" fill="white"/>
</clipPath>
</defs>
</svg>
