<svg width="165" height="45" viewBox="0 0 165 45" fill="none" xmlns="http://www.w3.org/2000/svg"><path d="M159.952 33.21v6.213h.159l3.061-6.214H165v7.38h-1.247v-5.992h-.16l-2.974 5.992h-1.915v-7.38h1.248zm.536-2.805c0 .295.102.561.305.782.203.236.566.34 1.059.34s.842-.104 1.045-.34c.203-.221.319-.487.319-.782l1.102.148c0 .605-.232 1.092-.682 1.446-.449.354-1.044.532-1.784.532-.754 0-1.349-.178-1.799-.532-.449-.354-.667-.841-.667-1.446l1.102-.148zm-8.484 2.805v6.213h.16l3.061-6.214h1.827v7.38h-1.247v-5.992h-.16l-2.974 5.992h-1.915v-7.38h1.248zm-7.806 0v3.055h3.656v-3.056h1.247v7.38h-1.247v-3.232h-3.656v3.232h-1.248v-7.38h1.248zm-7.094 7.586c-.319 0-.624-.03-.914-.118a1.816 1.816 0 01-.754-.37 1.555 1.555 0 01-.508-.634c-.13-.25-.188-.56-.188-.915 0-.266.058-.56.174-.886.116-.31.377-.605.754-.87.377-.266.914-.487 1.61-.664.697-.178 1.611-.266 2.757-.266v-.266c0-.207-.044-.428-.116-.635a1.632 1.632 0 00-.334-.546 1.563 1.563 0 00-.624-.383 2.832 2.832 0 00-.914-.148c-.682 0-1.189.162-1.523.487-.334.325-.493.738-.493 1.24h-1.248c0-.472.087-.9.276-1.255a2.46 2.46 0 01.725-.87c.29-.237.638-.399 1.03-.517a4.002 4.002 0 011.19-.177c.594 0 1.102.074 1.523.221.406.148.754.354 1.015.62.261.266.45.59.566.945.116.369.174.767.174 1.21v1.934c0 .369 0 .678.015.944.014.266.043.502.072.709.029.206.058.398.102.546.029.162.072.31.116.457h-1.277a2.303 2.303 0 01-.174-.693c-.029-.266-.058-.502-.058-.709h-.159c-.233.458-.595.842-1.088 1.151-.494.31-1.074.458-1.727.458zm.174-1.063c.377 0 .726-.059 1.074-.192.333-.133.624-.31.87-.531a2.48 2.48 0 00.595-.708c.145-.266.218-.532.218-.797v-.517c-.813.03-1.466.089-1.988.177-.522.103-.928.236-1.233.384-.305.147-.522.325-.638.531a1.256 1.256 0 00-.174.62c0 .354.116.62.362.782.232.178.537.251.914.251zm-3.84-6.523v7.38h-1.248v-6.288h-3.887v6.287h-1.248v-7.38h6.383zm-14.398 0l2.133 6.36h.145l2.147-6.36h1.929v7.38h-1.175v-6.052h-.145l-2.06 6.051h-1.596l-2.045-6.051h-.145v6.051h-1.161v-7.38h1.973zm-10.865 3.675c0-.605.087-1.152.29-1.639a3.3 3.3 0 01.798-1.21c.333-.325.74-.59 1.204-.767a4.318 4.318 0 011.538-.266 4.22 4.22 0 011.523.266c.464.177.87.442 1.218.767.334.325.595.738.798 1.21.189.487.29 1.033.29 1.639 0 .65-.101 1.21-.29 1.697-.203.487-.464.9-.798 1.225a3.434 3.434 0 01-1.218.738c-.464.177-.972.251-1.523.251-.552 0-1.074-.074-1.538-.251a3.25 3.25 0 01-1.204-.738c-.348-.325-.61-.738-.798-1.225-.203-.487-.29-1.048-.29-1.697zm6.412.03c0-.488-.073-.916-.218-1.27a2.625 2.625 0 00-.566-.871 2.25 2.25 0 00-.812-.517 3.077 3.077 0 00-1.973 0c-.319.119-.595.28-.827.517a2.64 2.64 0 00-.566.87c-.145.355-.203.783-.203 1.27 0 .502.058.915.203 1.27.145.354.334.634.566.855.232.237.508.4.827.502a2.7 2.7 0 00.987.163c.348 0 .667-.044.986-.163.305-.103.58-.265.812-.502.233-.22.421-.501.566-.855.145-.355.218-.768.218-1.27zm-9.436 1.357c-.174-.31-.362-.531-.536-.664a1.379 1.379 0 00-.74-.192h-1.045v3.173h-1.247v-7.38h1.247v3.115h1.045c.304 0 .566-.06.783-.177.203-.118.392-.34.537-.694l.943-2.244h1.349l-.972 2.2a5.727 5.727 0 01-.319.62 1.739 1.739 0 01-.305.383.89.89 0 01-.319.222 1.02 1.02 0 01-.377.103v.207c.305.059.551.191.74.413.188.221.392.517.624.9l1.334 2.332h-1.494l-1.248-2.317zM92.11 40.796c-.32 0-.624-.03-.914-.118a1.817 1.817 0 01-.754-.37 1.558 1.558 0 01-.508-.634c-.13-.25-.189-.56-.189-.915 0-.266.058-.56.174-.886.116-.31.377-.605.755-.87.377-.266.913-.487 1.61-.664.696-.178 1.61-.266 2.756-.266v-.266c0-.207-.043-.428-.116-.635a1.623 1.623 0 00-.334-.546 1.56 1.56 0 00-.623-.383 2.831 2.831 0 00-.914-.148c-.682 0-1.19.162-1.523.487-.334.325-.494.738-.494 1.24H89.79c0-.472.087-.9.275-1.255.174-.354.421-.634.726-.87.29-.237.638-.399 1.03-.517a4.005 4.005 0 011.19-.177c.594 0 1.102.074 1.522.221.407.148.755.354 1.016.62s.45.59.566.945c.116.369.174.767.174 1.21v1.934c0 .369 0 .678.014.944.015.266.044.502.073.709.029.206.058.398.101.546.03.162.073.31.116.457h-1.276a2.306 2.306 0 01-.174-.693c-.03-.266-.058-.502-.058-.709h-.16c-.232.458-.595.842-1.088 1.151-.493.31-1.073.458-1.726.458zm.174-1.063c.377 0 .725-.059 1.073-.192a2.89 2.89 0 00.87-.531c.247-.207.45-.443.596-.708a1.65 1.65 0 00.217-.797v-.517c-.812.03-1.465.089-1.987.177-.522.103-.929.236-1.233.384-.305.147-.523.325-.639.531a1.256 1.256 0 00-.174.62c0 .354.116.62.363.782.232.178.537.251.914.251zm-3.84-6.523v7.38h-1.248v-6.288h-3.888v6.287h-1.247v-7.38h6.383zm-8.033 0v7.38h-1.248v-6.288h-3.888v6.287h-1.247v-7.38h6.383zm-11.972 7.38l-2.742-7.38h1.32l2.249 6.287h.203l2.22-6.288h1.32l-3.743 10.037h-1.248l1.045-2.657h-.624zm-9.402-7.38l.073 1.328h.174c.319-.561.71-.96 1.19-1.196.464-.221.986-.34 1.537-.34.479 0 .928.09 1.35.267.405.177.768.428 1.073.752.29.34.522.753.696 1.225.174.473.261 1.019.261 1.639 0 .65-.087 1.21-.261 1.697-.174.487-.42.9-.725 1.225a3.1 3.1 0 01-1.103.738c-.42.177-.885.251-1.378.251a3.4 3.4 0 01-1.45-.325c-.48-.221-.871-.59-1.19-1.121h-.174l.058 1.092v2.804H57.92V33.21h1.117zm5.107 3.704c0-.502-.073-.93-.189-1.299a2.457 2.457 0 00-.508-.9 2.092 2.092 0 00-.769-.517 2.987 2.987 0 00-.972-.162c-.348 0-.667.059-.972.148-.319.103-.58.265-.812.487-.232.236-.42.531-.551.885-.145.37-.203.827-.203 1.358 0 .532.058.989.203 1.343.13.355.319.65.551.871.232.236.493.399.812.487.305.103.624.148.972.148s.668-.044.972-.163a1.89 1.89 0 00.77-.501 2.42 2.42 0 00.507-.886c.116-.354.189-.797.189-1.299zM56.81 33.21v1.092h-3.96v6.287h-1.248v-7.38h5.208zm63-19.188c0-1.27-.174-2.42-.522-3.454-.348-1.033-.842-1.919-1.48-2.657a7.076 7.076 0 00-2.466-1.682c-.986-.384-2.118-.59-3.395-.59-1.276 0-2.408.206-3.394.59-.987.413-1.828.974-2.466 1.682-.668.738-1.161 1.624-1.509 2.657-.348 1.033-.493 2.184-.493 3.454 0 1.063.145 2.066.435 3.07.29 1.004.725 1.919 1.363 2.686a6.907 6.907 0 002.438 1.919c.986.472 2.205.708 3.626.708 1.393 0 2.612-.236 3.598-.708a6.895 6.895 0 002.437-1.919c.639-.767 1.103-1.682 1.393-2.686.29-1.004.435-2.007.435-3.07zm-18.337 0c0-1.447.232-2.834.697-4.133.464-1.299 1.131-2.45 2.031-3.424.87-.974 1.973-1.742 3.278-2.332 1.306-.561 2.786-.856 4.468-.856 1.654 0 3.134.295 4.439.856 1.306.59 2.409 1.358 3.308 2.332.87.974 1.567 2.125 2.031 3.424.464 1.299.696 2.686.696 4.133 0 1.476-.232 2.834-.667 4.132-.464 1.3-1.131 2.45-2.002 3.425-.87.974-1.973 1.741-3.278 2.332-1.306.59-2.815.856-4.527.856-1.741 0-3.249-.266-4.555-.856-1.305-.59-2.408-1.358-3.278-2.332a9.743 9.743 0 01-1.973-3.425c-.465-1.298-.668-2.656-.668-4.132zM86.65 3.69v17.74h.318L95.18 3.69h3.772v20.664H96.34V6.789h-.29l-8.211 17.565h-3.801V3.69h2.611zm-12.847 0c1.16 0 2.205.177 3.134.472.928.295 1.712.738 2.35 1.329a6.136 6.136 0 011.509 2.125c.348.856.55 1.83.55 2.893a7.259 7.259 0 01-.521 2.775c-.349.856-.813 1.594-1.451 2.214-.638.65-1.422 1.151-2.35 1.505-.929.355-2.002.532-3.163.532h-4.439v6.819h-2.611V3.69h6.992zm-4.38 2.361v9.122h4.641c1.364 0 2.496-.384 3.366-1.21.87-.827 1.306-1.978 1.306-3.454 0-1.476-.436-2.568-1.248-3.336-.841-.738-2.031-1.122-3.54-1.122h-4.526zm-20.824 0V3.69H64.44v2.36h-6.615v18.303h-2.611V6.052h-6.615zM28.02 22.509c.812 0 1.476-.676 1.476-1.5v-1.501c0-.826-.664-1.5-1.475-1.5s-1.475.674-1.475 1.5v1.5c0 .825.664 1.5 1.475 1.5zM7.242 6.754c1.726 0 3.2 1.17 3.658 2.776a7.555 7.555 0 00-1.254 1.725H7.507a3.787 3.787 0 01-2.701-1.138 3.92 3.92 0 01-1.12-2.748v-.3c0-.18.134-.315.31-.315h3.245zm11.93 23.256c0 .398-.155.78-.432 1.06a1.46 1.46 0 01-2.086 0 1.514 1.514 0 01-.431-1.06c0-.398.155-.78.431-1.061.277-.281.652-.44 1.043-.44.391 0 .767.159 1.043.44.277.281.432.663.432 1.06zm7.374 1.5c.391 0 .766-.158 1.043-.44a1.514 1.514 0 000-2.122 1.462 1.462 0 00-1.043-.439c-.391 0-.766.159-1.043.44a1.514 1.514 0 00-.432 1.06c0 .399.155.78.432 1.062.277.281.652.44 1.043.44z" fill="#111"/><path d="M17.917.147l-.015.008a6.634 6.634 0 00-1.342.72c-1.86 1.253-3.038 3.073-3.25 5.205a7.394 7.394 0 00-2.606-2.261 7.257 7.257 0 00-3.33-.817H2.212c-.587 0-1.15.238-1.564.66A2.27 2.27 0 000 5.253v2.25a7.57 7.57 0 002.16 5.306 7.366 7.366 0 002.392 1.626 7.263 7.263 0 002.822.571v12.12a9.724 9.724 0 00-1.475 4.996 9.847 9.847 0 002.637 6.848 9.514 9.514 0 006.588 3.027 9.765 9.765 0 003.2 2.221 9.625 9.625 0 007.595 0 9.765 9.765 0 003.2-2.221 9.514 9.514 0 006.588-3.027 9.847 9.847 0 002.637-6.848 9.724 9.724 0 00-1.475-5.003V15.006a7.31 7.31 0 005.215-2.197 7.57 7.57 0 002.16-5.305v-2.25a2.27 2.27 0 00-.649-1.592 2.193 2.193 0 00-1.564-.66H36.87a7.27 7.27 0 00-4.742 1.771c-.486-1.56-1.514-2.918-2.97-3.898a6.745 6.745 0 00-1.341-.72L27.8.147c-1.736-.683-3.298 1.142-2.57 2.783l.005.012.006.012c.47 1.006.565 2.016.215 3.05H20.53a13.63 13.63 0 01-.114-.67 8.7 8.7 0 01-.098-1.445c.014-.47.085-.772.16-.935l.006-.012.005-.012c.728-1.641-.835-3.466-2.571-2.783zm-2.432 8.857h8.111l2.036 2.071a8.163 8.163 0 002.652 1.8 8.051 8.051 0 003.129.63h2.458l.018.166c.02.195.03.39.03.585v11.995a9.61 9.61 0 00-5.19-1.49h-8.082v-2.072c0-3.872-2.006-7.788-5.162-9.934-1.575-1.072-5.162-.75-5.162-.75h-2.95a4.387 4.387 0 01-3.128-1.318A4.542 4.542 0 012.95 7.504v-1.5h4.424a4.37 4.37 0 012.42.73 4.482 4.482 0 011.633 1.96l.597 1.383 1.355-.618c.664-.3 1.38-.456 2.106-.455zm0 30.01a6.54 6.54 0 01-2.563-.524A6.632 6.632 0 0110.757 37a6.764 6.764 0 01-1.432-2.224 6.856 6.856 0 01-.476-2.615 6.741 6.741 0 011.204-3.763l.104-.149c1.365-1.242 3.303-2.025 5.477-1.988H28.73c2.127-.006 4.019.768 5.358 1.985l.102.147a6.744 6.744 0 011.205 3.768 6.855 6.855 0 01-.477 2.615A6.763 6.763 0 0133.486 37a6.632 6.632 0 01-2.165 1.49 6.538 6.538 0 01-2.563.523H15.485zm2.401 1.5h8.46a6.754 6.754 0 01-7.109.84 6.91 6.91 0 01-1.35-.84zM36.87 12.005h-1.935a7.556 7.556 0 00-.336-.75h2.139c1.013 0 1.984-.41 2.7-1.138a3.92 3.92 0 001.12-2.748v-.3a.305.305 0 00-.31-.315h-3.245c-1.725 0-3.2 1.17-3.657 2.776a.282.282 0 01.035.043 7.418 7.418 0 00-.686-.614l.115-.27c.347-.8.916-1.481 1.637-1.958a4.37 4.37 0 012.423-.728h4.425v1.5a4.542 4.542 0 01-1.296 3.184 4.387 4.387 0 01-3.129 1.318zm-22.121 9.003v-1.5c0-.826.663-1.5 1.475-1.5.81 0 1.474.674 1.474 1.5v1.5c0 .825-.663 1.5-1.474 1.5-.812 0-1.475-.675-1.475-1.5z" fill="#111"/></svg>05.883 19.7781C106.522 20.5751 107.334 21.2245 108.321 21.6968C109.307 22.1692 110.526 22.4053 111.947 22.4053C113.34 22.4053 114.559 22.1692 115.545 21.6968C116.532 21.2245 117.344 20.5751 117.982 19.7781C118.621 19.0106 119.085 18.0955 119.375 17.0918C119.665 16.0881 119.81 15.0845 119.81 14.0218ZM101.473 14.0218C101.473 12.5753 101.705 11.1879 102.17 9.88903C102.634 8.59017 103.301 7.43891 104.201 6.46477C105.071 5.49063 106.174 4.72312 107.479 4.13273C108.785 3.57186 110.265 3.27666 111.947 3.27666C113.601 3.27666 115.081 3.57186 116.386 4.13273C117.692 4.72312 118.795 5.49063 119.694 6.46477C120.564 7.43891 121.261 8.59017 121.725 9.88903C122.189 11.1879 122.421 12.5753 122.421 14.0218C122.421 15.4977 122.189 16.8556 121.754 18.1545C121.29 19.4534 120.623 20.6046 119.752 21.5788C118.882 22.5529 117.779 23.3204 116.474 23.9108C115.168 24.5012 113.659 24.7669 111.947 24.7669C110.206 24.7669 108.698 24.5012 107.392 23.9108C106.087 23.3204 104.984 22.5529 104.114 21.5788C103.243 20.6046 102.576 19.4534 102.141 18.1545C101.676 16.8556 101.473 15.4977 101.473 14.0218Z" fill="#111111"/>
<path d="M86.6492 3.68994V21.4312H86.9683L95.1793 3.68994H98.9511V24.3536H96.3398V6.78949H96.0497L87.8387 24.3536H84.0379V3.68994H86.6492Z" fill="#111111"/>
<path d="M73.8032 3.68994C74.9638 3.68994 76.0083 3.86705 76.9367 4.16225C77.8652 4.45744 78.6485 4.90024 79.2868 5.49063C79.9252 6.08102 80.4474 6.78949 80.7956 7.61603C81.1437 8.4721 81.3468 9.44624 81.3468 10.5089C81.3468 11.5126 81.1728 12.4277 80.8246 13.2838C80.4764 14.1398 80.0122 14.8778 79.3739 15.4977C78.7356 16.1472 77.9522 16.649 77.0238 17.0032C76.0953 17.3575 75.0218 17.5346 73.8612 17.5346H69.4221V24.3536H66.8108V3.68994H73.8032ZM69.4221 6.0515V15.173H74.0643C75.428 15.173 76.5595 14.7893 77.43 13.9627C78.3004 13.1362 78.7356 11.9849 78.7356 10.5089C78.7356 9.03297 78.3004 7.94074 77.488 7.17324C76.6466 6.43525 75.457 6.0515 73.9483 6.0515H69.4221Z" fill="#111111"/>
<path d="M48.5986 6.0515V3.68994H64.4403V6.0515H57.8251V24.3536H55.2138V6.0515H48.5986Z" fill="#111111"/>
<path d="M28.0207 22.5086C28.8318 22.5086 29.4955 21.8333 29.4955 21.0081V19.5076C29.4955 18.6824 28.8318 18.0072 28.0207 18.0072C27.2096 18.0072 26.5459 18.6824 26.5459 19.5076V21.0081C26.5459 21.8333 27.2096 22.5086 28.0207 22.5086ZM7.24114 6.75365C8.96662 6.75365 10.4414 7.92401 10.8986 9.52951C10.3972 10.0397 9.98422 10.6249 9.64502 11.255H7.5066C6.49356 11.255 5.52201 10.8456 4.80569 10.1168C4.08936 9.388 3.68693 8.39953 3.68693 7.36884V7.06875C3.68693 6.88869 3.81966 6.75365 3.99664 6.75365H7.24114ZM19.1721 30.0109C19.1721 30.4088 19.0167 30.7905 18.7401 31.0719C18.4635 31.3533 18.0884 31.5114 17.6973 31.5114C17.3062 31.5114 16.931 31.3533 16.6545 31.0719C16.3779 30.7905 16.2225 30.4088 16.2225 30.0109C16.2225 29.6129 16.3779 29.2313 16.6545 28.9499C16.931 28.6685 17.3062 28.5104 17.6973 28.5104C18.0884 28.5104 18.4635 28.6685 18.7401 28.9499C19.0167 29.2313 19.1721 29.6129 19.1721 30.0109ZM26.5459 31.5114C26.9371 31.5114 27.3122 31.3533 27.5888 31.0719C27.8653 30.7905 28.0207 30.4088 28.0207 30.0109C28.0207 29.6129 27.8653 29.2313 27.5888 28.9499C27.3122 28.6685 26.9371 28.5104 26.5459 28.5104C26.1548 28.5104 25.7797 28.6685 25.5031 28.9499C25.2265 29.2313 25.0712 29.6129 25.0712 30.0109C25.0712 30.4088 25.2265 30.7905 25.5031 31.0719C25.7797 31.3533 26.1548 31.5114 26.5459 31.5114Z" fill="#111111"/>
<path d="M17.917 0.147088L17.9023 0.15459C17.4613 0.333146 17.0086 0.559716 16.5602 0.874814C14.6991 2.1277 13.5222 3.94777 13.3098 6.07994C12.628 5.12812 11.7352 4.35338 10.7037 3.81865C9.67232 3.28392 8.53147 3.00429 7.37387 3.00248H2.21216C1.62546 3.00248 1.06279 3.2396 0.647927 3.66169C0.233066 4.08378 0 4.65626 0 5.25318V7.50388C0 9.49362 0.776887 11.4019 2.15976 12.8088C2.84448 13.5055 3.65737 14.0581 4.55201 14.4351C5.44665 14.8122 6.40552 15.0062 7.37387 15.0062V27.1255C6.43851 28.6206 5.92808 30.35 5.8991 32.1221C5.86615 34.6672 6.81248 37.1246 8.53604 38.9696C10.2596 40.8146 12.6238 41.9009 15.1238 41.9966C16.0341 42.9472 17.1223 43.7026 18.3241 44.2184C19.526 44.7343 20.8172 45 22.1216 45C23.426 45 24.7172 44.7343 25.9191 44.2184C27.1209 43.7026 28.2091 42.9472 29.1194 41.9966C31.6194 41.9009 33.9836 40.8146 35.7072 38.9696C37.4307 37.1246 38.3771 34.6672 38.3441 32.1221C38.3162 30.3479 37.8057 28.6164 36.8693 27.1195V15.0062C38.825 15.0062 40.7006 14.2158 42.0835 12.8088C43.4663 11.4019 44.2432 9.49362 44.2432 7.50388V5.25318C44.2432 4.65626 44.0101 4.08378 43.5953 3.66169C43.1804 3.2396 42.6178 3.00248 42.0311 3.00248H36.8693C35.1323 3.00346 33.4519 3.63078 32.1265 4.77303C31.6413 3.21254 30.6134 1.85462 29.1563 0.874814C28.7373 0.584535 28.2876 0.342952 27.8157 0.15459L27.801 0.147088C26.0652 -0.535625 24.5034 1.28894 25.2319 2.93045L25.2363 2.94246L25.2422 2.95446C25.7112 3.95978 25.8071 4.96959 25.4575 6.00341H20.5289C20.4855 5.78135 20.4476 5.55821 20.4153 5.3342C20.3423 4.85626 20.3092 4.37288 20.3165 3.88925C20.3312 3.41961 20.402 3.11651 20.4772 2.95446L20.4831 2.94246L20.4876 2.93045C21.2161 1.28894 19.6528 -0.535625 17.917 0.147088ZM15.4851 9.00435H23.5964L25.6316 11.075C26.391 11.8466 27.2925 12.4585 28.2844 12.8756C29.2764 13.2926 30.3394 13.5068 31.4127 13.5058H33.8711L33.8888 13.6708C33.9095 13.8659 33.9198 14.0609 33.9198 14.256V26.2507C32.3619 25.2664 30.5624 24.75 28.7286 24.7608H20.6468V22.6886C20.6468 18.8174 18.6411 14.9012 15.4851 12.7555C13.9101 11.6827 10.3234 12.0053 10.3234 12.0053H7.37387C6.20047 12.0053 5.07512 11.531 4.2454 10.6869C3.41568 9.84268 2.94955 8.69773 2.94955 7.50388V6.00341H7.37387C8.2332 6.00297 9.07407 6.25715 9.79376 6.73491C10.5134 7.21267 11.0808 7.89333 11.4265 8.69375L12.0238 10.0772L13.3791 9.45899C14.0428 9.1589 14.7595 9.00285 15.4851 9.00435ZM15.4851 39.0137C14.6052 39.0138 13.7341 38.8359 12.9224 38.4903C12.1107 38.1447 11.3747 37.6383 10.7571 37.0006C10.1396 36.363 9.65281 35.6067 9.32517 34.7759C8.99753 33.945 8.83554 33.0562 8.84864 32.1611C8.86632 30.8115 9.2865 29.4991 10.0535 28.3979L10.1568 28.2493C11.5224 27.007 13.4603 26.2237 15.6341 26.2612H28.7301C30.8567 26.2552 32.7488 27.0295 34.0879 28.2463L34.1897 28.3934C34.9566 29.4962 35.3783 30.8091 35.3946 32.1611C35.4077 33.0562 35.2457 33.945 34.918 34.7759C34.5904 35.6067 34.1036 36.363 33.4861 37.0006C32.8685 37.6383 32.1325 38.1447 31.3208 38.4903C30.5091 38.8359 29.638 39.0138 28.7581 39.0137H15.4851ZM17.8861 40.5142H26.3454C25.3514 41.3065 24.1617 41.8042 22.9074 41.9525C21.6531 42.1007 20.383 41.8938 19.2369 41.3544C18.7566 41.1278 18.3033 40.8458 17.8861 40.5142ZM36.8693 12.0053H34.9344C34.836 11.7491 34.7237 11.4987 34.5982 11.255H36.7366C37.7496 11.255 38.7212 10.8456 39.4375 10.1168C40.1539 9.388 40.5563 8.39952 40.5563 7.36884V7.06874C40.5563 6.88869 40.4235 6.75365 40.2466 6.75365H37.0021C35.2766 6.75365 33.8018 7.92401 33.3446 9.52951C33.3584 9.54352 33.3702 9.55802 33.38 9.57302C33.1641 9.35424 32.9351 9.14928 32.6943 8.95933L32.8093 8.68925C33.1562 7.8885 33.725 7.20799 34.4461 6.73097C35.1671 6.25396 36.0092 6.00113 36.8693 6.00341H41.2937V7.50388C41.2937 8.69773 40.8275 9.84268 39.9978 10.6869C39.1681 11.531 38.0427 12.0053 36.8693 12.0053ZM14.7477 21.0081V19.5076C14.7477 18.6824 15.4114 18.0072 16.2225 18.0072C17.0336 18.0072 17.6973 18.6824 17.6973 19.5076V21.0081C17.6973 21.8333 17.0336 22.5086 16.2225 22.5086C15.4114 22.5086 14.7477 21.8333 14.7477 21.0081Z" fill="#111111"/>
</svg>
