<svg width="2221" height="780" viewBox="0 0 2221 780" fill="none" xmlns="http://www.w3.org/2000/svg"><path d="M1032 631V297.5h56V631h-56zM928 329.5v-51h264v51H928zM1225.68 631V278.5h141.5c24.67 0 45.83 4 63.5 12 17.67 7.667 31.17 18.833 40.5 33.5 9.67 14.333 14.5 31.667 14.5 52 0 20-4.83 37.333-14.5 52-9.33 14.667-22.83 26-40.5 34-17.67 7.667-38.83 11.5-63.5 11.5h-99.5V427h95.5c21.33 0 37.67-4.167 49-12.5 11.67-8.667 17.5-21.5 17.5-38.5 0-17.333-5.83-30-17.5-38-11.33-8.333-27.67-12.5-49-12.5h-100l18.5-19.5v325h-56zm295.18 0V278.5h54.5v319l134.5-319h93.5V631h-54.5V312.5L1614.36 631h-93.5zm502.62 8.5c-35.67 0-66.84-7.667-93.5-23-26.67-15.333-47.5-36.833-62.5-64.5-14.67-27.667-22-60-22-97s7.33-69.333 22-97c15-28 35.83-49.667 62.5-65 26.66-15.333 57.83-23 93.5-23 35.66 0 66.66 7.667 93 23 26.66 15.333 47.33 37 62 65 15 27.667 22.5 60 22.5 97s-7.5 69.333-22.5 97c-14.67 27.667-35.34 49.167-62 64.5-26.34 15.333-57.34 23-93 23zm0-51c23.66 0 44.33-5.5 62-16.5 17.66-11.333 31.5-27 41.5-47s15-43.333 15-70-5-50-15-70c-10-20.333-23.84-36-41.5-47-17.67-11.333-38.34-17-62-17-23.67 0-44.5 5.667-62.5 17-17.67 11-31.5 26.667-41.5 47-9.67 20-14.5 43.333-14.5 70s4.83 50 14.5 70c10 20 23.83 35.667 41.5 47 18 11 38.83 16.5 62.5 16.5zM928.112 206v-95.88h55.76v13.872h-40.528V206h-15.232zm64.882 0v-95.88h38.486c6.71 0 12.47 1.088 17.27 3.264 4.81 2.085 8.48 5.123 11.02 9.112 2.63 3.899 3.94 8.613 3.94 14.144 0 5.44-1.31 10.155-3.94 14.144-2.54 3.989-6.21 7.072-11.02 9.248-4.8 2.085-10.56 3.128-17.27 3.128h-27.06v-12.648h25.97c5.81 0 10.25-1.133 13.33-3.4 3.17-2.357 4.76-5.848 4.76-10.472 0-4.715-1.59-8.16-4.76-10.336-3.08-2.267-7.52-3.4-13.33-3.4h-27.2l5.04-5.304V206h-15.236zm95.806 0l16.32-36.584.96-1.496 24.2-57.8h15.92L1105.26 206h-16.46zm6.26-33.32l-30.6-62.56h16.86l27.07 56.984h1.9v5.576h-15.23zM1211.23 206v-95.88h15.23V206h-15.23zm-57.53 0v-95.88h15.23V206h-15.23zm8.16-82.144V110.12h57.12v13.736h-57.12zM1299.49 206v-95.88h15.23V206h-15.23zm-57.53 0v-95.88h15.23V206h-15.23zm8.16-82.144V110.12h57.12v13.736h-57.12zM1322.46 206l30.47-95.88h25.97l30.47 95.88h-16.05l-27.34-89.352L1338.51 206h-16.05zm21.22-34.68v-12.784h44.47v12.784h-44.47zM1502.66 206l-30.19-53.72 29.78-42.16h17.14l-32.91 46.648.4-8.84L1520.07 206h-17.41zm-58.75 0v-95.88h15.23V206h-15.23zm9.79-45.968v-13.6h31.14v13.6h-31.14zm113.37 48.28c-9.7 0-18.17-2.085-25.43-6.256-7.25-4.171-12.92-10.019-17-17.544-3.99-7.525-5.98-16.32-5.98-26.384s1.99-18.859 5.98-26.384c4.08-7.616 9.75-13.509 17-17.68 7.26-4.171 15.73-6.256 25.43-6.256 9.71 0 18.14 2.085 25.3 6.256 7.25 4.171 12.87 10.064 16.86 17.68 4.08 7.525 6.12 16.32 6.12 26.384s-2.04 18.859-6.12 26.384c-3.99 7.525-9.61 13.373-16.86 17.544-7.16 4.171-15.59 6.256-25.3 6.256zm0-13.872c6.44 0 12.06-1.496 16.87-4.488 4.8-3.083 8.57-7.344 11.29-12.784 2.72-5.44 4.08-11.787 4.08-19.04 0-7.253-1.36-13.6-4.08-19.04-2.72-5.531-6.49-9.792-11.29-12.784-4.81-3.083-10.43-4.624-16.87-4.624-6.43 0-12.1 1.541-17 4.624-4.8 2.992-8.56 7.253-11.28 12.784-2.63 5.44-3.95 11.787-3.95 19.04 0 7.253 1.32 13.6 3.95 19.04 2.72 5.44 6.48 9.701 11.28 12.784 4.9 2.992 10.57 4.488 17 4.488zm59.86 11.56v-95.88h27.6l21.36 88.808 21.21-88.808h27.47V206h-14.55v-89.216L1687.17 206h-22.84l-22.72-89.216V206h-14.68zm170.62 0v-95.88h15.23V206h-15.23zm-57.53 0v-95.88h15.23V206h-15.23zm8.16-82.144V110.12h57.12v13.736h-57.12zM1820.53 206l30.46-95.88h25.98l30.46 95.88h-16.05l-27.33-89.352L1836.57 206h-16.04zm21.21-34.68v-12.784h44.47v12.784h-44.47zM1975.18 206v-95.88h15.23V206h-15.23zm-59.97 0v-95.88h15.23V206h-15.23zm10.2-45.832v-13.6h54.8v13.6h-54.8zM2005.85 206v-95.88h14.83v86.768l36.58-86.768h25.43V206h-14.82v-86.632L2031.29 206h-25.44zm92.24 0v-95.88h14.83v86.768l36.58-86.768h25.43V206h-14.82v-86.632L2123.53 206h-25.44zm38.36-103.904c-4.81 0-8.75-.635-11.84-1.904-2.99-1.36-5.21-3.219-6.66-5.576-1.45-2.448-2.22-5.35-2.31-8.704h11.69c.1 2.539.82 4.533 2.18 5.984 1.45 1.36 3.76 2.04 6.94 2.04 3.26 0 5.57-.68 6.93-2.04 1.45-1.45 2.18-3.445 2.18-5.984h11.69c-.09 5.077-1.81 9.067-5.16 11.968-3.27 2.811-8.48 4.216-15.64 4.216z" fill="#fff"/><g clip-path="url(#clip0_2765_804)" fill="#fff"><path d="M383.641 408.3c-3.2-2.9-8.5-1.2-9.4-.8 5.8 10.6 3.6 17.8-1.5 22-5.1 4.3-15.8 9-8.3 14.9 0 0 10.9-1.6 19.4-3.9 8.5-2.2 13.2-8.3 10.9-15.2-2.3-6.9-7.9-14.1-11.1-17zm399.871 10.29c-5.45 2.51-6.43 9.26-4.37 15.39 2.06 6.13 11.05 10.46 15.26 10.59 4.25.22 8.05 6.48 10.51 5.36 5.1-2.33 4.47-7.61 0-15.21-4.48-7.6-12.75-4.24-16.86-8.22-4.12-3.98.93-10.42-4.52-7.91h-.02zM129.04 544.4c-8.1 3.4-9.4 9.2-7 19 0 0 6-3.4 12-5.5s4.2-9.2 6.6-15.9c-5 1.9-3.5-1-11.6 2.4zm146.761-185.021c.26-.9.5-1.8.7-2.69l1.41-6.16c-.63 2.67-1.35 5.72-2.11 8.85zm3.921-16.719l-.37 1.6c.15-.62.27-1.16.37-1.6zm-216.42 19.619c6.68 0 12.72.75 18.01 1.88 5.85-84.21 40.4-160.51 93.92-219.2-.26-2.13-.48-4.23-.69-6.29-1.05-10.11-1.14-20.17-.25-28.31.08-.78.18-1.58.3-2.41-68.15 65.13-112.72 154.74-119.58 254.71h.04c2.74-.25 5.52-.38 8.25-.38z"/><path d="M855.051 400.799c-12.08-10.1-27.97-23.43-33.74-36.41-2.5-5.63-12.93-23.15-15.11-37.03-1.22-7.71 4.44-8.78 4.41-21 5.62-.37 9.66-3.15 12.44-10.89-9.56 1.33-13.15-1.89-11.44-11.45 10.59 2.3 39.77-13.17 46.66-47.02 1.56-7.64-34.44-27.2-59.55-18.76-8.46 2.85-15.06 12.77-21.26 8.37-3.51-2.43-.42-23.59-16.45-38.37-7.07-6.52-21.68-13.56-35.85-14.51-10.48-.71-20.99 4.1-26.66 3.63-5.84-.49-19.44-8.98-33.89-7.45-18.23 1.93-38.55 13.06-54.41 1-3.35 1.06-8.37 4.37-14.22 9.26 11.7.27 33.23 11.55 50.96 11.93-2.39-6.32 15.96-9.73 30.22-7.41 13.16 2.14 24.37 9.79 29.48 10.07 3.97.22 9.07-5.99 25.6-5.18 17.59.89 41.54 46.22 21.26 27.11 7.63 12.81 21.98 27.82 24.25 30.22 7.1 7.6 19.69 18.76 21.62 29.18 2.24 12.14-5.99 20.97-5.84 38.15-3.63-6.44-4.55-13.06-6.07-22.22-1.8 1.8-1.85 21.71 2.44 34.59 2.08 6.23 10.34 30.36 24.6 49.93 17.43 23.95 41.79 37.37 39.22 43.48-4.47 10.64-18.45 23.45-6.67 31.78 8.89-22 7.18-8.27 7 1.11-.15 7.92-5.22 24.11-15.89 21.45-6.21-1.56-18.07-2.04-26.66-1.2-8.78.86-22.96 6.86-35.12 9.08-20.99 3.84-31.46-14.01-37.11-18.82-2.55-2.18-7.18-7.58-16.33-7.84 12.78 11.44 9.93 16.52 12.22 21.78-28.37-7.63-43.24-9.42-61.17-16.98-14.6-6.15-27.05-10.32-37.05-17.69-5.3-3.91-42.89-22.22-27.78-97.56 2.6 19.48 8 51.13 27.59 63.29 16 9.93 46.86-1.29 63.19-13.18 14.66-10.68 43.44-6.77 51.44-17.66 7.32-9.96 9.63-20.15 3.12-30.22-8.68-13.42-21.56-22.23-19.56-42.23.56-5.63 2.07-13.56-4.44-30.37-6.31-16.26-34.81-26.02-44.89-22.46-7.92 2.79-24.76-5.52-41.44-15.3-6.67 16.16-19.99 47.15-42.03 53.33-4.76 1.33-11.4 5.12-15.17 6.14-7.48 2.02-16.39 43.74-3.31 89.82-10.99-35.69-16.07-40.01-23.12-93.19 7.8-4.5 18.2-6.6 38.9-12.4 20.7-5.8 34.3-45.5 38-53.5 3.7-8.1 7.2-17.1-.2-18.6-7.2-1.46-16.52-16.36-64.57-21.59-5-.54-6.72-7.31-6.06-7.71 39.44-23.8 51.3-52.12 54.11-72.54 2.07-15.11 4-40.89-3.08-43.11-6.15-1.93-14.7 14.82-19.41 26.9-9.14 23.41-23.57 26.68-28.33 29.25-11.75 6.34-31.28 3.25-46.52 4.56-6.75.58-16.9.53-21.85.92 0 0-1.93-1.48-2.59-1.96-9.63-7.07-21.77-10.22-40.9-11.52-20.7-1.4-47.1 9.6-55.1 13.5-8 3.9-11 3.1-24.2 1.7-13.2-1.4-31.1-4.7-52.1-5.5-20.51-.79-33.62 4.8-54.99 22.69-9.7-.11-23.11 4.14-33.01 4.65-31.7 1.63-29.89-53.17-43.81-51.69-6.08 3.4-7.15 22.8-5.37 39.98 1.67 16.18 3.32 29.52 20.29 45.93 15.98 15.45 26.08 9.33 42.82 25.63-1.22.53-2.19 4.44-9.59 7.74-16.07 4.81-43.87 3.32-49.54 3.77-6.4.6-5.4 6.9-4.5 9.9.8 3 1 6.9 2.3 15.7 1.2 8.8 9.4 22.6 28.4 36.3 19 13.6 27.3 15.7 63.6 13.2 3.26 7.78.6 27.24-3.21 45.99l-.03.14v.02l-.05.2c-1.55 7.63-3.3 15.12-4.91 21.65 0 0-2.01 7.2-2.83 10.24-3.26 12.05-15.79 18.7-19.79 22.41-4 3.7-5.32 10.4-6.06 19.54-.74 9.13 6.39 14.9 11.1 21.2 4.71 6.3 7.7 12.44 8.44 18.07.81 6.1-4.54 10.81-6.1 15.58-1.56 4.78 11.81 19.51 11.81 19.51 3.11 3.34 6.06 6.4 7.73 8.55 4.8 6.2 4.4 6 18 2.5 3.1 7 4.1 9.3 8.7 16.1 4.5 6.8 10.8 10.3 27.3 10.8 4.5 20.7 0 46.3-5.4 69.9-5.4 23.5-7.83 51.08 25.67 99.88 15.75 22.94 37.58 41.72 56.44 55.16-6.67-.62-13.28-1.41-19.84-2.38-1.2-.43-2.63-.89-4.31-1.37-28.89-8.28-81.36-78.38-84.15-110.38-2.01-23.17 29.78-62.44 21.19-97.7 0 0-8.43-6.04-16.78-10.11-13.44-6.56-14.33-18.7-14.33-18.7s-2.67 1.92-9.33 2.81c-6.41.86-13.77-3.76-22.82-17.48-.37-.56-.74-1.14-1.12-1.73-6.15-9.44-12.91-18.9-12.66-23.31.67-11.78 9.66-18.45 7.26-24-2.4-5.56-16.89-24.81-14.22-33.26 2.67-8.44 2.94-20.22 14.78-26.39 9.74-5.07 10.13-11.39 13.96-21.68-5.11.72-3.61-.43-11.54 3.34-6.3-7-10.6-15.3-21.8-22.3-11.2-7-13.1-11-40.1-12.9-27-2-50.5 4.7-66.5 18.4-11.8 10.1-20.7 17-30.4 32.6 0 0-16.1-10.9-40.9-8.6-24.8 2.3-48 17.5-53.8 23.2-5.8 5.7-.5 11.5 1.3 15.6 1.8 4.2 17.2 32.4 41.7 35.8 24.5 3.4 34.3-2.6 34.3-2.6 1.6 13.2 4.9 24.9 4.6 33.5-.6 15.7-10.8 38-19.1 51.7-8.2 13.7-7.4 39.9 8.6 55.2 16 15.3 15.2 11 47.3 14.1 32.1 3.1 35.6.4 44.6-2.3 9-2.8 16.2-7.1 38.9 8.7 9.3 6.5 16.2 23.4 23.7 64 .72 3.9 1.46 7.53 2.22 10.9a365.878 365.878 0 01-22.82-17.9c-16.3-13.7-31.2-28.9-44.8-45.3-4.8 1.3-10.3 2.1-18.8 2.1-3.5 0-7.6-.2-12.2-.5 23.9 31.7 52.5 59.7 84.7 82.9 63.9 46 142.4 73 227.1 73 30.1 0 59.4-3.4 87.6-9.9.3-.1.6-.2.9-.2 4-1 8.1-2 12.1-3.1 120.2-32 217.6-120.1 262.4-234.5-8.5 1.4-18.8 2.6-28.6 2.8-16.25 37.47-38.62 71.66-65.83 101.34 12.45-26.9-2.1-62.29-4.83-77.38-4.17-23.05-1.12-38.87 6.66-48.16 19.94-17.24 39.58-6.28 54.23-.29 14.9 6.1 36.89 3.18 46.59.48 9.6-2.8 19.9-15.14 24-21.44 4.2-6.3 14 0 23.89-23.23 2.28-5.35 2.17-16.38 1.89-28.33-.32-13.87 6.33-23.44-9.89-37v.01zm-187.47-104.45l-.04.06c.49-.06.98-.08 1.47-.04a17.441 17.441 0 00-3.58 8.4c-1.36 9.61 5.32 18.49 14.94 19.85 5.2.74 10.22-.89 13.92-4.09-8.21-8.18-10.25-12.43-9.58-17.17.09-.63.31-1.23.63-1.78.56.33 1.12.65 1.66.95 5.46 3.19 9.02 5.93 12.45 10.37.14.17.29.37.43.56.09.08.16.18.23.28.19.27.39.56.6.85.13.19.27.38.4.58.27.39.54.8.81 1.21.15.24.31.47.46.72 1.95 3.05 3.98 6.78 6.45 11.55-4.94-1.48-6.74-1.58-13.52-1.22-3.82 1.69-12.88 2.79-17.93 2.07-11.52-1.63-21.29-15.1-20.07-24.44.1-.75.54-1.72 1.24-2.73-2.3-.75-5.43-2.44-5.83-6.09 7.85.97 14.86.11 14.86.11zm-473.53 173.99c7.28 0 13.19-5.9 13.19-13.18 0-4.38-2.14-8.26-5.43-10.65 8.68 1.92 9.79 9.69 9.43 12.49-.4 3.1-2.9 10.5-9.4 12.5-6.5 1.9-15.5-2.7-19.4.4-3.9 3.2-8.2 2.8-8.2 2.8s.13-4.85 2.28-10.93c1.01-2.87 2.47-6.01 4.58-9.04.14-.21.29-.42.44-.63 0 0 4.19-6.36 12.84-7.75.62 2.02 1.1 4.25 1.23 6.23.31 4.77-6.84 10.42-12.23 12.31 2.39 3.3 6.28 5.45 10.67 5.45zm11.41-54.54c-9.19.59-49.04 8.61-51.41 28.6-2.37 19.99-2.81 31.8-9.33 46.02-6.52 14.22 6.52 34.71 17.78 34.71 11.26 0 38.22 2.03 44.14 13.31 3.41 6.5 15.19 10.02 26.08 9.25-12.12 9.66-25.33 14.87-41.68 17.71-19.6 3.4-20.6 7.8-38.1 15.9-17.5 8.1-28.9 6.1-45 5.7-16-.4-20.2-6-27-20-6.8-14.1-1.6-25.3 8.9-49.4 10.6-24.2 11-38.6 9.9-48.8-1.1-10.2-3-23.8-4-41.6s8.1-24 23.5-45.4 49.8-35.8 79.8-28.7c28.07 6.55 32.15 23.95 36.66 33.62-12.12 19.84-20.93 28.48-30.24 29.08zm259.29-134.93c-2.4 2.88-10.95 7.84-20.63 4.92-18.53 5.33-24.71 1.09-25.11-.85.58-.23 7.58-4.61 9.64-7.97.71-1.17 1.34-2.25 1.94-3.42.19-.36.37-.73.55-1.11.76-1.59 1.51-3.44 2.36-5.92 1.3-3.81 7.09-11.26 15.13-15.03.24 1.15.45 2.4.64 3.75 2.04 14.53-12.69 17.49-12.8 24.22a18.63 18.63 0 007.13 3.6c10.02 2.59 20.25-3.44 22.84-13.46 2.08-8.04-1.4-16.21-8.03-20.46 11.8-.68 24.1 1.65 30.89 6.08-3.68 2.26-18.02 2.17-20.17 4.91 2.19 11.52-.39 15.96-4.38 20.74zm-186.4-14.63c0-3.59 1.45-6.85 3.79-9.22-6.1-1.1-8.53 2.11-8.53 2.11.61-5.39 9.39-8.44 13.83-5.94.23.13.46.25.69.36.48.25.97.48 1.48.69 4.08 1.76 8.61 2.55 8.61 2.55s-.56 1.95-4.61 2.4c-3.14.34-4.62-.48-7.97-1.39a10.209 10.209 0 00-1.67 5.63c0 4.87 3.38 8.95 7.92 10.02-1.3 2.08-2.59 4.01-3.68 5.51-5.67-1.45-9.86-6.59-9.86-12.72zm104.59 248.86s-13 0-25.2-1-28.7 0-28.7 0l-3.1-14.1s2.3-1.6 21.9-3.9c19.6-2.3 43.6 6 43.6 6l-8.5 13zm54.5-79.3c-1.7 19.6-13.9 42.3-14.9 47.9-1 5.6-6.2 7.2-12.2 6.6-6-.6-47.3-12-58.1-15.5-10.8-3.5-11.6-3.7-19.6-.9-8.1 2.9-33.5 9.7-35.8 11.2-2.3 1.5-7 3.7-9.3 1.7-2.3-2.1-7.4-5.8-11-9.7-3.5-3.9 8.5-20.3 12.1-27.7 3.6-7.4-11-17.2-17-22.6-5.9-5.4-7.9-9.6-5.1-16.8 2.8-7.2 14.9-8.3 70-9.9-16-13.7-42.6-8.2-47.8-12-2.48-1.81-.87-12.89 1.71-25.02 1-1.09 2.17-2.72 3.56-5.02 12.69-21 19.3-70.85 25.41-92.32 6.11-21.47-10.26-35.42-21.52-38.98-9.16-2.89-23.76-9.84-28.29-23.69 4.02-13.91 11.17-30.53 16.53-38.17 6.8-9.7 24-19.2 36.8-23.4 12.8-4.1 58.3 8.1 70.9 7.2 12.6-.8 12.8-4.5 35.6-11.2 22.7-6.6 23.1-8.9 49 .6-.6 2.3-1 3.3.4 19.2.32 3.44 1.03 6.94 1.99 10.4-6.95 3.04-18.8 9.19-23.46 17.33-6.76 11.84-32.98 8.46-44.83 15.23-11.84 6.76-30.41 9.64-47.08 56.79-16.68 47.15.44 100.23 13.13 108.97 12.69 8.75 40.75 8.47 58.07 31.31 16.51 21.76 22.58 41.21 48.03 29.83-15.05 11.9-32.42 24.71-35.65 25.14-4.5.6-4.4 2.7-11.6-16.5zm72.53 127.6c-9.15 12.43-21.25 64.18-21.4 109.27-16.24-58.8-17.23-140.03 20.89-174.18 56.08-50.24 25.5-155.6 24.47-159.1 35.77 101.94 30.27 150.39-23.96 224.01zm56.62 169.7c-9.68-.22 18.73-50.52 29.24-64.41 19.3-25.4 67.11-40.58 75.41-77.48 2.83-12.56 8.27-26.99 14.98-40.46-.4 12.83-.1 27.56 2.2 39.42 5.19 26.67-3.11 51.85-30.37 82.5-25.37 28.53-36.87 35.65-38.25 36.45-.04.02-.09.05-.13.08h-.01a360.856 360.856 0 01-50.86 23.12c-.73.27-1.47.54-2.21.79v-.01z"/><path d="M444.861 0c-91.17 0-175.03 31.3-241.42 83.73 8.17 3.56 12.56 12.49 15.9 21.18 61.96-49.12 140.32-78.44 225.52-78.44 54.48 0 106.16 11.99 152.55 33.48 7.54-9.88 14.22-11.45 19.22-11.45 1.87 0 3.72.28 5.5.84 10.4 3.27 15.42 13.32 15.55 32.45a365.16 365.16 0 0187.58 76.92c.31.01.61.03.91.05 18.52 1.25 36.32 10.44 45.01 18.45.44.41.87.82 1.29 1.23C703.031 71.06 582.251 0 444.861 0z"/></g><defs><clipPath id="clip0_2765_804"><path fill="#fff" d="M0 0h866.02v779.7H0z"/></clipPath></defs></svg>769.799C531.841 769.699 532.141 769.599 532.441 769.599C536.441 768.599 540.541 767.599 544.541 766.499C664.741 734.499 762.141 646.399 806.941 531.999C798.441 533.399 788.141 534.599 778.341 534.799C762.091 572.269 739.721 606.459 712.511 636.139C724.961 609.239 710.411 573.849 707.681 558.759C703.511 535.709 706.561 519.889 714.341 510.599C734.281 493.359 753.921 504.319 768.571 510.309C783.471 516.409 805.461 513.489 815.161 510.789C824.761 507.989 835.061 495.649 839.161 489.349C843.361 483.049 853.161 489.349 863.051 466.119C865.331 460.769 865.221 449.739 864.941 437.789C864.621 423.919 871.271 414.349 855.051 400.789V400.799ZM667.581 296.349L667.541 296.409C668.031 296.349 668.521 296.329 669.011 296.369C667.161 298.709 665.881 301.579 665.431 304.769C664.071 314.379 670.751 323.259 680.371 324.619C685.571 325.359 690.591 323.729 694.291 320.529C686.081 312.349 684.041 308.099 684.711 303.359C684.801 302.729 685.021 302.129 685.341 301.579C685.901 301.909 686.461 302.229 687.001 302.529C692.461 305.719 696.021 308.459 699.451 312.899C699.591 313.069 699.741 313.269 699.881 313.459C699.971 313.539 700.041 313.639 700.111 313.739C700.301 314.009 700.501 314.299 700.711 314.589C700.841 314.779 700.981 314.969 701.111 315.169C701.381 315.559 701.651 315.969 701.921 316.379C702.071 316.619 702.231 316.849 702.381 317.099C704.331 320.149 706.361 323.879 708.831 328.649C703.891 327.169 702.091 327.069 695.311 327.429C691.491 329.119 682.431 330.219 677.381 329.499C665.861 327.869 656.091 314.399 657.311 305.059C657.411 304.309 657.851 303.339 658.551 302.329C656.251 301.579 653.121 299.889 652.721 296.239C660.571 297.209 667.581 296.349 667.581 296.349ZM194.051 470.339C201.331 470.339 207.241 464.439 207.241 457.159C207.241 452.779 205.101 448.899 201.811 446.509C210.491 448.429 211.601 456.199 211.241 458.999C210.841 462.099 208.341 469.499 201.841 471.499C195.341 473.399 186.341 468.799 182.441 471.899C178.541 475.099 174.241 474.699 174.241 474.699C174.241 474.699 174.371 469.849 176.521 463.769C177.531 460.899 178.991 457.759 181.101 454.729C181.241 454.519 181.391 454.309 181.541 454.099C181.541 454.099 185.731 447.739 194.381 446.349C195.001 448.369 195.481 450.599 195.611 452.579C195.921 457.349 188.771 462.999 183.381 464.889C185.771 468.189 189.661 470.339 194.051 470.339ZM205.461 415.799C196.271 416.389 156.421 424.409 154.051 444.399C151.681 464.389 151.241 476.199 144.721 490.419C138.201 504.639 151.241 525.129 162.501 525.129C173.761 525.129 200.721 527.159 206.641 538.439C210.051 544.939 221.831 548.459 232.721 547.689C220.601 557.349 207.391 562.559 191.041 565.399C171.441 568.799 170.441 573.199 152.941 581.299C135.441 589.399 124.041 587.399 107.941 586.999C91.9408 586.599 87.7408 580.999 80.9408 566.999C74.1408 552.899 79.3408 541.699 89.8408 517.599C100.441 493.399 100.841 478.999 99.7408 468.799C98.6408 458.599 96.7408 444.999 95.7408 427.199C94.7408 409.399 103.841 403.199 119.241 381.799C134.641 360.399 169.041 345.999 199.041 353.099C227.111 359.649 231.191 377.049 235.701 386.719C223.581 406.559 214.771 415.199 205.461 415.799ZM464.751 280.869C462.351 283.749 453.801 288.709 444.121 285.789C425.591 291.119 419.411 286.879 419.011 284.939C419.591 284.709 426.591 280.329 428.651 276.969C429.361 275.799 429.991 274.719 430.591 273.549C430.781 273.189 430.961 272.819 431.141 272.439C431.901 270.849 432.651 268.999 433.501 266.519C434.801 262.709 440.591 255.259 448.631 251.489C448.871 252.639 449.081 253.889 449.271 255.239C451.311 269.769 436.581 272.729 436.471 279.459C438.491 281.109 440.901 282.359 443.601 283.059C453.621 285.649 463.851 279.619 466.441 269.599C468.521 261.559 465.041 253.389 458.411 249.139C470.211 248.459 482.511 250.789 489.301 255.219C485.621 257.479 471.281 257.389 469.131 260.129C471.321 271.649 468.741 276.089 464.751 280.869ZM278.351 266.239C278.351 262.649 279.801 259.389 282.141 257.019C276.041 255.919 273.611 259.129 273.611 259.129C274.221 253.739 283.001 250.689 287.441 253.189C287.671 253.319 287.901 253.439 288.131 253.549C288.611 253.799 289.101 254.029 289.611 254.239C293.691 255.999 298.221 256.789 298.221 256.789C298.221 256.789 297.661 258.739 293.611 259.189C290.471 259.529 288.991 258.709 285.641 257.799C284.581 259.409 283.971 261.349 283.971 263.429C283.971 268.299 287.351 272.379 291.891 273.449C290.591 275.529 289.301 277.459 288.211 278.959C282.541 277.509 278.351 272.369 278.351 266.239ZM382.941 515.099C382.941 515.099 369.941 515.099 357.741 514.099C345.541 513.099 329.041 514.099 329.041 514.099L325.941 499.999C325.941 499.999 328.241 498.399 347.841 496.099C367.441 493.799 391.441 502.099 391.441 502.099L382.941 515.099ZM437.441 435.799C435.741 455.399 423.541 478.099 422.541 483.699C421.541 489.299 416.341 490.899 410.341 490.299C404.341 489.699 363.041 478.299 352.241 474.799C341.441 471.299 340.641 471.099 332.641 473.899C324.541 476.799 299.141 483.599 296.841 485.099C294.541 486.599 289.841 488.799 287.541 486.799C285.241 484.699 280.141 480.999 276.541 477.099C273.041 473.199 285.041 456.799 288.641 449.399C292.241 441.999 277.641 432.199 271.641 426.799C265.741 421.399 263.741 417.199 266.541 409.999C269.341 402.799 281.441 401.699 336.541 400.099C320.541 386.399 293.941 391.899 288.741 388.099C286.261 386.289 287.871 375.209 290.451 363.079C291.451 361.989 292.621 360.359 294.011 358.059C306.701 337.059 313.311 287.209 319.421 265.739C325.531 244.269 309.161 230.319 297.901 226.759C288.741 223.869 274.141 216.919 269.611 203.069C273.631 189.159 280.781 172.539 286.141 164.899C292.941 155.199 310.141 145.699 322.941 141.499C335.741 137.399 381.241 149.599 393.841 148.699C406.441 147.899 406.641 144.199 429.441 137.499C452.141 130.899 452.541 128.599 478.441 138.099C477.841 140.399 477.441 141.399 478.841 157.299C479.161 160.739 479.871 164.239 480.831 167.699C473.881 170.739 462.031 176.889 457.371 185.029C450.611 196.869 424.391 193.489 412.541 200.259C400.701 207.019 382.131 209.899 365.461 257.049C348.781 304.199 365.901 357.279 378.591 366.019C391.281 374.769 419.341 374.489 436.661 397.329C453.171 419.089 459.241 438.539 484.691 427.159C469.641 439.059 452.271 451.869 449.041 452.299C444.541 452.899 444.641 454.999 437.441 435.799ZM509.971 563.399C500.821 575.829 488.721 627.579 488.571 672.669C472.331 613.869 471.341 532.639 509.461 498.489C565.541 448.249 534.961 342.889 533.931 339.389C569.701 441.329 564.201 489.779 509.971 563.399ZM566.591 733.099C556.911 732.879 585.321 682.579 595.831 668.689C615.131 643.289 662.941 628.109 671.241 591.209C674.071 578.649 679.511 564.219 686.221 550.749C685.821 563.579 686.121 578.309 688.421 590.169C693.611 616.839 685.311 642.019 658.051 672.669C632.681 701.199 621.181 708.319 619.801 709.119C619.761 709.139 619.711 709.169 619.671 709.199H619.661C603.421 718.159 586.431 725.899 568.801 732.319C568.071 732.589 567.331 732.859 566.591 733.109V733.099Z" fill="white"/>
<path d="M444.861 0C353.691 0 269.831 31.3 203.441 83.73C211.611 87.29 216.001 96.22 219.341 104.91C281.301 55.79 359.661 26.47 444.861 26.47C499.341 26.47 551.021 38.46 597.411 59.95C604.951 50.07 611.631 48.5 616.631 48.5C618.501 48.5 620.351 48.78 622.131 49.34C632.531 52.61 637.551 62.66 637.681 81.79C670.861 102.6 700.431 128.62 725.261 158.71C725.571 158.72 725.871 158.74 726.171 158.76C744.691 160.01 762.491 169.2 771.181 177.21C771.621 177.62 772.051 178.03 772.471 178.44C703.031 71.06 582.251 0 444.861 0Z" fill="white"/>
</g>
<defs>
<clipPath id="clip0_2765_804">
<rect width="866.02" height="779.7" fill="white"/>
</clipPath>
</defs>
</svg>
