<svg width="30" height="28" viewBox="0 0 30 28" fill="none" xmlns="http://www.w3.org/2000/svg"><g clip-path="url(#clip0_651_2799)"><path fill-rule="evenodd" clip-rule="evenodd" d="M30.018 28.667H0V0h30.018v28.667z" fill="#EA4C3A"/><path d="M15.372 4.377c.452.213.358.489.22 1.793-.143 1.345-.619 3.802-1.536 6.219-.918 2.413-2.28 4.784-3.467 6.539-1.186 1.756-2.2 2.897-2.975 3.556-.777.659-1.314.835-1.665.893-.348.058-.506 0-.6-.177-.094-.176-.127-.466-.046-.82.08-.35.268-.76.804-1.285.541-.527 1.426-1.172 2.661-1.771 1.235-.6 2.817-1.156 4.116-1.537a30.03 30.03 0 013.197-.746 23.98 23.98 0 012.391-.337 14.241 14.241 0 012.186 0c.712.06 1.408.175 2.011.323.6.146 1.108.32 1.551.6.442.277.823.658 1.012 1.084.192.423.192.893.033 1.228-.158.337-.476.54-.839.66a2.103 2.103 0 01-1.267 0c-.49-.148-1.062-.47-1.662-.894-.6-.425-1.235-.952-2.057-1.771a35.417 35.417 0 01-2.692-3.013c-.854-1.083-1.553-2.136-2.028-3.03a11.318 11.318 0 01-.933-2.354c-.206-.733-.364-1.464-.427-2.122a7.493 7.493 0 01.03-1.714c.063-.466.16-.82.317-1.055.158-.23.381-.35.54-.408.157-.058.253-.058.347-.073.094-.015.188-.044.333 0 .138.042.321.154.504.268" stroke="#fff" stroke-width="1.4" stroke-miterlimit="10" stroke-linejoin="round"/></g><defs><clipPath id="clip0_651_2799"><path fill="#fff" d="M0 0h30v28H0z"/></clipPath></defs></svg>5.8942 13.8379 15.1952 12.7849 14.7202 11.8919C14.2472 10.9989 13.9932 10.2679 13.7872 9.53693C13.5812 8.80393 13.4232 8.07293 13.3602 7.41493C13.2972 6.75693 13.3262 6.16993 13.3902 5.70093C13.4532 5.23493 13.5502 4.88093 13.7072 4.64593C13.8652 4.41593 14.0882 4.29593 14.2462 4.23793C14.4042 4.17993 14.5002 4.17993 14.5942 4.16493C14.6882 4.14993 14.7822 4.12093 14.9272 4.16493C15.0652 4.20693 15.2482 4.31893 15.4312 4.43293" stroke="white" stroke-width="1.4" stroke-miterlimit="10" stroke-linejoin="round"/>
</g>
<defs>
<clipPath id="clip0_651_2799">
<rect width="30" height="28" fill="white"/>
</clipPath>
</defs>
</svg>
