<svg width="118" height="14" viewBox="0 0 118 14" fill="none" xmlns="http://www.w3.org/2000/svg"><path d="M.436.45h1.773v12.426H.436V.45zm9.342 1.878h-4.78V.45h12.196v1.878h-5.152v10.547h-1.857V2.329h-.407z" fill="currentColor" stroke="currentColor" stroke-width=".871"/><path d="M31.396 2.688V.042h-8.744c-2.71 0-3.752 1.576-3.752 4.12s1.496 3.735 3.753 3.735h4.245l1.362-.001c1.046 0 1.076 1.033 1.076 1.653 0 .62-.24 1.285-1.082 1.285h-9.018v2.45h9.018c2.257 0 3.752-1.192 3.752-3.735 0-2.544-1.038-4.101-3.748-4.101l-1.36-.001h-4.245c-.842 0-1.083-.666-1.083-1.285 0-.62 0-1.474 1.047-1.474h8.78z" fill="currentColor"/><path d="M54.476.443v1.892h-8.819c-.377 0-.701.02-.973.081-.276.062-.523.172-.715.371-.191.198-.29.445-.342.708-.052.257-.065.56-.065.896v4.885c0 .588.158 1.101.551 1.459.386.35.926.486 1.544.486h7.006V7.489h-2.954V5.846h4.76v7.03h-9.112c-1.83 0-2.71-.335-3.152-.782-.436-.441-.543-1.088-.543-2.02v-6.53c0-1.144.129-1.864.576-2.327.448-.464 1.322-.774 3.12-.774h9.118zm4.801 8.496v3.938h-1.775V.464h8.51c1.551 0 2.455.464 2.97.975.524.52.68 1.124.68 1.452v3.516c0 .406-.145.921-.603 1.34-.458.418-1.28.783-2.718.783h-.888l.578.674 3.151 3.671H66.79L63.332 8.68l-.14-.17-.217.023a3.78 3.78 0 01-.298.003c-.045 0-.093 0-.142-.002a20.996 20.996 0 00-.31-.003h-2.948v.408zm.408-6.894h-.408v5.026h6.734c.802 0 1.311-.267 1.584-.704.24-.384.239-.822.239-1.033V3.548c0-.146 0-.536-.256-.887-.28-.382-.78-.616-1.567-.616h-6.326zM76.43.465h5.138c1.977 0 3.716 1.598 3.716 3.52v5.52c0 1.907-1.722 3.401-3.716 3.401h-5.137c-1.999 0-3.745-1.498-3.745-3.4v-5.52c0-1.92 1.763-3.521 3.745-3.521zm5.138 10.905c.587 0 1.08-.328 1.41-.74.332-.412.542-.954.542-1.483V4.344c0-.526-.208-1.087-.534-1.518-.324-.428-.818-.794-1.418-.794h-5.137c-.598 0-1.092.366-1.416.793-.326.43-.537.992-.537 1.519v4.803c0 .53.213 1.072.545 1.484.33.41.824.74 1.408.74h5.137zm17.709-2.75V.465h1.864v9.034c0 1.86-1.528 3.377-3.428 3.377h-5.978c-1.9 0-3.428-1.516-3.428-3.377V.459l1.826.005v8.163c0 .931.177 1.629.673 2.068.484.428 1.173.515 1.927.515h4.16c.76 0 1.404-.133 1.836-.602.423-.46.548-1.143.548-1.988z" fill="currentColor" stroke="currentColor" stroke-width=".871"/><path d="M107.01 6.437c0 .127.007.248.028.368h-.028v-.368zm.028-3.999a2.134 2.134 0 00-.028.37v-.37h.028z" fill="currentColor"/><path d="M107.01 6.437c0 .127.007.248.028.368h-.028v-.368zm.028-3.999a2.134 2.134 0 00-.028.37v-.37h.028z" fill="currentColor"/><path d="M106.395 8.807h-.408v4.068h-1.821V.436h8.825c2.365 0 3.45 1.446 3.45 2.726v3.055c0 1.242-1.308 2.59-3.45 2.59h-6.596zm-.408-2.003v.408h7.004a1.86 1.86 0 001.873-1.854V3.884a1.86 1.86 0 00-1.873-1.854h-7.004v4.774z" fill="currentColor" stroke="currentColor" stroke-width=".871"/></svg>