<svg width="120" height="120" viewBox="0 0 120 120" fill="none" xmlns="http://www.w3.org/2000/svg">
<path d="M60 0C26.9163 0 0 26.9163 0 60C0 93.0837 26.9163 120 60 120C93.0837 120 120 93.0837 120 60C120 26.9163 93.0837 0 60 0ZM81.5683 62.6827L48.5538 82.6269C48.0806 82.9104 47.5405 83.0629 46.9889 83.0688C46.4373 83.0747 45.894 82.9338 45.4149 82.6604C44.9357 82.3871 44.5379 81.9912 44.2622 81.5134C43.9866 81.0355 43.843 80.493 43.8462 79.9413V40.0587C43.843 39.507 43.9866 38.9645 44.2622 38.4866C44.5379 38.0088 44.9357 37.6129 45.4149 37.3396C45.894 37.0662 46.4373 36.9253 46.9889 36.9312C47.5405 36.937 48.0806 37.0896 48.5538 37.3731L81.5683 57.3173C82.0285 57.5977 82.4088 57.9917 82.6727 58.4615C82.9366 58.9313 83.0752 59.4611 83.0752 60C83.0752 60.5389 82.9366 61.0687 82.6727 61.5385C82.4088 62.0083 82.0285 62.4023 81.5683 62.6827Z" fill="currentColor"/>
</svg>
