<svg width="65" height="50" viewBox="0 0 65 50" fill="none" xmlns="http://www.w3.org/2000/svg"><path d="M14.507 50c-3.954 0-7.374-1.312-10.26-3.934C1.417 43.388 0 39.426 0 34.18c0-2.732.4-5.737 1.202-9.016.802-3.333 2.19-6.776 4.168-10.328C7.4 11.23 10.206 7.678 13.786 4.18c1.602-1.639 3.045-2.732 4.327-3.278C19.396.3 20.464 0 21.32 0c.909 0 1.684.273 2.325.82.64.491.961 1.311.961 2.459 0 .983-.293 1.967-.881 2.95-.535.93-1.63 2.104-3.286 3.525-3.794 3.333-6.278 7.186-7.454 11.557a2.95 2.95 0 01.721-.081c.268-.055.535-.082.802-.082 4.06 0 7.427 1.366 10.098 4.098 2.726 2.732 4.088 6.175 4.088 10.328 0 3.989-1.363 7.404-4.088 10.246C21.934 48.607 18.568 50 14.507 50zm36.307 0c-3.954 0-7.374-1.312-10.26-3.934-2.831-2.678-4.247-6.64-4.247-11.886 0-2.732.4-5.737 1.202-9.016.802-3.333 2.191-6.776 4.168-10.328 2.03-3.607 4.836-7.158 8.416-10.656 1.602-1.639 3.045-2.732 4.327-3.278C55.703.3 56.772 0 57.627 0c.909 0 1.684.273 2.325.82.64.491.962 1.311.962 2.459 0 .983-.294 1.967-.882 2.95-.535.93-1.63 2.104-3.286 3.525-3.794 3.333-6.278 7.186-7.454 11.557a2.95 2.95 0 01.721-.081 3.97 3.97 0 01.802-.082c4.06 0 7.427 1.366 10.099 4.098C63.638 27.978 65 31.42 65 35.574c0 3.989-1.362 7.404-4.087 10.246-2.672 2.787-6.038 4.18-10.1 4.18z" fill="currentColor"/></svg>