<svg width="35" height="35" viewBox="0 0 35 35" fill="none" xmlns="http://www.w3.org/2000/svg"><path d="M13.125 32.083h8.75c7.292 0 10.209-2.916 10.209-10.208v-8.75c0-7.292-2.917-10.208-10.209-10.208h-8.75c-7.291 0-10.208 2.916-10.208 10.208v8.75c0 7.292 2.917 10.208 10.208 10.208z" stroke="currentColor" stroke-width="1.5" stroke-linecap="round" stroke-linejoin="round"/><path d="M13.27 17.5v-2.158c0-2.786 1.97-3.909 4.375-2.523l1.867 1.079 1.867 1.08c2.406 1.385 2.406 3.66 0 5.045l-1.867 1.08-1.867 1.078c-2.406 1.386-4.374.248-4.374-2.523V17.5z" stroke="currentColor" stroke-width="1.5" stroke-miterlimit="10" stroke-linecap="round" stroke-linejoin="round"/></svg>