<svg width="22" height="22" viewBox="0 0 22 22" fill="none" xmlns="http://www.w3.org/2000/svg"><g clip-path="url(#clip0_651_2882)"><path d="M19.72 5.417c.134-.453 0-.786-.644-.786h-2.131c-.543 0-.793.286-.926.605 0 0-1.086 2.645-2.62 4.36-.496.495-.724.655-.995.655-.134 0-.34-.16-.34-.612V5.417c0-.543-.152-.786-.601-.786h-3.35c-.34 0-.543.254-.543.489 0 .514.767.633.846 2.08v3.141c0 .688-.123.814-.394.814-.724 0-2.482-2.656-3.524-5.695-.21-.59-.417-.829-.963-.829H1.404c-.608 0-.731.286-.731.605 0 .564.724 3.368 3.369 7.074 1.762 2.529 4.244 3.9 6.502 3.9 1.357 0 1.523-.304 1.523-.828 0-2.417-.123-2.645.557-2.645.315 0 .858.159 2.124 1.378 1.448 1.448 1.687 2.095 2.497 2.095h2.131c.608 0 .916-.304.739-.904-.406-1.263-3.145-3.861-3.268-4.035-.315-.405-.224-.586 0-.948.004-.004 2.605-3.665 2.873-4.906z" fill="currentColor"/></g><defs><clipPath id="clip0_651_2882"><path fill="#fff" transform="translate(0 1.158)" d="M0 0h20.842v18.526H0z"/></clipPath></defs></svg>2.7366 13.4821 12.8958 14.7485 14.1152C16.1959 15.5626 16.4347 16.2103 17.2452 16.2103H19.3765C19.9844 16.2103 20.2919 15.9063 20.1146 15.3057C19.7094 14.0429 16.9702 11.4448 16.8472 11.2712C16.5324 10.8659 16.6229 10.685 16.8472 10.3231C16.8508 10.3195 19.4525 6.65766 19.7202 5.41654Z" fill="currentColor"/>
</g>
<defs>
<clipPath id="clip0_651_2882">
<rect width="20.8421" height="18.5263" fill="white" transform="translate(0 1.15771)"/>
</clipPath>
</defs>
</svg>
