<svg width="24" height="24" viewBox="0 0 24 24" fill="none" xmlns="http://www.w3.org/2000/svg"><path fill-rule="evenodd" clip-rule="evenodd" d="M19.636 4.535a10.361 10.361 0 00-7.377-3.058c-5.749 0-10.427 4.678-10.43 10.428 0 1.838.48 3.632 1.393 5.214l-1.48 5.404 5.529-1.45a10.42 10.42 0 004.983 1.27h.005c5.747 0 10.426-4.68 10.428-10.43a10.366 10.366 0 00-3.051-7.378zm-7.377 16.046h-.004a8.655 8.655 0 01-4.412-1.208l-.316-.188-3.28.86.875-3.198-.206-.328a8.647 8.647 0 01-1.326-4.613c.002-4.78 3.89-8.668 8.672-8.668A8.61 8.61 0 0118.39 5.78a8.616 8.616 0 012.537 6.133c-.002 4.78-3.89 8.668-8.668 8.668z" fill="currentColor"/><path fill-rule="evenodd" clip-rule="evenodd" d="M17.015 14.089c-.26-.13-1.542-.76-1.78-.848-.24-.087-.413-.13-.587.13-.174.261-.673.848-.825 1.022-.152.174-.304.196-.565.066-.26-.13-1.1-.406-2.095-1.294-.775-.69-1.298-1.544-1.45-1.805-.152-.26-.016-.402.114-.532.117-.117.26-.304.391-.456.13-.152.174-.261.26-.435.088-.174.044-.326-.021-.457-.065-.13-.586-1.413-.803-1.934-.212-.508-.427-.44-.587-.448a11.205 11.205 0 00-.5-.009.957.957 0 00-.694.326c-.239.261-.912.892-.912 2.174 0 1.283.934 2.522 1.064 2.696.13.174 1.837 2.806 4.451 3.934.622.269 1.108.43 1.486.55.624.198 1.192.17 1.641.102.5-.074 1.542-.63 1.76-1.238.216-.61.216-1.131.151-1.24-.065-.108-.239-.174-.5-.304z" fill="currentColor"/></svg>