<svg width="22" height="22" viewBox="0 0 22 22" fill="none" xmlns="http://www.w3.org/2000/svg"><g clip-path="url(#clip0_651_2886)"><path d="M10.422 4.052c.041 0 3.902.002 6.48.201.362.045 1.15.05 1.855.836.555.6.736 1.962.736 1.962.002.023.185 1.61.185 3.197v1.499c0 1.599-.185 3.198-.185 3.198-.004.03-.187 1.368-.736 1.96-.704.786-1.493.79-1.855.837-2.576.197-6.434.206-6.484.206 0 0-4.816-.048-6.297-.2-.413-.082-1.337-.058-2.042-.844-.552-.596-.734-1.946-.736-1.96 0 0-.185-1.598-.185-3.197v-1.5c0-1.586.183-3.172.185-3.196 0 0 .181-1.362.736-1.962.705-.786 1.493-.791 1.855-.836 2.591-.2 6.48-.2 6.48-.2h.008zM8.105 14.474L13.895 11l-5.79-3.473v6.948z" fill="currentColor"/></g><defs><clipPath id="clip0_651_2886"><path fill="#fff" transform="translate(1.158 1.737)" d="M0 0h18.526v18.526H0z"/></clipPath></defs></svg>932 2.07861 5.08936C2.78361 4.30333 3.57213 4.29797 3.93408 4.25342C6.52545 4.05252 10.4136 4.05225 10.4136 4.05225H10.4224ZM8.10498 14.4741L13.895 10.9995L8.10498 7.52588V14.4741Z" fill="currentColor"/>
</g>
<defs>
<clipPath id="clip0_651_2886">
<rect width="18.5263" height="18.5263" fill="white" transform="translate(1.15771 1.73682)"/>
</clipPath>
</defs>
</svg>
