<svg width="35" height="35" viewBox="0 0 35 35" fill="none" xmlns="http://www.w3.org/2000/svg">
<path d="M14.7438 16.2603H10.8793C9.96052 16.2603 9.2168 17.0039 9.2168 17.9227V25.3893H14.7438V16.2603V16.2603Z" stroke="white" stroke-width="1.5" stroke-miterlimit="10" stroke-linecap="round" stroke-linejoin="round"/>
<path d="M18.6101 9.625H16.3934C15.4747 9.625 14.731 10.3688 14.731 11.2875V25.3751H20.2581V11.2875C20.2581 10.3688 19.5289 9.625 18.6101 9.625Z" stroke="white" stroke-width="1.5" stroke-miterlimit="10" stroke-linecap="round" stroke-linejoin="round"/>
<path d="M24.1326 18.7397H20.2681V25.3752H25.7952V20.4023C25.7806 19.4835 25.0368 18.7397 24.1326 18.7397Z" stroke="white" stroke-width="1.5" stroke-miterlimit="10" stroke-linecap="round" stroke-linejoin="round"/>
<path d="M13.1248 32.0832H21.8748C29.1665 32.0832 32.0832 29.1665 32.0832 21.8748V13.1248C32.0832 5.83317 29.1665 2.9165 21.8748 2.9165H13.1248C5.83317 2.9165 2.9165 5.83317 2.9165 13.1248V21.8748C2.9165 29.1665 5.83317 32.0832 13.1248 32.0832Z" stroke="white" stroke-width="1.5" stroke-linecap="round" stroke-linejoin="round"/>
</svg>
