<svg width="35" height="35" viewBox="0 0 35 35" fill="none" xmlns="http://www.w3.org/2000/svg"><path d="M14.744 16.26h-3.865c-.918 0-1.662.744-1.662 1.663v7.466h5.527V16.26v0z" stroke="#fff" stroke-width="1.5" stroke-miterlimit="10" stroke-linecap="round" stroke-linejoin="round"/><path d="M18.61 9.625h-2.217c-.918 0-1.662.744-1.662 1.662v14.088h5.527V11.287a1.65 1.65 0 00-1.648-1.662zm5.523 9.115h-3.865v6.635h5.527v-4.973c-.014-.919-.758-1.662-1.662-1.662z" stroke="#fff" stroke-width="1.5" stroke-miterlimit="10" stroke-linecap="round" stroke-linejoin="round"/><path d="M13.125 32.083h8.75c7.291 0 10.208-2.916 10.208-10.208v-8.75c0-7.292-2.916-10.209-10.208-10.209h-8.75c-7.292 0-10.209 2.917-10.209 10.209v8.75c0 7.291 2.917 10.208 10.209 10.208z" stroke="#fff" stroke-width="1.5" stroke-linecap="round" stroke-linejoin="round"/></svg>