<svg width="61" height="61" viewBox="0 0 61 61" fill="none" xmlns="http://www.w3.org/2000/svg"><path d="M48.401 41.83V26.564c0-8.947-7.11-16.197-15.883-16.197h-4.203c-8.773 0-15.883 7.25-15.883 16.197V41.83M20.3 12.58h-5.728c-6.952 0-12.585 5.745-12.585 12.833h6.848c1.312 0 2.754-.38 3.766-1.233m35.883.011c1.013.853 2.276 1.211 3.588 1.211h6.848c0-7.088-5.634-12.833-12.584-12.833h-5.729m-14.485-2.045L24.83 4.162c-.545-2.683-4.327-2.626-4.791.075l-1.434 8.34m23.744.003l-1.711-8.418c-.545-2.683-4.327-2.626-4.791.075l-1.083 6.292M23.008 27.541c-.37 0-.67.305-.67.683 0 .377.3.682.67.682.37 0 .67-.305.67-.682 0-.378-.3-.683-.67-.683zm14.76 0a.675.675 0 00-.669.683c0 .377.3.682.67.682.37 0 .669-.305.669-.682 0-.378-.3-.683-.67-.683z" stroke="#D5D5D5" stroke-width="1.25" stroke-linecap="round" stroke-linejoin="round"/><path d="M43.526 40.667H17.383c-4.572 0-8.279 3.72-8.279 8.307v2.702c0 4.588 3.707 8.307 8.279 8.307h26.143c4.572 0 8.278-3.72 8.278-8.307v-2.702c0-4.588-3.706-8.307-8.278-8.307z" stroke="#D5D5D5" stroke-width="1.25" stroke-linecap="round" stroke-linejoin="round"/><path d="M20.994 52.867h.071c1.543 0 2.811-1.147 2.811-2.542 0-1.395-1.268-2.542-2.81-2.542-1.544 0-2.812 1.147-2.812 2.542v.012m24.4 0v-.012c0-1.395-1.267-2.542-2.81-2.542-1.543 0-2.811 1.147-2.811 2.542 0 1.395 1.268 2.542 2.81 2.542h.072" stroke="#D5D5D5" stroke-width="1.25" stroke-linecap="round" stroke-linejoin="round"/></svg>