<svg width="50" height="50" viewBox="0 0 50 50" fill="none" xmlns="http://www.w3.org/2000/svg">
<path d="M32.8535 13.5146H45.6335C46.8571 13.5146 47.8509 14.5084 47.8509 15.732V40.438C47.8509 41.6616 46.8571 42.6554 45.6335 42.6554H5.15099C3.92743 42.6554 2.93359 41.6616 2.93359 40.438V15.732C2.93359 14.5084 3.92743 13.5146 5.15099 13.5146H17.9809M28.4936 17.2003V6.62769H22.3508V17.2003M20.1834 17.2003H30.5961" stroke="#1C1C1C" stroke-width="1.25" stroke-linecap="round" stroke-linejoin="round"/>
<path d="M28.7773 22.9585H42.0368M28.7773 28.5519H42.0368M28.7773 34.1454H42.0368" stroke="#1C1C1C" stroke-width="1.25" stroke-linecap="round" stroke-linejoin="round"/>
<path d="M24.0284 38.835V37.4466C24.0284 34.7298 21.826 32.5324 19.1142 32.5324L15.9878 35.9684L12.8615 32.5324C10.1447 32.5324 7.94727 34.7348 7.94727 37.4466V38.835M15.9978 29.5559H15.9828C13.7654 29.5559 11.9675 27.758 11.9675 25.5406V24.6017C11.9675 22.3843 13.7654 20.5864 15.9828 20.5864H15.9978C18.2152 20.5864 20.0131 22.3843 20.0131 24.6017V25.5406C20.0131 27.758 18.2152 29.5559 15.9978 29.5559Z" stroke="#969696" stroke-width="1.25" stroke-linecap="round" stroke-linejoin="round"/>
</svg>
