<svg width="50" height="50" viewBox="0 0 50 50" fill="none" xmlns="http://www.w3.org/2000/svg">
<path d="M16.9011 13.1807H8.45291M19.1207 38.5492L18.5423 38.5086C17.5064 38.4546 16.5782 37.8738 16.0536 36.9822L11.4259 29.0529H8.43945M19.9413 33.5917L22.1341 37.0498C22.4435 37.5361 22.9547 37.8602 23.5332 37.9278L24.2461 38.0088M23.9905 30.4577L26.9232 35.5774C27.4209 36.4419 28.4164 36.8741 29.385 36.631L29.6271 36.577M28.0398 27.4319L32.8826 34.7398C33.5149 35.6854 34.8871 35.6989 35.5328 34.7804L37.7928 31.5789M41.5595 15.2475L33.4342 11.6003L25.9008 11.4517C24.3403 11.4247 22.8471 12.1136 21.8651 13.3428L15.5558 21.2451L16.4168 22.2853C17.7217 23.8522 20.0893 23.9333 21.4884 22.4474L25.6318 18.0572L29.3177 18.3544L36.1113 31.4303H41.425" stroke="#1C1C1C" stroke-width="1.25" stroke-linecap="round" stroke-linejoin="round"/>
<path d="M3.54158 27.0517C3.54158 27.3581 3.29493 27.5979 2.97977 27.5979C2.66462 27.5979 2.41797 27.3581 2.41797 27.0517C2.41797 26.7453 2.66462 26.5055 2.97977 26.5055C3.29493 26.5055 3.54158 26.7453 3.54158 27.0517ZM47.0199 28.424C46.7047 28.424 46.4581 28.6638 46.4581 28.9702C46.4581 29.2766 46.7047 29.5164 47.0199 29.5164C47.335 29.5164 47.5817 29.2766 47.5817 28.9702C47.5817 28.6638 47.335 28.424 47.0199 28.424Z" stroke="#1C1C1C" stroke-width="1.25" stroke-linecap="round" stroke-linejoin="round"/>
<path d="M2.41797 11.4509H8.267V32.2341H2.41797M47.5817 13.2233H41.6648V34.0328H47.5817" stroke="#969696" stroke-width="1.25" stroke-linecap="round" stroke-linejoin="round"/>
</svg>
