<svg width="51" height="50" viewBox="0 0 51 50" fill="none" xmlns="http://www.w3.org/2000/svg">
<path d="M8.73911 39.8995C17.9554 29.4632 31.2264 23.4763 45.1506 23.4763C46.3208 23.4763 47.4864 23.5171 48.652 23.6033M47.8674 30.2615C46.9648 30.2025 46.0577 30.1753 45.1506 30.1753C33.1177 30.1753 21.6473 35.364 13.701 44.3988M43.4815 37.4367C39.4222 37.6318 35.4263 38.5389 31.6845 40.1218C27.9427 41.7047 24.5002 43.9271 21.5294 46.6983M26.0513 27.3088C18.3318 23.0409 9.65076 20.8003 0.8291 20.8003C0.761067 20.8003 0.693033 20.8003 0.625 20.8003M19.1074 30.9509C16.3407 29.7444 13.4652 28.8192 10.5171 28.1796C7.56894 27.5401 4.5664 27.1954 1.55025 27.1501M13.1794 35.3458C11.6509 34.8424 10.0907 34.4342 8.51234 34.1212C6.93396 33.8083 5.33745 33.5906 3.73186 33.4726" stroke="#1C1C1C" stroke-width="1.25" stroke-linecap="round" stroke-linejoin="round"/>
<path d="M20.5312 20.7323C21.1117 15.725 25.4069 11.9016 30.4459 11.9016C35.4849 11.9016 39.7256 15.6661 40.3515 20.6371M17.9912 17.4531L12.6982 15.852M21.8782 11.8199L18.0956 7.78781M28.0556 8.88542L26.7993 3.50171M34.8771 9.43422L36.4782 4.14122M40.5103 13.3167L44.5424 9.534M48.8285 18.2377L43.4448 19.4941" stroke="#969696" stroke-width="1.25" stroke-linecap="round" stroke-linejoin="round"/>
</svg>
