<svg width="50" height="50" viewBox="0 0 50 50" fill="none" xmlns="http://www.w3.org/2000/svg">
<path d="M27.2149 33.4348V38.3334H24.1461M27.2149 27.9092V20.5075M27.2149 20.5075L24.4095 6.66675H7.20385M27.2149 20.5075L46.4709 22.809C47.8012 22.9702 48.6485 24.3315 48.2226 25.6256L46.9835 30.6667M31.4209 24.8151L37.7737 25.4733M31.9916 36.1035H27.2149M35.0253 8.50263H34.5512C33.3263 8.50263 32.3341 9.5146 32.3341 10.7639V21.1165M7.37947 17.8208L9.51316 6.66675M15.5411 17.8208V6.66675M21.4373 24.627C18.8294 22.021 15.326 20.5612 11.6732 20.5612C7.46727 20.5612 3.48086 22.5001 0.833496 25.8315" stroke="#1C1C1C" stroke-width="1.5" stroke-linecap="round" stroke-linejoin="round"/>
<path d="M39.0669 36.4999C39.0669 38.0986 40.3849 39.4166 41.9836 39.4166C43.5823 39.4166 44.9002 38.0986 44.9002 36.4999C44.9002 34.9012 43.5823 33.5833 41.9836 33.5833C41.679 33.5833 41.3745 33.6308 41.0891 33.726" stroke="#969696" stroke-width="1.5" stroke-linecap="round" stroke-linejoin="round"/>
<path d="M20.9741 33.2788C20.9741 38.7713 16.6507 43.2243 11.3181 43.2243C5.98549 43.2243 1.6665 38.7713 1.6665 33.2788C1.6665 27.7863 5.98989 23.3333 11.3225 23.3333C16.6551 23.3333 20.9785 27.7863 20.9785 33.2788H20.9741ZM49.1665 36.1612C49.1665 40.124 46.0507 43.3333 42.2032 43.3333C38.3558 43.3333 35.24 40.124 35.24 36.1612C35.24 32.1984 38.3558 28.9892 42.2032 28.9892C46.0507 28.9892 49.1665 32.1984 49.1665 36.1612Z" stroke="#969696" stroke-width="1.5" stroke-linecap="round" stroke-linejoin="round"/>
<path d="M8.9965 29.4159C9.65956 29.0626 10.4001 28.8787 11.1502 28.8787C13.6669 28.8787 15.7336 30.9501 15.7336 33.462C15.7336 35.9739 13.6621 38.0453 11.1502 38.0453C8.63835 38.0453 6.56689 35.9739 6.56689 33.462C6.56689 33.07 6.61529 32.6779 6.71693 32.3004" stroke="#969696" stroke-width="1.5" stroke-linecap="round" stroke-linejoin="round"/>
</svg>
