<svg width="50" height="50" viewBox="0 0 50 50" fill="none" xmlns="http://www.w3.org/2000/svg">
<path d="M20.9564 26.7092C20.2376 27.236 19.3715 27.5217 18.4787 27.5217C16.184 27.5217 14.2956 25.6333 14.2956 23.3387C14.2956 21.044 16.184 19.1556 18.4787 19.1556C19.3046 19.1556 20.1126 19.4012 20.7957 19.8565M28.1216 19.5887C26.5769 15.6199 22.7332 12.9904 18.4787 12.9904C12.8001 12.9904 8.13045 17.6601 8.13045 23.3387C8.13045 29.0173 12.8001 33.6869 18.4787 33.6869C22.7689 33.6869 26.6349 31.0173 28.1573 27.0039M35.0323 19.5619C33.2778 11.8654 26.3716 6.36096 18.4787 6.36096C9.16617 6.36096 1.50098 14.0262 1.50098 23.3387C1.50098 32.6512 9.16617 40.3164 18.4787 40.3164C26.4028 40.3164 33.3225 34.7717 35.0501 27.0396" stroke="#1C1C1C" stroke-width="1.25" stroke-linecap="round" stroke-linejoin="round"/>
<path d="M44.0091 23.3387H18.2725M48.2323 19.1378L44.0136 23.3566L48.1966 27.5396M41.96 19.1378L37.7412 23.3566L41.9243 27.5396" stroke="#969696" stroke-width="1.25" stroke-linecap="round" stroke-linejoin="round"/>
<path d="M5.6211 39.8655L3.80859 43.1557M30.8845 39.8655L32.697 43.1557" stroke="#1C1C1C" stroke-width="1.25" stroke-linecap="round" stroke-linejoin="round"/>
</svg>
