<svg width="50" height="50" viewBox="0 0 50 50" fill="none" xmlns="http://www.w3.org/2000/svg">
<path d="M40.5192 10.4374C40.8667 9.59553 40.136 8.71827 38.2871 8.29736M41.8334 42.0675C41.6463 40.189 41.0582 28.3814 41.0582 26.2768C41.0582 24.1723 40.9023 20.7696 38.2871 17.3004M38.1401 42.3777L44.0254 41.8815C44.0254 41.8815 45.8342 44.7126 45.6783 47.464C42.7958 47.464 25.2734 47.464 25.2734 47.464H4.86402C4.70809 44.7082 6.51691 41.8815 6.51691 41.8815L12.4023 42.3777M12.2552 8.29736C10.4108 8.71827 9.68012 9.59997 10.0232 10.4374M10.2281 21.1063C9.54646 23.1355 9.48409 24.9565 9.48409 26.2724C9.48409 28.3769 8.896 40.1845 8.70888 42.0631M25.2689 18.5808C35.8634 18.5808 42.9784 16.0908 42.9784 16.0908C42.9784 16.0908 40.5949 13.9996 40.5147 10.4418C36.1308 11.895 32.5577 12.6615 25.2689 12.6615C17.9757 12.6615 14.4071 11.895 10.0232 10.4418C9.94743 13.9996 7.55943 16.0908 7.55943 16.0908C7.55943 16.0908 14.6744 18.5808 25.2689 18.5808Z" stroke="#1C1C1C" stroke-width="1.5" stroke-linecap="round" stroke-linejoin="round"/>
<path d="M14.8545 8.05421C16.6085 6.12721 21.4552 2.06285 25.7232 2.49621C29.9911 2.92958 28.5464 5.57183 30.1855 6.28709C31.8247 7.00236 36.1854 7.80176 36.5212 10.7974" stroke="#969696" stroke-width="1.5" stroke-linecap="round" stroke-linejoin="round"/>
<path d="M19.0205 42.4639L24.8569 31.2406L22.7041 25.9405M24.2885 22.8904L19.4009 32.2926C19.0787 32.9115 19.0474 33.6187 19.307 34.2553L21.0525 38.5563L25.8505 36.9915C26.5667 36.7572 27.144 36.2798 27.4663 35.661L32.3538 26.2588M20.7079 29.7774L22.8607 35.0775M28.7687 33.1502L22.8562 35.0819M30.7649 29.3133L24.8524 31.245M28.0258 21.6306L24.0558 29.2646M31.0245 22.886L27.0545 30.52" stroke="#969696" stroke-width="1.5" stroke-linecap="round" stroke-linejoin="round"/>
</svg>
