<svg width="50" height="50" viewBox="0 0 50 50" fill="none" xmlns="http://www.w3.org/2000/svg">
<path d="M15.08 30.7088C13.5695 29.1852 12.7201 27.123 12.7201 24.9776C12.7201 22.8322 13.5651 20.7788 15.0713 19.2595M11.3628 15.7656C8.96788 18.2306 7.62811 21.5406 7.62811 24.9776C7.62811 28.4146 9.00291 31.8034 11.4504 34.2772M7.37855 11.7944C3.9328 15.3146 2.00195 20.052 2.00195 24.9776C2.00195 29.9032 3.94593 34.6756 7.41357 38.2002M34.8832 19.2595C36.3894 20.7832 37.2344 22.8366 37.2344 24.9776C37.2344 27.1186 36.385 29.1852 34.8745 30.7088M38.4998 34.2772C40.9472 31.8034 42.322 28.4584 42.322 24.9776C42.322 21.4968 40.9823 18.235 38.5873 15.7656M42.5366 38.2002C46.0042 34.6756 47.9482 29.9251 47.9482 24.9776C47.9482 20.052 46.0174 15.3146 42.5716 11.7944" stroke="#1C1C1C" stroke-width="1.5" stroke-linecap="round" stroke-linejoin="round"/>
<path d="M24.9092 38.4321C22.8733 38.4321 21.2227 36.7815 21.2227 34.7456V15.3583C21.2227 13.3224 22.8733 11.6718 24.9092 11.6718C26.9451 11.6718 28.5958 13.3224 28.5958 15.3583V34.75C28.5958 36.7859 26.9451 38.4365 24.9092 38.4365V38.4321Z" stroke="#969696" stroke-width="1.5" stroke-linecap="round" stroke-linejoin="round"/>
<path d="M24.9102 15.7655V34.2771" stroke="#969696" stroke-width="1.5" stroke-linecap="round" stroke-linejoin="round"/>
</svg>
