<svg width="50" height="50" viewBox="0 0 50 50" fill="none" xmlns="http://www.w3.org/2000/svg">
<path d="M5.44893 16.0869H15.3351C16.1544 16.0869 16.8208 15.4247 16.8208 14.6012V13.2811C16.8208 12.4618 16.1586 11.7954 15.3351 11.7954H5.44893C4.62968 11.7954 3.96324 12.4576 3.96324 13.2811V14.6012C3.96324 15.4205 4.62543 16.0869 5.44893 16.0869ZM5.44893 16.0869L3.33076 19.2323C2.70253 20.1662 2.36719 21.2699 2.36719 22.3947V40.1636C2.36719 40.9531 3.00816 41.5941 3.79769 41.5941H17.101C17.8905 41.5941 18.5315 40.9531 18.5315 40.1636V22.4457C18.5315 21.2868 18.1749 20.1577 17.5127 19.2069L15.3394 16.0912M2.36719 23.6937H18.5272M2.36719 36.3857H18.5272" stroke="#1C1C1C" stroke-width="1.5" stroke-linecap="round" stroke-linejoin="round"/>
<path d="M32.1156 24.5723V36.114C32.1156 38.6949 30.0229 40.7876 27.4421 40.7876C24.8612 40.7876 22.7685 38.6949 22.7685 36.114V11.7954C22.7685 9.48623 20.8966 7.61426 18.5874 7.61426H14.5718C12.2626 7.61426 10.3906 9.48623 10.3906 11.7954M32.1156 33.3167C36.5133 33.3167 40.4992 29.1949 41.3099 24.9459" stroke="black" stroke-width="1.25" stroke-linecap="round" stroke-linejoin="round"/>
<path d="M29.0939 13.4976V21.3293C29.0939 22.9975 30.448 24.3516 32.1162 24.3516C33.7844 24.3516 35.1385 22.9975 35.1385 21.3293V13.4976M39.9309 10.5814L46.4637 11.2394C47.3679 11.3327 48.0301 12.1393 47.9409 13.0476C47.8475 13.9518 47.041 14.614 46.1326 14.5248L39.4725 13.8542M39.3918 13.8414L38.6065 21.6349C38.441 23.2947 39.6508 24.7803 41.3105 24.9459C42.9702 25.1157 44.4559 23.9017 44.6215 22.2419L45.4068 14.4484M35.8686 13.4976H28.3638C27.4512 13.4976 26.7168 12.759 26.7168 11.8506C26.7168 10.938 27.4554 10.2036 28.3638 10.2036H35.8686C36.7813 10.2036 37.5156 10.9422 37.5156 11.8506C37.5156 12.7632 36.777 13.4976 35.8686 13.4976Z" stroke="#969696" stroke-width="1.5" stroke-linecap="round" stroke-linejoin="round"/>
</svg>
