<svg width="50" height="50" viewBox="0 0 50 50" fill="none" xmlns="http://www.w3.org/2000/svg">
<path d="M19.5828 39.065V21.4437H29.9349V39.065M27.5514 15.7586V21.4484M21.8854 21.4437V15.7538M31.3573 15.7063C30.3868 12.8899 27.7227 10.9917 24.7446 10.9917C21.7665 10.9917 19.1023 12.8946 18.1318 15.711H31.3573V15.7063Z" stroke="#1C1C1C" stroke-width="1.5" stroke-linecap="round" stroke-linejoin="round"/>
<path d="M1.7998 32.1858V39.065M6.12426 32.1858V39.065M10.4535 32.1858V39.065M14.7779 32.1858V39.065M34.6305 32.1858V39.065M38.9549 32.1858V39.065M43.2794 32.1858V39.065M47.6086 32.1858V39.065" stroke="#969696" stroke-width="1.5" stroke-linecap="round" stroke-linejoin="round"/>
<path d="M14.7782 18.0278C14.7782 18.318 14.5451 18.5511 14.2549 18.5511C13.9647 18.5511 13.7316 18.318 13.7316 18.0278C13.7316 17.7376 13.9647 17.5045 14.2549 17.5045C14.5451 17.5045 14.7782 17.7376 14.7782 18.0278ZM9.15976 18.3656C8.86956 18.3656 8.63644 18.5987 8.63644 18.8889C8.63644 19.1791 8.86956 19.4122 9.15976 19.4122C9.44996 19.4122 9.68307 19.1791 9.68307 18.8889C9.68307 18.5987 9.44996 18.3656 9.15976 18.3656ZM4.11218 19.0649C3.82198 19.0649 3.58887 19.298 3.58887 19.5882C3.58887 19.8784 3.82198 20.1115 4.11218 20.1115C4.40238 20.1115 4.63549 19.8784 4.63549 19.5882C4.63549 19.298 4.40238 19.0649 4.11218 19.0649ZM5.57269 14.6215C5.28249 14.6215 5.04938 14.8546 5.04938 15.1448C5.04938 15.435 5.28249 15.6681 5.57269 15.6681C5.86289 15.6681 6.096 15.435 6.096 15.1448C6.096 14.8546 5.86289 14.6215 5.57269 14.6215ZM6.99991 10.3684C6.70971 10.3684 6.4766 10.6015 6.4766 10.8917C6.4766 11.1819 6.70971 11.415 6.99991 11.415C7.29011 11.415 7.52322 11.1819 7.52322 10.8917C7.52322 10.6015 7.29011 10.3684 6.99991 10.3684ZM10.6536 13.9127C10.3634 13.9127 10.1303 14.1458 10.1303 14.436C10.1303 14.7262 10.3634 14.9593 10.6536 14.9593C10.9438 14.9593 11.1769 14.7262 11.1769 14.436C11.1769 14.1458 10.9438 13.9127 10.6536 13.9127ZM35.1541 17.5045C35.4443 17.5045 35.6774 17.7376 35.6774 18.0278C35.6774 18.318 35.4443 18.5511 35.1541 18.5511C34.8639 18.5511 34.6308 18.318 34.6308 18.0278C34.6308 17.7376 34.8639 17.5045 35.1541 17.5045ZM39.7211 18.8889C39.7211 19.1791 39.9543 19.4122 40.2445 19.4122C40.5347 19.4122 40.7678 19.1791 40.7678 18.8889C40.7678 18.5987 40.5347 18.3656 40.2445 18.3656C39.9543 18.3656 39.7211 18.5987 39.7211 18.8889ZM44.7735 19.5882C44.7735 19.8784 45.0066 20.1115 45.2968 20.1115C45.587 20.1115 45.8201 19.8784 45.8201 19.5882C45.8201 19.298 45.587 19.0649 45.2968 19.0649C45.0066 19.0649 44.7735 19.298 44.7735 19.5882ZM43.3082 15.1448C43.3082 15.435 43.5413 15.6681 43.8315 15.6681C44.1217 15.6681 44.3548 15.435 44.3548 15.1448C44.3548 14.8546 44.1217 14.6215 43.8315 14.6215C43.5413 14.6215 43.3082 14.8546 43.3082 15.1448ZM41.8858 10.8917C41.8858 11.1819 42.1189 11.415 42.4091 11.415C42.6993 11.415 42.9324 11.1819 42.9324 10.8917C42.9324 10.6015 42.6993 10.3684 42.4091 10.3684C42.1189 10.3684 41.8858 10.6015 41.8858 10.8917ZM38.2321 14.436C38.2321 14.7262 38.4652 14.9593 38.7554 14.9593C39.0456 14.9593 39.2787 14.7262 39.2787 14.436C39.2787 14.1458 39.0456 13.9127 38.7554 13.9127C38.4652 13.9127 38.2321 14.1458 38.2321 14.436Z" stroke="#1C1C1C" stroke-width="1.5" stroke-linecap="round" stroke-linejoin="round"/>
</svg>
