<svg width="50" height="50" viewBox="0 0 50 50" fill="none" xmlns="http://www.w3.org/2000/svg">
<path d="M9.20272 48.1693C13.2866 45.6545 18.9777 44.2296 24.9317 44.2296C30.8857 44.2296 36.5301 45.646 40.6097 48.1396M25.5805 38.0424C26.0555 38.1314 26.5347 38.1738 27.0181 38.1738C28.7568 38.1738 30.4489 37.6056 31.8356 36.5539L31.8908 36.5624C33.1333 37.6141 34.7066 38.1908 36.3351 38.1908C40.1093 38.1908 43.2178 35.0823 43.2178 31.3081C43.2178 28.488 41.4876 25.9435 38.8668 24.9088L38.7396 24.8452C38.3282 21.4271 35.3724 18.8275 31.9035 18.8275C30.5676 18.8275 29.2615 19.2134 28.1419 19.9386M31.7975 27.2751V44.8742M35.5675 30.0189L31.7975 31.448M31.7975 34.2681L28.1716 31.7788M16.3611 19.1117V45.2601M20.093 22.4025L16.3569 25.5152L12.6208 22.4025M22.2558 27.2751L16.3611 32.1859L10.4665 27.2751M16.3611 37.5632C9.20696 37.5632 6.78125 32.6227 6.78125 28.3353C6.78125 20.5874 11.357 9.50635 16.3611 9.50635C21.361 9.50635 25.941 20.5874 25.941 28.3353C25.941 32.6185 23.5195 37.5632 16.3611 37.5632Z" stroke="#1C1C1C" stroke-width="1.25" stroke-linecap="round" stroke-linejoin="round"/>
<path d="M32.3314 1.83057L33.0057 3.51415M37.9758 1.83481L37.2634 3.50142M40.2786 6.50812L41.9621 5.83384M40.2913 10.7616L41.9579 11.474M37.9589 15.4646L37.2846 13.781M32.3144 15.4603L33.0269 13.7937M30.0117 10.7913L28.3281 11.4656M28.3324 5.81687L29.999 6.52932M37.908 8.6497C37.908 10.1764 36.6697 11.4147 35.143 11.4147C33.6163 11.4147 32.378 10.1764 32.378 8.6497C32.378 7.12303 33.6163 5.88473 35.143 5.88473C36.6697 5.88473 37.908 7.12303 37.908 8.6497Z" stroke="#969696" stroke-width="1.25" stroke-linecap="round" stroke-linejoin="round"/>
</svg>
