<svg width="165" height="45" viewBox="0 0 165 45" fill="none" xmlns="http://www.w3.org/2000/svg">
<path d="M159.952 33.2096V39.4235H160.111L163.172 33.2096H165V40.5895H163.753V34.597H163.593L160.619 40.5895H158.704V33.2096H159.952ZM160.488 30.4053C160.488 30.7005 160.59 30.9661 160.793 31.1875C160.996 31.4237 161.359 31.527 161.852 31.527C162.345 31.527 162.694 31.4237 162.897 31.1875C163.1 30.9661 163.216 30.7005 163.216 30.4053L164.318 30.5529C164.318 31.158 164.086 31.6451 163.636 31.9993C163.187 32.3536 162.592 32.5307 161.852 32.5307C161.098 32.5307 160.503 32.3536 160.053 31.9993C159.604 31.6451 159.386 31.158 159.386 30.5529L160.488 30.4053Z" fill="#D5D5D5"/>
<path d="M152.004 33.2096V39.4235H152.164L155.225 33.2096H157.052V40.5895H155.805V34.597H155.645L152.671 40.5895H150.756V33.2096H152.004Z" fill="#D5D5D5"/>
<path d="M144.198 33.2096V36.2649H147.854V33.2096H149.101V40.5895H147.854V37.3571H144.198V40.5895H142.95V33.2096H144.198Z" fill="#D5D5D5"/>
<path d="M137.104 40.7961C136.785 40.7961 136.48 40.7666 136.19 40.6781C135.9 40.6043 135.639 40.4862 135.436 40.3091C135.218 40.1467 135.044 39.9401 134.928 39.6744C134.798 39.4235 134.74 39.1135 134.74 38.7593C134.74 38.4936 134.798 38.1984 134.914 37.8737C135.03 37.5638 135.291 37.2686 135.668 37.0029C136.045 36.7372 136.582 36.5158 137.278 36.3387C137.975 36.1616 138.889 36.073 140.035 36.073V35.8073C140.035 35.6007 139.991 35.3793 139.919 35.1727C139.846 34.966 139.73 34.7889 139.585 34.6266C139.425 34.4642 139.222 34.3314 138.961 34.2428C138.7 34.1543 138.395 34.0952 138.047 34.0952C137.365 34.0952 136.858 34.2576 136.524 34.5823C136.19 34.907 136.031 35.3203 136.031 35.8221H134.783C134.783 35.3498 134.87 34.9218 135.059 34.5675C135.233 34.2133 135.479 33.9329 135.784 33.6967C136.074 33.4605 136.422 33.2982 136.814 33.1801C137.191 33.062 137.597 33.003 138.004 33.003C138.598 33.003 139.106 33.0768 139.527 33.2244C139.933 33.372 140.281 33.5786 140.542 33.8443C140.803 34.11 140.992 34.4347 141.108 34.7889C141.224 35.1579 141.282 35.5564 141.282 35.9992V37.9328C141.282 38.3017 141.282 38.6117 141.297 38.8774C141.311 39.1431 141.34 39.3792 141.369 39.5858C141.398 39.7925 141.427 39.9844 141.471 40.132C141.5 40.2943 141.543 40.4419 141.587 40.5895H140.31C140.223 40.3976 140.165 40.1615 140.136 39.8958C140.107 39.6301 140.078 39.394 140.078 39.1873H139.919C139.686 39.6449 139.324 40.0286 138.831 40.3386C138.337 40.6485 137.757 40.7961 137.104 40.7961ZM137.278 39.7334C137.655 39.7334 138.004 39.6744 138.352 39.5416C138.685 39.4087 138.976 39.2316 139.222 39.0102C139.469 38.8036 139.672 38.5674 139.817 38.3017C139.962 38.0361 140.035 37.7704 140.035 37.5047V36.9881C139.222 37.0176 138.569 37.0767 138.047 37.1652C137.525 37.2686 137.119 37.4014 136.814 37.549C136.509 37.6966 136.292 37.8737 136.176 38.0803C136.06 38.287 136.002 38.4936 136.002 38.7003C136.002 39.0545 136.118 39.3202 136.364 39.4825C136.596 39.6596 136.901 39.7334 137.278 39.7334Z" fill="#D5D5D5"/>
<path d="M133.438 33.2096V40.5895H132.19V34.3019H128.303V40.5895H127.055V33.2096H133.438Z" fill="#D5D5D5"/>
<path d="M119.04 33.2096L121.173 39.5711H121.318L123.465 33.2096H125.394V40.5895H124.219V34.538H124.074L122.014 40.5895H120.418L118.373 34.538H118.228V40.5895H117.067V33.2096H119.04Z" fill="#D5D5D5"/>
<path d="M108.175 36.8848C108.175 36.2797 108.262 35.7335 108.465 35.2465C108.653 34.7742 108.915 34.3609 109.263 34.0362C109.596 33.7115 110.003 33.4458 110.467 33.2687C110.931 33.0916 111.453 33.003 112.005 33.003C112.556 33.003 113.064 33.0916 113.528 33.2687C113.992 33.4458 114.398 33.7115 114.746 34.0362C115.08 34.3609 115.341 34.7742 115.544 35.2465C115.733 35.7335 115.834 36.2797 115.834 36.8848C115.834 37.5342 115.733 38.0951 115.544 38.5822C115.341 39.0693 115.08 39.4825 114.746 39.8072C114.398 40.132 113.992 40.3829 113.528 40.5452C113.064 40.7223 112.556 40.7961 112.005 40.7961C111.453 40.7961 110.931 40.7223 110.467 40.5452C110.003 40.3829 109.596 40.132 109.263 39.8072C108.915 39.4825 108.653 39.0693 108.465 38.5822C108.262 38.0951 108.175 37.5342 108.175 36.8848ZM114.587 36.9143C114.587 36.4273 114.514 35.9992 114.369 35.645C114.224 35.2908 114.036 35.0103 113.803 34.7742C113.571 34.538 113.296 34.3757 112.991 34.2576C112.672 34.1543 112.353 34.0952 112.005 34.0952C111.656 34.0952 111.323 34.1543 111.018 34.2576C110.699 34.3757 110.423 34.538 110.191 34.7742C109.959 35.0103 109.77 35.2908 109.625 35.645C109.48 35.9992 109.422 36.4273 109.422 36.9143C109.422 37.4162 109.48 37.8294 109.625 38.1837C109.77 38.5379 109.959 38.8183 110.191 39.0397C110.423 39.2759 110.699 39.4382 111.018 39.5416C111.323 39.6596 111.656 39.7039 112.005 39.7039C112.353 39.7039 112.672 39.6596 112.991 39.5416C113.296 39.4382 113.571 39.2759 113.803 39.0397C114.036 38.8183 114.224 38.5379 114.369 38.1837C114.514 37.8294 114.587 37.4162 114.587 36.9143Z" fill="#D5D5D5"/>
<path d="M105.151 38.2722C104.977 37.9623 104.789 37.7409 104.615 37.608C104.426 37.49 104.179 37.4162 103.875 37.4162H102.83V40.5895H101.583V33.2096H102.83V36.3239H103.875C104.179 36.3239 104.441 36.2649 104.658 36.1468C104.861 36.0287 105.05 35.8073 105.195 35.4531L106.138 33.2096H107.487L106.515 35.4088C106.399 35.6597 106.298 35.8664 106.196 36.0287C106.094 36.1911 105.993 36.3239 105.891 36.4125C105.79 36.5158 105.688 36.5896 105.572 36.6339C105.456 36.6929 105.34 36.7225 105.195 36.7372V36.9438C105.5 37.0029 105.746 37.1357 105.935 37.3571C106.123 37.5785 106.327 37.8737 106.559 38.2575L107.893 40.5895H106.399L105.151 38.2722Z" fill="#D5D5D5"/>
<path d="M92.1098 40.7961C91.7906 40.7961 91.486 40.7666 91.1958 40.6781C90.9057 40.6043 90.6446 40.4862 90.4415 40.3091C90.2239 40.1467 90.0498 39.9401 89.9337 39.6744C89.8032 39.4235 89.7451 39.1135 89.7451 38.7593C89.7451 38.4936 89.8032 38.1984 89.9192 37.8737C90.0353 37.5638 90.2964 37.2686 90.6736 37.0029C91.0508 36.7372 91.5875 36.5158 92.2839 36.3387C92.9802 36.1616 93.8941 36.073 95.0402 36.073V35.8073C95.0402 35.6007 94.9967 35.3793 94.9241 35.1727C94.8516 34.966 94.7355 34.7889 94.5905 34.6266C94.4309 34.4642 94.2278 34.3314 93.9667 34.2428C93.7056 34.1543 93.4009 34.0952 93.0527 34.0952C92.3709 34.0952 91.8632 34.2576 91.5295 34.5823C91.1958 34.907 91.0363 35.3203 91.0363 35.8221H89.7887C89.7887 35.3498 89.8757 34.9218 90.0643 34.5675C90.2384 34.2133 90.485 33.9329 90.7896 33.6967C91.0798 33.4605 91.428 33.2982 91.8196 33.1801C92.1968 33.062 92.603 33.003 93.0092 33.003C93.604 33.003 94.1117 33.0768 94.5325 33.2244C94.9386 33.372 95.2868 33.5786 95.5479 33.8443C95.8091 34.11 95.9977 34.4347 96.1137 34.7889C96.2298 35.1579 96.2878 35.5564 96.2878 35.9992V37.9328C96.2878 38.3017 96.2878 38.6117 96.3023 38.8774C96.3168 39.1431 96.3458 39.3792 96.3748 39.5858C96.4039 39.7925 96.4329 39.9844 96.4764 40.132C96.5054 40.2943 96.5489 40.4419 96.5924 40.5895H95.3158C95.2288 40.3976 95.1708 40.1615 95.1417 39.8958C95.1127 39.6301 95.0837 39.394 95.0837 39.1873H94.9241C94.692 39.6449 94.3294 40.0286 93.8361 40.3386C93.3429 40.6485 92.7626 40.7961 92.1098 40.7961ZM92.2839 39.7334C92.661 39.7334 93.0092 39.6744 93.3574 39.5416C93.691 39.4087 93.9812 39.2316 94.2278 39.0102C94.4744 38.8036 94.6775 38.5674 94.8226 38.3017C94.9677 38.0361 95.0402 37.7704 95.0402 37.5047V36.9881C94.2278 37.0176 93.575 37.0767 93.0527 37.1652C92.5305 37.2686 92.1243 37.4014 91.8196 37.549C91.515 37.6966 91.2974 37.8737 91.1813 38.0803C91.0653 38.287 91.0072 38.4936 91.0072 38.7003C91.0072 39.0545 91.1233 39.3202 91.3699 39.4825C91.602 39.6596 91.9067 39.7334 92.2839 39.7334Z" fill="#D5D5D5"/>
<path d="M88.4437 33.2096V40.5895H87.1961V34.3019H83.3082V40.5895H82.0606V33.2096H88.4437Z" fill="#D5D5D5"/>
<path d="M80.411 33.2096V40.5895H79.1634V34.3019H75.2755V40.5895H74.0279V33.2096H80.411Z" fill="#D5D5D5"/>
<path d="M68.4388 40.5895L65.6969 33.2096H67.0171L69.2657 39.4973H69.4688L71.6883 33.2096H73.0085L69.2657 43.2463H68.0181L69.0626 40.5895H68.4388Z" fill="#D5D5D5"/>
<path d="M59.0371 33.2096L59.1096 34.538H59.2837C59.6029 33.9771 59.9945 33.5786 60.4733 33.3425C60.9375 33.1211 61.4598 33.003 62.011 33.003C62.4898 33.003 62.9395 33.0916 63.3602 33.2687C63.7664 33.4458 64.129 33.6967 64.4337 34.0214C64.7238 34.3609 64.9559 34.7742 65.13 35.2465C65.3041 35.7188 65.3912 36.2649 65.3912 36.8848C65.3912 37.5342 65.3041 38.0951 65.13 38.5822C64.9559 39.0693 64.7093 39.4825 64.4047 39.8072C64.0855 40.132 63.7228 40.3829 63.3021 40.5452C62.8814 40.7223 62.4172 40.7961 61.924 40.7961C61.4307 40.7961 60.952 40.6928 60.4733 40.4714C59.9945 40.25 59.6029 39.881 59.2837 39.3497H59.1096L59.1676 40.4419V43.2463H57.92V33.2096H59.0371ZM64.1436 36.9143C64.1436 36.4125 64.071 35.9845 63.955 35.6155C63.8389 35.2612 63.6648 34.9513 63.4472 34.7151C63.2296 34.479 62.9685 34.3166 62.6783 34.1985C62.3737 34.0952 62.0545 34.0362 61.7064 34.0362C61.3582 34.0362 61.0391 34.0952 60.7344 34.1838C60.4153 34.2871 60.1541 34.4494 59.922 34.6708C59.6899 34.907 59.5013 35.2022 59.3707 35.5564C59.2257 35.9254 59.1676 36.383 59.1676 36.9143C59.1676 37.4457 59.2257 37.9032 59.3707 38.2575C59.5013 38.6117 59.6899 38.9069 59.922 39.1283C60.1541 39.3644 60.4153 39.5268 60.7344 39.6154C61.0391 39.7187 61.3582 39.763 61.7064 39.763C62.0545 39.763 62.3737 39.7187 62.6783 39.6006C62.9685 39.4973 63.2296 39.3349 63.4472 39.0988C63.6648 38.8626 63.8389 38.5674 63.955 38.2132C64.071 37.859 64.1436 37.4162 64.1436 36.9143Z" fill="#D5D5D5"/>
<path d="M56.8096 33.2096V34.3019H52.8492V40.5895H51.6016V33.2096H56.8096Z" fill="#D5D5D5"/>
<path d="M119.81 14.022C119.81 12.7526 119.636 11.6014 119.288 10.5682C118.94 9.53499 118.446 8.64941 117.808 7.91142C117.141 7.20295 116.328 6.64208 115.342 6.22881C114.356 5.84505 113.224 5.63842 111.947 5.63842C110.671 5.63842 109.539 5.84505 108.553 6.22881C107.566 6.64208 106.725 7.20295 106.087 7.91142C105.419 8.64941 104.926 9.53499 104.578 10.5682C104.23 11.6014 104.085 12.7526 104.085 14.022C104.085 15.0847 104.23 16.0883 104.52 17.092C104.81 18.0956 105.245 19.0108 105.883 19.7783C106.522 20.5753 107.334 21.2247 108.321 21.697C109.307 22.1693 110.526 22.4055 111.947 22.4055C113.34 22.4055 114.559 22.1693 115.545 21.697C116.532 21.2247 117.344 20.5753 117.982 19.7783C118.621 19.0108 119.085 18.0956 119.375 17.092C119.665 16.0883 119.81 15.0847 119.81 14.022ZM101.473 14.022C101.473 12.5755 101.705 11.1881 102.17 9.88923C102.634 8.59037 103.301 7.43911 104.201 6.46496C105.071 5.49082 106.174 4.72331 107.479 4.13292C108.785 3.57205 110.265 3.27686 111.947 3.27686C113.601 3.27686 115.081 3.57205 116.386 4.13292C117.692 4.72331 118.795 5.49082 119.694 6.46496C120.564 7.43911 121.261 8.59037 121.725 9.88923C122.189 11.1881 122.421 12.5755 122.421 14.022C122.421 15.4979 122.189 16.8558 121.754 18.1547C121.29 19.4535 120.623 20.6048 119.752 21.579C118.882 22.5531 117.779 23.3206 116.474 23.911C115.168 24.5014 113.659 24.7671 111.947 24.7671C110.206 24.7671 108.698 24.5014 107.392 23.911C106.087 23.3206 104.984 22.5531 104.114 21.579C103.243 20.6048 102.576 19.4535 102.141 18.1547C101.676 16.8558 101.473 15.4979 101.473 14.022Z" fill="#D5D5D5"/>
<path d="M86.6492 3.69013V21.4314H86.9683L95.1793 3.69013H98.9511V24.3538H96.3398V6.78968H96.0497L87.8387 24.3538H84.0379V3.69013H86.6492Z" fill="#D5D5D5"/>
<path d="M73.8032 3.69013C74.9638 3.69013 76.0083 3.86725 76.9367 4.16244C77.8652 4.45764 78.6485 4.90043 79.2868 5.49082C79.9252 6.08121 80.4474 6.78968 80.7956 7.61622C81.1437 8.47229 81.3468 9.44643 81.3468 10.5091C81.3468 11.5128 81.1728 12.4279 80.8246 13.284C80.4764 14.14 80.0122 14.878 79.3739 15.4979C78.7356 16.1474 77.9522 16.6492 77.0238 17.0034C76.0953 17.3577 75.0218 17.5348 73.8612 17.5348H69.4221V24.3538H66.8108V3.69013H73.8032ZM69.4221 6.05169V15.1732H74.0643C75.428 15.1732 76.5595 14.7895 77.43 13.9629C78.3004 13.1364 78.7356 11.9851 78.7356 10.5091C78.7356 9.03316 78.3004 7.94094 77.488 7.17343C76.6466 6.43544 75.457 6.05169 73.9483 6.05169H69.4221Z" fill="#D5D5D5"/>
<path d="M48.5986 6.05169V3.69013H64.4403V6.05169H57.8251V24.3538H55.2138V6.05169H48.5986Z" fill="#D5D5D5"/>
<path d="M28.0207 22.5086C28.8318 22.5086 29.4955 21.8333 29.4955 21.0081V19.5076C29.4955 18.6824 28.8318 18.0072 28.0207 18.0072C27.2096 18.0072 26.5459 18.6824 26.5459 19.5076V21.0081C26.5459 21.8333 27.2096 22.5086 28.0207 22.5086ZM7.24114 6.75365C8.96662 6.75365 10.4414 7.92401 10.8986 9.52951C10.3972 10.0397 9.98422 10.6249 9.64502 11.255H7.5066C6.49356 11.255 5.52201 10.8456 4.80569 10.1168C4.08936 9.388 3.68693 8.39953 3.68693 7.36884V7.06875C3.68693 6.88869 3.81966 6.75365 3.99664 6.75365H7.24114ZM19.1721 30.0109C19.1721 30.4088 19.0167 30.7905 18.7401 31.0719C18.4635 31.3533 18.0884 31.5114 17.6973 31.5114C17.3062 31.5114 16.931 31.3533 16.6545 31.0719C16.3779 30.7905 16.2225 30.4088 16.2225 30.0109C16.2225 29.6129 16.3779 29.2313 16.6545 28.9499C16.931 28.6685 17.3062 28.5104 17.6973 28.5104C18.0884 28.5104 18.4635 28.6685 18.7401 28.9499C19.0167 29.2313 19.1721 29.6129 19.1721 30.0109ZM26.5459 31.5114C26.9371 31.5114 27.3122 31.3533 27.5888 31.0719C27.8653 30.7905 28.0207 30.4088 28.0207 30.0109C28.0207 29.6129 27.8653 29.2313 27.5888 28.9499C27.3122 28.6685 26.9371 28.5104 26.5459 28.5104C26.1548 28.5104 25.7797 28.6685 25.5031 28.9499C25.2265 29.2313 25.0712 29.6129 25.0712 30.0109C25.0712 30.4088 25.2265 30.7905 25.5031 31.0719C25.7797 31.3533 26.1548 31.5114 26.5459 31.5114Z" fill="#D5D5D5"/>
<path d="M17.917 0.147088L17.9023 0.15459C17.4613 0.333146 17.0086 0.559716 16.5602 0.874814C14.6991 2.1277 13.5222 3.94777 13.3098 6.07994C12.628 5.12812 11.7352 4.35338 10.7037 3.81865C9.67232 3.28392 8.53147 3.00429 7.37387 3.00248H2.21216C1.62546 3.00248 1.06279 3.2396 0.647927 3.66169C0.233066 4.08378 0 4.65626 0 5.25318V7.50388C0 9.49362 0.776887 11.4019 2.15976 12.8088C2.84448 13.5055 3.65737 14.0581 4.55201 14.4351C5.44665 14.8122 6.40552 15.0062 7.37387 15.0062V27.1255C6.43851 28.6206 5.92808 30.35 5.8991 32.1221C5.86615 34.6672 6.81248 37.1246 8.53604 38.9696C10.2596 40.8146 12.6238 41.9009 15.1238 41.9966C16.0341 42.9472 17.1223 43.7026 18.3241 44.2184C19.526 44.7343 20.8172 45 22.1216 45C23.426 45 24.7172 44.7343 25.9191 44.2184C27.1209 43.7026 28.2091 42.9472 29.1194 41.9966C31.6194 41.9009 33.9836 40.8146 35.7072 38.9696C37.4307 37.1246 38.3771 34.6672 38.3441 32.1221C38.3162 30.3479 37.8057 28.6164 36.8693 27.1195V15.0062C38.825 15.0062 40.7006 14.2158 42.0835 12.8088C43.4663 11.4019 44.2432 9.49362 44.2432 7.50388V5.25318C44.2432 4.65626 44.0101 4.08378 43.5953 3.66169C43.1804 3.2396 42.6178 3.00248 42.0311 3.00248H36.8693C35.1323 3.00346 33.4519 3.63078 32.1265 4.77303C31.6413 3.21254 30.6134 1.85462 29.1563 0.874814C28.7373 0.584535 28.2876 0.342952 27.8157 0.15459L27.801 0.147088C26.0652 -0.535625 24.5034 1.28894 25.2319 2.93045L25.2363 2.94246L25.2422 2.95446C25.7112 3.95978 25.8071 4.96959 25.4575 6.00341H20.5289C20.4855 5.78135 20.4476 5.55821 20.4153 5.3342C20.3423 4.85626 20.3092 4.37288 20.3165 3.88925C20.3312 3.41961 20.402 3.11651 20.4772 2.95446L20.4831 2.94246L20.4876 2.93045C21.2161 1.28894 19.6528 -0.535625 17.917 0.147088ZM15.4851 9.00435H23.5964L25.6316 11.075C26.391 11.8466 27.2925 12.4585 28.2844 12.8756C29.2764 13.2926 30.3394 13.5068 31.4127 13.5058H33.8711L33.8888 13.6708C33.9095 13.8659 33.9198 14.0609 33.9198 14.256V26.2507C32.3619 25.2664 30.5624 24.75 28.7286 24.7608H20.6468V22.6886C20.6468 18.8174 18.6411 14.9012 15.4851 12.7555C13.9101 11.6827 10.3234 12.0053 10.3234 12.0053H7.37387C6.20047 12.0053 5.07512 11.531 4.2454 10.6869C3.41568 9.84268 2.94955 8.69773 2.94955 7.50388V6.00341H7.37387C8.2332 6.00297 9.07407 6.25715 9.79376 6.73491C10.5134 7.21267 11.0808 7.89333 11.4265 8.69375L12.0238 10.0772L13.3791 9.45899C14.0428 9.1589 14.7595 9.00285 15.4851 9.00435ZM15.4851 39.0137C14.6052 39.0138 13.7341 38.8359 12.9224 38.4903C12.1107 38.1447 11.3747 37.6383 10.7571 37.0006C10.1396 36.363 9.65281 35.6067 9.32517 34.7759C8.99753 33.945 8.83554 33.0562 8.84864 32.1611C8.86632 30.8115 9.2865 29.4991 10.0535 28.3979L10.1568 28.2493C11.5224 27.007 13.4603 26.2237 15.6341 26.2612H28.7301C30.8567 26.2552 32.7488 27.0295 34.0879 28.2463L34.1897 28.3934C34.9566 29.4962 35.3783 30.8091 35.3946 32.1611C35.4077 33.0562 35.2457 33.945 34.918 34.7759C34.5904 35.6067 34.1036 36.363 33.4861 37.0006C32.8685 37.6383 32.1325 38.1447 31.3208 38.4903C30.5091 38.8359 29.638 39.0138 28.7581 39.0137H15.4851ZM17.8861 40.5142H26.3454C25.3514 41.3065 24.1617 41.8042 22.9074 41.9525C21.6531 42.1007 20.383 41.8938 19.2369 41.3544C18.7566 41.1278 18.3033 40.8458 17.8861 40.5142ZM36.8693 12.0053H34.9344C34.836 11.7491 34.7237 11.4987 34.5982 11.255H36.7366C37.7496 11.255 38.7212 10.8456 39.4375 10.1168C40.1539 9.388 40.5563 8.39952 40.5563 7.36884V7.06874C40.5563 6.88869 40.4235 6.75365 40.2466 6.75365H37.0021C35.2766 6.75365 33.8018 7.92401 33.3446 9.52951C33.3584 9.54352 33.3702 9.55802 33.38 9.57302C33.1641 9.35424 32.9351 9.14928 32.6943 8.95933L32.8093 8.68925C33.1562 7.8885 33.725 7.20799 34.4461 6.73097C35.1671 6.25396 36.0092 6.00113 36.8693 6.00341H41.2937V7.50388C41.2937 8.69773 40.8275 9.84268 39.9978 10.6869C39.1681 11.531 38.0427 12.0053 36.8693 12.0053ZM14.7477 21.0081V19.5076C14.7477 18.6824 15.4114 18.0072 16.2225 18.0072C17.0336 18.0072 17.6973 18.6824 17.6973 19.5076V21.0081C17.6973 21.8333 17.0336 22.5086 16.2225 22.5086C15.4114 22.5086 14.7477 21.8333 14.7477 21.0081Z" fill="#D5D5D5"/>
</svg>
