<svg width="50" height="50" viewBox="0 0 50 50" fill="none" xmlns="http://www.w3.org/2000/svg">
<path d="M4.33594 28.5656C4.33594 28.5206 4.33594 28.4711 4.33594 28.4262C4.33594 25.1521 7.02982 22.4582 10.3039 22.4582C13.5779 22.4582 16.2718 25.1521 16.2718 28.4262C16.2718 28.4621 16.2718 28.4936 16.2718 28.5296M28.401 28.5251C28.401 28.4891 28.401 28.4576 28.401 28.4217C28.401 25.1476 25.7071 22.4537 22.4331 22.4537C19.159 22.4537 16.4652 25.1476 16.4652 28.4217C16.4652 28.4666 16.4652 28.5161 16.4652 28.5611M45.041 28.5251C45.041 28.4891 45.041 28.4576 45.041 28.4217C45.041 25.1476 42.3471 22.4537 39.0731 22.4537C35.7991 22.4537 33.1052 25.1476 33.1052 28.4217C33.1052 28.4666 33.1052 28.5161 33.1052 28.5611" stroke="#969696" stroke-width="1.25" stroke-linecap="round" stroke-linejoin="round"/>
<path d="M8.131 22.8674C6.51647 21.842 6.42652 19.3955 6.66038 18.0283C8.08603 17.8529 12.1066 18.1003 12.4709 22.8674M12.9881 23.0968C14.6971 21.7926 14.7465 19.0132 14.4542 18.1543C13.4333 18.0103 11.3826 18.1408 10.5326 18.9368M24.5956 22.8674C24.2313 18.1003 20.2108 17.8529 18.7851 18.0283C18.5513 19.3955 18.6412 21.842 20.2557 22.8674M25.1083 23.0968C26.8173 21.7926 26.8668 19.0132 26.5744 18.1543C25.5536 18.0103 23.5028 18.1408 22.6528 18.9368M41.2626 22.8674C40.8984 18.1003 36.8778 17.8529 35.4521 18.0283C35.2183 19.3955 35.3082 21.842 36.9227 22.8674M41.7753 23.0968C43.4843 21.7926 43.5338 19.0132 43.2414 18.1543C42.2206 18.0103 40.1698 18.1408 39.3198 18.9368" stroke="#969696" stroke-width="1.25" stroke-linecap="round" stroke-linejoin="round"/>
<path d="M4.33552 35.8197V40.1866M45.0406 35.8197V40.1866M46.9475 35.8197H2.64453V28.5386H46.9475V35.8197ZM46.9475 40.1866H2.64453V47.4677H46.9475V40.1866Z" stroke="#1C1C1C" stroke-width="1.25" stroke-linecap="round" stroke-linejoin="round"/>
<path d="M30.6266 15.0286V28.5385M39.9675 15.0286H21.2812V2.21582H39.9675V15.0286Z" stroke="#1C1C1C" stroke-width="1.25" stroke-linecap="round" stroke-linejoin="round"/>
<path d="M26.4805 7.32458H34.9264M26.4805 10.1489H34.9264" stroke="#1C1C1C" stroke-width="1.25" stroke-linecap="round" stroke-linejoin="round"/>
</svg>
