<svg width="50" height="50" viewBox="0 0 50 50" fill="none" xmlns="http://www.w3.org/2000/svg"><path d="M20.733 48.225l10.215-20.652m-.99-15.36l-8.555 17.294a4.473 4.473 0 00-.165 3.615l3.056 7.914m-.604-16.152l3.768 9.754m-.273-16.82l3.767 9.755M24.29 41.036l8.394-2.881c1.25-.427 2.268-1.307 2.83-2.446l8.554-17.294M37.8 31.09l-10.347 3.552m13.84-10.617l-10.345 3.553m5.55-17.686l-6.95 14.049m12.199-11.742l-6.951 14.05" stroke="#000" stroke-width="1.25" stroke-linecap="round" stroke-linejoin="round"/><path d="M16.06 42.392l-.898-22.628M6.566 6.59l.752 18.952c.049 1.246.645 2.421 1.65 3.27l6.774 5.703M7.119 20.48l8.345 7.028M6.811 12.74l8.346 7.028m7.525-13.7l.552 13.886-7.77 7.55m.284 7.01l2.656-2.58m4.522-19.72l-7.77 7.55m-3.71-18.011l.61 15.391m5.376-15.586l.61 15.392" stroke="#969696" stroke-width="1.25" stroke-linecap="round" stroke-linejoin="round"/></svg>.9349M22.9259 12.214L15.1566 19.7639M11.4453 1.75273L12.0557 17.1442M17.4322 1.55835L18.0426 16.9498" stroke="#969696" stroke-width="1.25" stroke-linecap="round" stroke-linejoin="round"/>
</svg>
