<svg width="50" height="50" viewBox="0 0 50 50" fill="none" xmlns="http://www.w3.org/2000/svg">
<path d="M41.2503 20L25.2253 25.4576L2.30859 17.7419V14.8747L25.2253 8.18335L48.1419 14.8747V17.7419L44.7651 18.8809M12.5406 25.0977V30.3416C12.5406 30.3416 17.0834 34.85 25.2643 34.85C33.4452 34.85 37.2822 30.3416 37.2822 30.3416V21.4" stroke="#1C1C1C" stroke-width="1.5" stroke-linecap="round" stroke-linejoin="round"/>
<path d="M25.6416 14.8501L41.3317 18.9713V32.1598M40.2317 36.8501L38.7933 42.3501H41.3841H43.9226L42.4841 36.8501M41.3841 32.1942C39.9537 32.1942 38.7933 33.2942 38.7933 34.6501C38.7933 36.006 39.9537 37.106 41.3841 37.106C42.8145 37.106 43.9749 36.006 43.9749 34.6501C43.9749 33.2942 42.8145 32.1942 41.3841 32.1942Z" stroke="#969696" stroke-width="1.5" stroke-linecap="round" stroke-linejoin="round"/>
</svg>
