<svg width="50" height="50" viewBox="0 0 50 50" fill="none" xmlns="http://www.w3.org/2000/svg">
<path d="M39.6182 8.01955L45.0805 8.07917C41.173 18.2012 33.4634 24.5624 25.098 24.5624C16.7325 24.5624 8.98626 18.1782 5.08789 8.01955H10.3346M20.4566 33.6616C22.1031 31.9372 23.0662 29.2909 23.0662 26.4978C23.0662 25.6998 22.9883 24.9018 22.8323 24.1313M27.3361 24.1267C27.1802 24.8972 27.1022 25.6952 27.1022 26.4932C27.1022 29.2863 28.0653 31.9326 29.7118 33.657M35.6969 37.5325H22.6993M14.3385 2.2041C14.3247 2.66732 14.3156 3.13054 14.3156 3.59375C14.3156 15.0962 19.1816 24.5624 25.0934 24.5624C31.0051 24.5624 35.8712 15.0962 35.8712 3.59375C35.8712 3.1443 35.862 2.69942 35.8483 2.24996L14.3339 2.2041H14.3385ZM31.9316 33.68H18.1772C17.9387 35.6521 16.4069 37.2252 14.4531 37.5233V47.3793H35.6969V37.5279C33.7248 37.2435 32.1746 35.6658 31.9362 33.68H31.9316Z" stroke="#1C1C1C" stroke-width="1.25" stroke-linecap="round" stroke-linejoin="round"/>
<path d="M20.4551 42.5223H29.7148" stroke="#969696" stroke-width="1.25" stroke-linecap="round" stroke-linejoin="round"/>
</svg>
