<svg width="50" height="50" viewBox="0 0 50 50" fill="none" xmlns="http://www.w3.org/2000/svg"><path d="M35.375 21.238a4.588 4.588 0 01-6.484 0 4.587 4.587 0 010-6.484 4.588 4.588 0 016.484 0 4.587 4.587 0 010 6.484zM13.258 36.867L5.05 45.08m11.666-4.751l-3.903 3.905M5.89 37.318l3.903-3.906" stroke="#969696" stroke-width="1.25" stroke-linecap="round" stroke-linejoin="round"/><path d="M35.72 4.505l9.902 9.894M24.703 39.157s1.04 4.836-.395 8.422c4.412-3.218 9.301-8.336 9.777-14.226M16.788 16.07c-5.89.47-11.017 5.36-14.238 9.77 3.584-1.44 8.43-.396 8.43-.396m1.98 4.225C30.08-2.695 47.17 2.958 47.17 2.958s5.658 17.077-26.733 34.181l-3.74-3.738-3.742-3.737.006.005z" stroke="#1C1C1C" stroke-width="1.25" stroke-linecap="round" stroke-linejoin="round"/></svg>10.8979 16.5407 5.77104 21.4306 2.5498 25.8392C6.13376 24.4003 10.9791 25.4443 10.9791 25.4443M12.9606 29.669C30.0792 -2.69473 47.1706 2.95796 47.1706 2.95796C47.1706 2.95796 52.8281 20.0351 20.4371 37.1392L16.6962 33.4014L12.9552 29.6636L12.9606 29.669Z" stroke="#1C1C1C" stroke-width="1.25" stroke-linecap="round" stroke-linejoin="round"/>
</svg>
