<svg width="50" height="50" viewBox="0 0 50 50" fill="none" xmlns="http://www.w3.org/2000/svg">
<path d="M16.4059 39.3226C16.4059 39.3226 22.4387 33.6048 30.1208 36.724M36.2935 37.7214C32.7412 36.8771 30.8776 37.7214 30.8776 37.7214M13.593 32.9179C11.9262 30.8618 8.34766 31.6099 8.34766 31.6099" stroke="#969696" stroke-width="1.5" stroke-linecap="round" stroke-linejoin="round"/>
<path d="M13.8996 31.8023C13.8996 31.8023 13.0421 36.1464 10.2073 38.4125C5.67503 29.5187 10.0367 13.7127 8.78985 4.30701M12.6659 25.5508C12.6659 25.5508 14.1008 36.8901 18.7161 43.5529C19.8186 45.1453 21.6604 46.0596 23.594 46.0596H38.7569C39.2118 46.0596 39.3956 45.469 39.015 45.2153C36.5039 43.5179 31.0354 39.3137 27.8812 33.0885M27.5444 4.64824C27.5444 8.55926 25.3701 18.5512 28.2793 25.5508C31.4248 33.1147 37.965 39.7687 41.4605 42.971C41.8629 43.3385 41.5436 44.0166 41.0011 44.0166H37.3569" stroke="#1C1C1C" stroke-width="1.5" stroke-linecap="round" stroke-linejoin="round"/>
</svg>
