<svg width="32" height="32" viewBox="0 0 32 32" fill="none" xmlns="http://www.w3.org/2000/svg">
<path d="M8.87957 15.023C9.13514 14.6007 9.27981 13.8977 8.8 13.6M5.11986 19.4442C5.44777 18.9047 5.37785 18.3531 5.05235 18.0406M3.47549 14.4476C3.48513 13.9472 3.38628 13.3419 2.96433 12.9977M11.7333 11.4666C12.0926 10.7734 11.7285 9.75066 11.2246 9.39672M15.0521 10.1333C9.19195 7.25269 3.1702 12.1633 1.88898 14.2792C0.548406 16.4931 1.03063 19.2684 3.2175 20.628C3.9648 21.0922 5.32197 21.2305 6.55301 21.2083" stroke="#969696" stroke-linecap="round" stroke-linejoin="round"/>
<path d="M13.3838 17.5239C13.3838 18.5886 13.95 19.1745 14.4724 19.3126M20.0605 16.8141C20.0605 17.5382 20.4034 18.5266 21.209 18.5266M22.728 9.24223C22.728 10.1664 23.2205 10.8 23.8465 10.9381M28.4196 14.1917C28.7763 14.8229 29.3448 15.4993 30.1112 15.6017M20.3436 22.2113C20.4172 23.3522 21.6186 24.3431 22.4932 24.3955M8.07883 19.265C8.07883 16.0257 13.1145 14.9777 15.3654 12.5554C17.6163 10.133 20.507 6.2959 24.1733 6.2959C27.8396 6.2959 30.4772 9.38038 30.4772 13.1746C30.4772 16.9689 26.9006 25.4959 16.6635 25.4959C7.61853 25.4959 8.08113 19.265 8.08113 19.265H8.07883Z" stroke="#1C1C1C" stroke-linecap="round" stroke-linejoin="round"/>
</svg>
