<svg width="26" height="16" viewBox="0 0 26 16" fill="none" xmlns="http://www.w3.org/2000/svg">
<path d="M5.17522 15.2491C4.30122 15.2491 3.53455 15.1495 2.87522 14.9501C2.23122 14.7508 1.67922 14.4978 1.21922 14.1911C0.759219 13.8845 0.352885 13.5778 0.000218812 13.2711L0.575219 12.5581C0.912552 12.8648 1.28822 13.1561 1.70222 13.4321C2.11622 13.7081 2.59922 13.9305 3.15122 14.0991C3.71855 14.2678 4.39322 14.3521 5.17522 14.3521C5.94189 14.3521 6.63955 14.1911 7.26822 13.8691C7.91222 13.5318 8.42589 13.0641 8.80922 12.4661C9.19255 11.8681 9.38422 11.1781 9.38422 10.3961C9.38422 9.21548 9.01622 8.28781 8.28022 7.61314C7.54422 6.93848 6.52455 6.60114 5.22122 6.60114C4.54655 6.60114 3.96389 6.69314 3.47322 6.87714C2.98255 7.04581 2.46889 7.28348 1.93222 7.59014L1.21922 7.15314L1.77122 0.276143H9.68322V1.17314H2.69122L2.20822 6.48614C2.68355 6.25614 3.16655 6.07214 3.65722 5.93414C4.14789 5.78081 4.72289 5.70414 5.38222 5.70414C6.34822 5.70414 7.21455 5.87281 7.98122 6.21014C8.74789 6.53214 9.34589 7.03814 9.77522 7.72814C10.2199 8.40281 10.4422 9.27681 10.4422 10.3501C10.4422 11.3928 10.1892 12.2821 9.68322 13.0181C9.19255 13.7541 8.54089 14.3138 7.72822 14.6971C6.93089 15.0651 6.07989 15.2491 5.17522 15.2491Z" fill="#111111"/>
<path d="M16.0912 7.47514C15.4932 7.47514 14.9642 7.32948 14.5042 7.03814C14.0442 6.74681 13.6762 6.31748 13.4002 5.75014C13.1396 5.16748 13.0092 4.47748 13.0092 3.68014C13.0092 2.48414 13.2929 1.57181 13.8602 0.943144C14.4429 0.314477 15.1866 0.000144005 16.0912 0.000144005C17.0112 0.000144005 17.7549 0.314477 18.3222 0.943144C18.8896 1.57181 19.1732 2.48414 19.1732 3.68014C19.1732 4.47748 19.0352 5.16748 18.7592 5.75014C18.4986 6.31748 18.1382 6.74681 17.6782 7.03814C17.2182 7.32948 16.6892 7.47514 16.0912 7.47514ZM16.0912 6.73914C16.7199 6.73914 17.2412 6.47848 17.6552 5.95714C18.0692 5.42048 18.2762 4.66148 18.2762 3.68014C18.2762 2.68348 18.0692 1.94748 17.6552 1.47214C17.2412 0.981477 16.7199 0.736144 16.0912 0.736144C15.4779 0.736144 14.9566 0.981477 14.5272 1.47214C14.1132 1.94748 13.9062 2.68348 13.9062 3.68014C13.9062 4.66148 14.1132 5.42048 14.5272 5.95714C14.9566 6.47848 15.4779 6.73914 16.0912 6.73914ZM13.9062 14.1681L13.1702 13.5241L17.3332 8.99314L17.8392 9.45314L13.9062 14.1681ZM21.1972 5.79614L20.6912 5.33614L24.6242 0.621144L25.3602 1.26514L21.1972 5.79614ZM22.4392 15.2491C21.8412 15.2491 21.3122 15.1035 20.8522 14.8121C20.3922 14.5208 20.0242 14.0915 19.7482 13.5241C19.4876 12.9415 19.3572 12.2515 19.3572 11.4541C19.3572 10.2581 19.6409 9.34581 20.2082 8.71714C20.7909 8.08848 21.5346 7.77414 22.4392 7.77414C23.3592 7.77414 24.1029 8.08848 24.6702 8.71714C25.2376 9.34581 25.5212 10.2581 25.5212 11.4541C25.5212 12.2515 25.3832 12.9415 25.1072 13.5241C24.8466 14.0915 24.4862 14.5208 24.0262 14.8121C23.5662 15.1035 23.0372 15.2491 22.4392 15.2491ZM22.4392 14.5131C23.0679 14.5131 23.5892 14.2525 24.0032 13.7311C24.4172 13.1945 24.6242 12.4355 24.6242 11.4541C24.6242 10.4575 24.4172 9.72148 24.0032 9.24614C23.5892 8.75548 23.0679 8.51014 22.4392 8.51014C21.8259 8.51014 21.3046 8.75548 20.8752 9.24614C20.4612 9.72148 20.2542 10.4575 20.2542 11.4541C20.2542 12.4355 20.4612 13.1945 20.8752 13.7311C21.3046 14.2525 21.8259 14.5131 22.4392 14.5131Z" fill="#969696"/>
</svg>
