<svg width="50" height="50" viewBox="0 0 50 50" fill="none" xmlns="http://www.w3.org/2000/svg"><path d="M3.321 48.22l.87-8.932c.277-2.823 2.345-5.119 5.08-5.641 4.08-.776 9.387-1.687 9.387-3.029l.092-3.535M9.427 48.221l1.184-14.828m5.49 8.267v-9.49m31.387 16.05l-.87-8.932c-.277-2.823-2.345-5.119-5.08-5.641-4.08-.776-9.386-1.687-9.386-3.029l-.068-3.535m9.299 21.138l-1.185-14.828m-5.49-1.222v9.489m6.082 0H10.024m7.195-9.81c1.19 3.302 4.489 5.535 8.183 5.535s7.008-2.243 8.188-5.55" stroke="#1C1C1C" stroke-width="1.5" stroke-linecap="round" stroke-linejoin="round"/><path d="M35.82 17.387v1.636c0 5.54-4.663 10.031-10.416 10.031s-10.417-4.49-10.417-10.031v-1.636" stroke="#969696" stroke-width="1.5" stroke-linecap="round" stroke-linejoin="round"/><path d="M35.82 13.779s-5.322.275-10.598.275c-5.277 0-10.235-.275-10.235-.275m20.834 0v-3.626c0-4.287-3.658-7.766-8.176-7.766h-4.482c-4.513 0-8.176 3.475-8.176 7.766v3.626m20.834 0s-2.999-4.141-10.417-4.141c-7.419 0-10.417 4.14-10.417 4.14" stroke="#1C1C1C" stroke-width="1.5" stroke-linecap="round" stroke-linejoin="round"/></svg>87V10.1534C35.8206 5.86613 32.1629 2.38745 27.6445 2.38745H23.1635C18.6497 2.38745 14.9873 5.86168 14.9873 10.1534V13.7787M35.8206 13.7787C35.8206 13.7787 32.8224 9.63802 25.404 9.63802C17.9855 9.63802 14.9873 13.7787 14.9873 13.7787" stroke="#1C1C1C" stroke-width="1.5" stroke-linecap="round" stroke-linejoin="round"/>
</svg>
