<svg width="50" height="50" viewBox="0 0 50 50" fill="none" xmlns="http://www.w3.org/2000/svg"><path d="M12.706 9.85h28.153M12.706 39.171h28.153m-16.278 5.106l-3.274 2.393-3.155-2.51-3.423 2.51-3.095-2.42-3.275 2.42V2.612l3.155 2.249 3.335-2.357 3.21 2.267 3.187-2.267L24.61 4.83l3.364-2.325 3.187 2.267 3.21-2.267 3.335 2.352 3.154-2.248v44.058l-3.275-2.42-3.094 2.42-3.423-2.51-3.155 2.51-3.275-2.393h-.056v.005z" stroke="#1C1C1C" stroke-width="1.25" stroke-linecap="round" stroke-linejoin="round"/><path d="M17.473 33.338a8.54 8.54 0 016.107-2.584m0 0c2.292 0 4.285.844 5.882 2.366m-5.882-2.366c0-3.247-.642-6.073-2.266-8.331.14-6.214-5.556-5.933-7.123-5.618 0 1.285 1.395 5.114 4.36 5.962m7.37-.19c.835-4.235 5.367-4.298 8.27-2.825-1.227 3.96-6.78 5.903-8.27 2.826zm0 0s-2.526 1.227-3.102 2.826" stroke="#969696" stroke-width="1.25" stroke-linecap="round" stroke-linejoin="round"/></svg>2.7667M25.9204 22.5777C26.7563 18.3416 31.2878 18.2786 34.1914 19.752C32.964 23.7119 27.4118 25.6554 25.9204 22.5777ZM25.9204 22.5777C25.9204 22.5777 23.3951 23.8039 22.8188 25.4034" stroke="#969696" stroke-width="1.25" stroke-linecap="round" stroke-linejoin="round"/>
</svg>
