<svg width="32" height="32" viewBox="0 0 32 32" fill="none" xmlns="http://www.w3.org/2000/svg">
<path d="M10.7824 16.3004H7.50983C7.2627 16.3004 7.0624 16.1007 7.0624 15.8542V14.225C7.0624 13.9786 7.2627 13.7788 7.50983 13.7788H25.6492C25.8963 13.7788 26.0966 13.9786 26.0966 14.225V15.8542C26.0966 16.1007 25.8963 16.3004 25.6492 16.3004H14.6532M9.44265 24.2415L9.00042 16.303M9.55191 26.1769L9.68718 28.6077C9.7392 29.565 10.5326 30.3121 11.4925 30.3121H21.5988C22.5588 30.3121 23.3522 29.565 23.4042 28.6077L24.091 16.303M9.08626 18.5575C6.57854 21.24 5.64205 24.379 6.95834 25.6917C8.33967 27.0693 11.7293 25.9589 14.4659 23.2298C15.5845 22.1142 16.482 20.8404 17.0126 19.6133M17.01 19.053C16.7005 19.053 16.4507 19.302 16.4507 19.6107C16.4507 19.9195 16.7005 20.1685 17.01 20.1685C17.3196 20.1685 17.5693 19.9195 17.5693 19.6107C17.5693 19.302 17.3196 19.053 17.01 19.053Z" stroke="#1C1C1C" stroke-linecap="round" stroke-linejoin="round"/>
<path d="M23.9637 1.55164C23.9637 3.5995 22.7783 5.43542 20.9501 6.61091M11.7344 6.75138C12.6164 7.27874 13.6372 7.65579 14.7377 7.83815C14.7377 9.91312 15.4089 11.6455 16.224 11.6455C17.0391 11.6455 17.7102 9.93776 17.7102 7.86279M8.49707 1.51221C8.49707 1.52453 8.49707 1.53931 8.49707 1.55164C8.49707 3.18795 9.25562 4.6912 10.4924 5.82725C9.28133 7.54736 8.73878 9.4375 9.41247 9.87369C10.0862 10.3099 11.6418 9.25514 12.8504 7.53503M16.4503 7.95644C17.5276 7.93179 18.5536 7.71986 19.4819 7.3576C20.693 9.07771 22.3284 10.3123 23.0046 9.87369C23.6809 9.43503 23.2412 7.66072 22.0301 5.94061" stroke="#969696" stroke-linecap="round" stroke-linejoin="round"/>
</svg>
