<svg width="50" height="50" viewBox="0 0 50 50" fill="none" xmlns="http://www.w3.org/2000/svg">
<path d="M46.4332 42.1166L35.0784 47.5854C34.7251 47.7557 34.3293 47.8025 33.9463 47.7259L5.29536 41.7974C3.91218 41.5122 2.9248 40.295 2.9248 38.8863V36.2774C2.9248 34.3835 3.99304 32.6514 5.6869 31.8087L13.437 27.9358M38.4618 29.9191L46.1906 31.7193L34.9507 37.1329C33.1972 37.9755 32.0822 39.7503 32.0822 41.6952V45.0574C32.0822 45.5128 32.278 45.9426 32.6227 46.2363L34.4527 47.7557M8.50433 34.1707L32.7333 39.214M46.1863 36.9626L35.6189 42.1804" stroke="#1C1C1C" stroke-width="1.25" stroke-linecap="round" stroke-linejoin="round"/>
<path d="M26.9289 29.919C25.3116 29.919 24.32 31.0808 22.0431 31.0808C20.7578 31.0808 14.1356 26.0248 15.2847 18.2577C16.604 9.37135 22.3708 12.6399 26.9289 12.6399C31.487 12.6399 37.2538 9.37135 38.5731 18.2577C39.7265 26.0248 33.1 31.0808 31.8147 31.0808C29.5378 31.0808 28.5461 29.919 26.9289 29.919Z" stroke="#1C1C1C" stroke-width="1.25" stroke-linecap="round" stroke-linejoin="round"/>
<path d="M18.7871 18.8962C18.8807 18.1003 19.1872 17.3428 19.6723 16.7044C20.1575 16.066 20.8002 15.5681 21.5407 15.2616M27.0011 9.71615C33.9723 9.03945 33.5254 2.79175 33.5254 2.79175C31.3208 3.12371 26.4648 3.26841 26.9287 9.33311C27.0394 10.7631 25.1497 6.13691 23.7538 5.43894" stroke="#969696" stroke-width="1.25" stroke-linecap="round" stroke-linejoin="round"/>
</svg>
