<svg width="50" height="50" viewBox="0 0 50 50" fill="none" xmlns="http://www.w3.org/2000/svg">
<path d="M15.3652 13.2348V3.82326C15.3652 2.83775 16.1619 2.04114 17.1474 2.04114H34.3485C35.334 2.04114 36.1306 2.83775 36.1306 3.82326V19.4066M21.5616 39.5806H34.3485C35.334 39.5806 36.1306 38.784 36.1306 37.7985V35.5072" stroke="#1C1C1C" stroke-width="1.25" stroke-linecap="round" stroke-linejoin="round"/>
<path d="M36.1305 17.8707L41.6699 13.3867C42.4542 12.7502 42.5732 11.6005 41.9409 10.8162L41.6 10.3973C40.9636 9.61302 39.8138 9.49394 39.0295 10.1263L36.1305 12.4751M18.4243 38.012C19.4098 33.3596 17.4921 29.319 15.1803 27.6026C15.7798 26.0052 16.5847 23.4635 17.2129 21.4021C17.7878 19.5173 16.831 17.5094 15.0078 16.7702C14.4371 16.5362 13.7883 16.8318 13.5871 17.4149L9.38637 29.5818C9.38637 29.5818 7.65352 33.647 9.38637 35.3758C8.34337 36.5132 6.96777 38.1393 6.96777 38.1393M17.0117 47.2921L19.5371 44.4465C19.5371 44.4465 29.1868 44.6066 30.7841 39.5806M35.7856 22.8722L35.1902 22.133C34.6605 21.476 34.759 20.5152 35.416 19.9813L37.9496 17.9282C38.6066 17.3985 39.5674 17.4971 40.1013 18.1541L40.6967 18.8932C41.2264 19.5502 41.1278 20.5111 40.4708 21.0449L37.9373 23.098C37.2803 23.6277 36.3194 23.5292 35.7856 22.8722ZM37.851 29.0439L40.3846 26.9908C41.0416 26.461 41.1401 25.4961 40.6104 24.8391L40.015 24.0999C39.4853 23.4429 38.5203 23.3444 37.8633 23.8741L35.3298 25.9272C34.6728 26.4569 34.5742 27.4219 35.1039 28.0789L35.6993 28.818C36.2291 29.475 37.194 29.5736 37.851 29.0439ZM37.7935 35.3388L40.3271 33.2857C40.9841 32.756 41.0827 31.791 40.553 31.134L39.9575 30.3949C39.4278 29.7378 38.4629 29.6393 37.8059 30.169L35.2723 32.2221C34.6153 32.7518 34.5167 33.7168 35.0464 34.3738L35.6419 35.113C36.1716 35.77 37.1365 35.8685 37.7935 35.3388Z" stroke="#1C1C1C" stroke-width="1.25" stroke-linecap="round" stroke-linejoin="round"/>
<path d="M24.3873 17.2056C24.7856 16.8894 25.2783 16.7169 25.7875 16.7169C26.2967 16.7169 26.7894 16.8894 27.1877 17.2056M28.7029 15.1853C27.8653 14.5406 26.8428 14.1957 25.7875 14.1957C24.7322 14.1957 23.6276 14.5734 22.7776 15.2592M30.6945 12.7215C29.2943 11.6251 27.5696 11.0297 25.7916 11.0297C24.0136 11.0297 22.2561 11.6375 20.8477 12.7544" stroke="#969696" stroke-width="1.25" stroke-linecap="round" stroke-linejoin="round"/>
</svg>
