<svg width="50" height="50" viewBox="0 0 50 50" fill="none" xmlns="http://www.w3.org/2000/svg"><path d="M39.673 34.287V21.774c0-7.333-5.828-13.276-13.019-13.276H23.21c-7.19 0-13.019 5.943-13.019 13.276v12.513m6.45-23.975h-4.695c-5.698 0-10.316 4.709-10.316 10.519h5.614c1.075 0 2.257-.312 3.086-1.011m29.413.009c.83.7 1.865.992 2.94.992h5.614c0-5.81-4.618-10.518-10.315-10.518h-4.696M21.413 8.626l-1.06-5.214c-.447-2.2-3.547-2.153-3.928.06L15.25 10.31m19.463.003l-1.403-6.9c-.447-2.2-3.547-2.153-3.928.06l-.887 5.159M18.86 22.575a.554.554 0 00-.549.56c0 .308.246.559.55.559.302 0 .548-.25.548-.56a.555.555 0 00-.549-.56zm12.099 0a.554.554 0 00-.549.56c0 .308.246.559.549.559.303 0 .549-.25.549-.56a.555.555 0 00-.55-.56z" stroke="#000" stroke-width="1.25" stroke-linecap="round" stroke-linejoin="round"/><path d="M35.677 33.333H14.248c-3.748 0-6.786 3.049-6.786 6.81v2.214c0 3.76 3.038 6.81 6.786 6.81h21.429c3.747 0 6.785-3.05 6.785-6.81v-2.214c0-3.761-3.038-6.81-6.785-6.81z" stroke="#969696" stroke-width="1.25" stroke-linecap="round" stroke-linejoin="round"/><path d="M17.208 43.333h.058c1.265 0 2.304-.94 2.304-2.083 0-1.144-1.039-2.083-2.304-2.083-1.264 0-2.304.94-2.304 2.083v.01m20 0v-.01c0-1.144-1.039-2.083-2.304-2.083-1.264 0-2.303.94-2.303 2.083 0 1.144 1.039 2.083 2.303 2.083h.059" stroke="#969696" stroke-width="1.25" stroke-linecap="round" stroke-linejoin="round"/></svg>382 39.4244 33.3333 35.6768 33.3333Z" stroke="#969696" stroke-width="1.25" stroke-linecap="round" stroke-linejoin="round"/>
<path d="M17.2078 43.3334C17.2273 43.3334 17.2468 43.3334 17.2663 43.3334C18.5311 43.3334 19.5703 42.3938 19.5703 41.2501C19.5703 40.1064 18.5311 39.1667 17.2663 39.1667C16.0016 39.1667 14.9624 40.1064 14.9624 41.2501C14.9624 41.254 14.9624 41.256 14.9624 41.2599M34.9624 41.2599C34.9624 41.2599 34.9624 41.254 34.9624 41.2501C34.9624 40.1064 33.9232 39.1667 32.6585 39.1667C31.3937 39.1667 30.3545 40.1064 30.3545 41.2501C30.3545 42.3938 31.3937 43.3334 32.6585 43.3334C32.678 43.3334 32.6975 43.3334 32.717 43.3334" stroke="#969696" stroke-width="1.25" stroke-linecap="round" stroke-linejoin="round"/>
</svg>
