<svg width="50" height="50" viewBox="0 0 50 50" fill="none" xmlns="http://www.w3.org/2000/svg">
<path d="M13.8746 23.4735C14.274 22.8137 14.5 21.7153 13.7503 21.25M8.00009 30.3816C8.51245 29.5387 8.4032 28.6768 7.89461 28.1886M5.43076 22.5745C5.44583 21.7926 5.29136 20.8468 4.63208 20.309M18.3336 17.9167C18.895 16.8335 18.3261 15.2355 17.5387 14.6825M23.5191 15.8334C14.3627 11.3324 4.95374 19.0052 2.95184 22.3113C0.85719 25.7706 1.61066 30.107 5.02765 32.2314C6.1953 32.9567 8.31588 33.1728 10.2394 33.138" stroke="#1C1C1C" stroke-width="1.5" stroke-linecap="round" stroke-linejoin="round"/>
<path d="M20.9128 27.3813C20.9128 29.0448 21.7974 29.9603 22.6137 30.1762M31.3451 26.2722C31.3451 27.4036 31.8809 28.9481 33.1395 28.9481M35.513 14.4412C35.513 15.8852 36.2826 16.8751 37.2607 17.091M44.4062 22.1747C44.9636 23.1609 45.8518 24.2179 47.0493 24.3779M31.7874 34.7054C31.9025 36.4881 33.7797 38.0363 35.1462 38.1181M12.6237 30.1018C12.6237 25.0404 20.492 23.4028 24.009 19.6179C27.526 15.8331 32.0427 9.83752 37.7713 9.83752C43.4999 9.83752 47.6211 14.657 47.6211 20.5856C47.6211 26.5141 42.0327 39.8375 26.0372 39.8375C11.9045 39.8375 12.6273 30.1018 12.6273 30.1018H12.6237Z" stroke="#969696" stroke-width="1.5" stroke-linecap="round" stroke-linejoin="round"/>
</svg>
