<?xml version="1.0" encoding="utf-8"?><svg width="26" height="26" fill="none" xmlns="http://www.w3.org/2000/svg" viewBox="0 0 26 26"><path d="M20.982 5.474H6.385a3.66 3.66 0 00-3.649 3.649v9.123a3.66 3.66 0 003.65 3.649h14.596a3.66 3.66 0 003.65-3.65V9.124a3.66 3.66 0 00-3.65-3.65zm1.46 5.29L15.235 15.6c-.457.274-1.004.456-1.551.456-.548 0-1.095-.182-1.551-.456l-7.207-4.835c-.365-.274-.456-.821-.183-1.277.274-.365.821-.456 1.278-.183l7.207 4.835c.273.183.73.183 1.003 0l7.207-4.835c.456-.273 1.004-.182 1.277.274.183.365.091.912-.273 1.186z" fill="currentColor"/></svg>