<?xml version="1.0" encoding="utf-8"?><svg viewBox="0 0 24 24" xmlns="http://www.w3.org/2000/svg" xmlns:xlink="http://www.w3.org/1999/xlink"><style>:root>svg{display:none}:root>svg:target{display:block}</style><svg fill="none" viewBox="0 0 14 14" id="arrow_chevron" xmlns="http://www.w3.org/2000/svg"><path d="M11.62 5.22L7.817 9.025c-.45.45-1.185.45-1.634 0L2.38 5.221" stroke="currentColor" stroke-width="1.5" stroke-miterlimit="10" stroke-linecap="round" stroke-linejoin="round"/></svg><svg fill="none" viewBox="0 0 24 24" id="basket" xmlns="http://www.w3.org/2000/svg"><path d="M8.81 2L5.19 5.63M15.19 2l3.62 3.63" stroke="currentColor" stroke-width="1.5" stroke-miterlimit="10" stroke-linecap="round" stroke-linejoin="round"/><path d="M2 7.85c0-1.85.99-2 2.22-2h15.56c1.23 0 2.22.15 2.22 2 0 2.15-.99 2-2.22 2H4.22C2.99 9.85 2 10 2 7.85z" stroke="currentColor" stroke-width="1.5"/><path d="M9.76 14v3.55M14.36 14v3.55M3.5 10l1.41 8.64C5.23 20.58 6 22 8.86 22h6.03c3.11 0 3.57-1.36 3.93-3.24L20.5 10" stroke="currentColor" stroke-width="1.5" stroke-linecap="round"/></svg><svg fill="none" viewBox="0 0 21 21" id="telegram" xmlns="http://www.w3.org/2000/svg"><g clip-path="url(#cclip0_651_2515)"><path d="M17.64 4.523l-2.335 11.255c-.177.795-.636.992-1.289.618l-3.558-2.68-1.717 1.688c-.19.194-.348.357-.715.357l.256-3.704 6.594-6.09c.287-.261-.062-.406-.445-.145L6.279 11.07l-3.51-1.123c-.763-.244-.777-.78.159-1.155l13.727-5.405c.636-.243 1.192.145.985 1.137z" fill="currentColor"/></g><defs><clipPath id="cclip0_651_2515"><path fill="currentColor" transform="translate(2.21 3.316)" d="M0 0h15.474v13.263H0z"/></clipPath></defs></svg></svg>