<?xml version="1.0" encoding="utf-8"?><svg viewBox="0 0 120 120" xmlns="http://www.w3.org/2000/svg" xmlns:xlink="http://www.w3.org/1999/xlink"><style>:root>svg{display:none}:root>svg:target{display:block}</style><svg fill="none" viewBox="0 0 16 16" id="arrow_breadcrumbs" xmlns="http://www.w3.org/2000/svg"><path d="M9.62 3.953L13.665 8l-4.047 4.047M2.334 8h11.22" stroke="currentColor" stroke-miterlimit="10" stroke-linecap="round" stroke-linejoin="round"/></svg><svg fill="none" viewBox="0 0 14 14" id="arrow_chevron" xmlns="http://www.w3.org/2000/svg"><path d="M11.62 5.22L7.817 9.025c-.45.45-1.185.45-1.634 0L2.38 5.221" stroke="currentColor" stroke-width="1.5" stroke-miterlimit="10" stroke-linecap="round" stroke-linejoin="round"/></svg><svg fill="none" viewBox="0 0 24 24" id="arrow_link" xmlns="http://www.w3.org/2000/svg"><path d="M14.43 5.93L20.5 12l-6.07 6.07M3.5 12h16.83" stroke="currentColor" stroke-width="1.5" stroke-miterlimit="10" stroke-linecap="round" stroke-linejoin="round"/></svg><svg fill="none" viewBox="0 0 19 19" id="arrow_link_down" xmlns="http://www.w3.org/2000/svg"><path d="M1.414 1.414l16 16m0 0H3.192m14.222 0V3.192" stroke="currentColor" stroke-width="2" stroke-linecap="square"/></svg><svg fill="none" viewBox="0 0 19 19" id="arrow_link_top" xmlns="http://www.w3.org/2000/svg"><path d="M1.414 17l16-16m0 0v14.222m0-14.222H3.192" stroke="currentColor" stroke-width="2" stroke-linecap="square"/></svg><svg fill="none" viewBox="0 0 48 48" id="arrow_slider_next" xmlns="http://www.w3.org/2000/svg"><path d="M28.86 11.86L41 24 28.86 36.14M7 24h33.66" stroke="#000" stroke-width="1.5" stroke-miterlimit="10" stroke-linecap="round" stroke-linejoin="round"/></svg><svg fill="none" viewBox="0 0 48 48" id="arrow_slider_prev" xmlns="http://www.w3.org/2000/svg"><path d="M19.14 36.14L7 24l12.14-12.14M41 24H7.34" stroke="#000" stroke-width="1.5" stroke-miterlimit="10" stroke-linecap="round" stroke-linejoin="round"/></svg><svg fill="none" viewBox="0 0 24 24" id="basket" xmlns="http://www.w3.org/2000/svg"><path d="M8.81 2L5.19 5.63M15.19 2l3.62 3.63" stroke="currentColor" stroke-width="1.5" stroke-miterlimit="10" stroke-linecap="round" stroke-linejoin="round"/><path d="M2 7.85c0-1.85.99-2 2.22-2h15.56c1.23 0 2.22.15 2.22 2 0 2.15-.99 2-2.22 2H4.22C2.99 9.85 2 10 2 7.85z" stroke="currentColor" stroke-width="1.5"/><path d="M9.76 14v3.55M14.36 14v3.55M3.5 10l1.41 8.64C5.23 20.58 6 22 8.86 22h6.03c3.11 0 3.57-1.36 3.93-3.24L20.5 10" stroke="currentColor" stroke-width="1.5" stroke-linecap="round"/></svg><svg fill="none" viewBox="0 0 24 24" id="close" xmlns="http://www.w3.org/2000/svg"><path d="M5 19L19 5M19 19L5 5" stroke="currentColor" stroke-width="1.5" stroke-linecap="round" stroke-linejoin="round"/></svg><svg fill="none" viewBox="0 0 35 35" id="flag" xmlns="http://www.w3.org/2000/svg"><path d="M9.406 2.917v29.166M10.136 5.833l11.812 5.104c4.813 2.042 4.813 5.542.292 7.876l-12.104 5.979" stroke="currentColor" stroke-width="1.5" stroke-miterlimit="10" stroke-linecap="round" stroke-linejoin="round"/></svg><svg fill="none" viewBox="0 0 118 14" id="its" xmlns="http://www.w3.org/2000/svg"><path d="M.436.45h1.773v12.426H.436V.45zM9.778 2.328h-4.78V.45h12.196v1.878h-5.152v10.547h-1.857V2.329h-.407z" fill="currentColor" stroke="currentColor" stroke-width=".871"/><path d="M31.396 2.688V.042h-8.744c-2.71 0-3.752 1.576-3.752 4.12s1.496 3.735 3.753 3.735h4.245l1.362-.001c1.046 0 1.076 1.033 1.076 1.653 0 .62-.24 1.285-1.082 1.285h-9.018v2.45h9.018c2.257 0 3.752-1.192 3.752-3.735 0-2.544-1.038-4.101-3.748-4.101l-1.36-.001h-4.245c-.842 0-1.083-.666-1.083-1.285 0-.62 0-1.474 1.047-1.474h8.78z" fill="currentColor"/><path d="M54.476.443v1.892h-8.819c-.377 0-.701.02-.973.081-.276.062-.523.172-.715.371-.191.198-.29.445-.342.708-.052.257-.065.56-.065.896v4.885c0 .588.158 1.101.551 1.459.386.35.926.486 1.544.486h7.006V7.489H49.709V5.846h4.76v7.03h-9.112c-1.83 0-2.71-.335-3.152-.782-.436-.441-.543-1.088-.543-2.02v-6.53c0-1.144.129-1.864.576-2.327.448-.464 1.322-.774 3.12-.774h9.118zM59.277 8.939v3.938h-1.775V.464h8.51c1.551 0 2.455.464 2.97.975.524.52.68 1.124.68 1.452v3.516c0 .406-.145.921-.603 1.34-.458.418-1.28.783-2.718.783h-.888l.578.674 3.151 3.671H66.79L63.332 8.68l-.14-.17-.217.023c-.04.004-.142.005-.298.003-.045 0-.093 0-.142-.002a20.996 20.996 0 00-.31-.003h-2.948v.408zm.408-6.894h-.408V7.071h6.734c.802 0 1.311-.267 1.584-.704.24-.384.239-.822.239-1.033V3.559v-.011c0-.146 0-.536-.256-.887-.28-.382-.78-.616-1.567-.616h-6.326zM76.43.465h5.138c1.977 0 3.716 1.598 3.716 3.52v5.52c0 1.907-1.722 3.401-3.716 3.401h-5.137c-1.999 0-3.745-1.498-3.745-3.4v-5.52c0-1.92 1.763-3.521 3.745-3.521zm5.138 10.905c.587 0 1.08-.328 1.41-.74.332-.412.542-.954.542-1.483V4.344c0-.526-.208-1.087-.534-1.518-.324-.428-.818-.794-1.418-.794h-5.137c-.598 0-1.092.366-1.416.793-.326.43-.537.992-.537 1.519v4.803c0 .53.213 1.072.545 1.484.33.41.824.74 1.408.74h5.137zM99.277 8.62V.465h1.864v9.034c0 1.86-1.528 3.377-3.428 3.377h-5.978c-1.9 0-3.428-1.516-3.428-3.377V.459l1.826.005v8.163c0 .931.177 1.629.673 2.068.484.428 1.173.515 1.927.515h4.16c.76 0 1.404-.133 1.836-.602.423-.46.548-1.143.548-1.988z" fill="currentColor" stroke="currentColor" stroke-width=".871"/><path d="M107.01 6.437c0 .127.007.248.028.368h-.028v-.368zM107.038 2.438c-.021.121-.028.241-.028.37v-.37h.028z" fill="currentColor"/><path d="M107.01 6.437c0 .127.007.248.028.368h-.028v-.368zM107.038 2.438c-.021.121-.028.241-.028.37v-.37h.028z" fill="currentColor"/><path d="M106.395 8.807h-.408V12.875h-1.821V.436h8.825c2.365 0 3.45 1.446 3.45 2.726v3.055c0 1.242-1.308 2.59-3.45 2.59h-6.596zm-.408-2.003v.408H112.991a1.86 1.86 0 001.873-1.854V3.884a1.86 1.86 0 00-1.873-1.854H105.987v4.774z" fill="currentColor" stroke="currentColor" stroke-width=".871"/></svg><svg fill="none" viewBox="0 0 24 24" id="link" xmlns="http://www.w3.org/2000/svg"><path d="M14.99 17.5h1.51c3.02 0 5.5-2.47 5.5-5.5 0-3.02-2.47-5.5-5.5-5.5h-1.51M9 6.5H7.5A5.51 5.51 0 002 12c0 3.02 2.47 5.5 5.5 5.5H9M8 12h8" stroke="currentColor" stroke-width="1.5" stroke-linecap="round" stroke-linejoin="round"/></svg><svg fill="none" viewBox="0 0 29 23" id="main_burger" xmlns="http://www.w3.org/2000/svg"><path fill="currentColor" d="M29 .215v4.849H0V.214zM29 8.7v4.848H0V8.7zM29 17.185v4.85H0v-4.85z"/></svg><svg fill="none" viewBox="0 0 120 120" id="play" xmlns="http://www.w3.org/2000/svg"><path d="M60 0C26.916 0 0 26.916 0 60s26.916 60 60 60 60-26.916 60-60S93.084 0 60 0zm21.568 62.683L48.554 82.627a3.11 3.11 0 01-4.708-2.686V40.06a3.11 3.11 0 014.708-2.686l33.014 19.944a3.141 3.141 0 010 5.366z" fill="currentColor"/></svg><svg fill="none" viewBox="0 0 21 21" id="telegram" xmlns="http://www.w3.org/2000/svg"><g clip-path="url(#oclip0_651_2515)"><path d="M17.64 4.523l-2.335 11.255c-.177.795-.636.992-1.289.618l-3.558-2.68-1.717 1.688c-.19.194-.348.357-.715.357l.256-3.704 6.594-6.09c.287-.261-.062-.406-.445-.145L6.279 11.07l-3.51-1.123c-.763-.244-.777-.78.159-1.155l13.727-5.405c.636-.243 1.192.145.985 1.137z" fill="currentColor"/></g><defs><clipPath id="oclip0_651_2515"><path fill="currentColor" transform="translate(2.21 3.316)" d="M0 0h15.474v13.263H0z"/></clipPath></defs></svg><svg fill="none" viewBox="0 0 14 14" id="title_tag" xmlns="http://www.w3.org/2000/svg"><path d="M6.082.697c.22-.93 1.543-.93 1.762 0a7.242 7.242 0 005.386 5.386c.93.219.93 1.542 0 1.762a7.242 7.242 0 00-5.386 5.385c-.219.93-1.542.93-1.762 0A7.242 7.242 0 00.697 7.845c-.93-.22-.93-1.543 0-1.762A7.242 7.242 0 006.082.697z" fill="currentColor"/></svg><svg fill="none" viewBox="0 0 35 35" id="video" xmlns="http://www.w3.org/2000/svg"><path d="M13.125 32.083h8.75c7.292 0 10.209-2.916 10.209-10.208v-8.75c0-7.292-2.917-10.208-10.209-10.208h-8.75c-7.291 0-10.208 2.916-10.208 10.208v8.75c0 7.292 2.917 10.208 10.208 10.208z" stroke="currentColor" stroke-width="1.5" stroke-linecap="round" stroke-linejoin="round"/><path d="M13.27 17.5v-2.158c0-2.786 1.97-3.909 4.375-2.523l1.867 1.079 1.867 1.08c2.406 1.385 2.406 3.66 0 5.045l-1.867 1.08-1.867 1.078c-2.406 1.386-4.374.248-4.374-2.523V17.5z" stroke="currentColor" stroke-width="1.5" stroke-miterlimit="10" stroke-linecap="round" stroke-linejoin="round"/></svg><svg fill="none" viewBox="0 0 22 22" id="vk" xmlns="http://www.w3.org/2000/svg"><g clip-path="url(#rclip0_651_2882)"><path d="M19.72 5.417c.134-.453 0-.786-.644-.786h-2.131c-.543 0-.793.286-.926.605 0 0-1.086 2.645-2.62 4.36-.496.495-.724.655-.995.655-.134 0-.34-.16-.34-.612V5.417c0-.543-.152-.786-.601-.786h-3.35c-.34 0-.543.254-.543.489 0 .514.767.633.846 2.08v3.141c0 .688-.123.814-.394.814-.724 0-2.482-2.656-3.524-5.695-.21-.59-.417-.829-.963-.829H1.404c-.608 0-.731.286-.731.605 0 .564.724 3.368 3.369 7.074 1.762 2.529 4.244 3.9 6.502 3.9 1.357 0 1.523-.304 1.523-.828 0-2.417-.123-2.645.557-2.645.315 0 .858.159 2.124 1.378 1.448 1.448 1.687 2.095 2.497 2.095h2.131c.608 0 .916-.304.739-.904-.406-1.263-3.145-3.861-3.268-4.035-.315-.405-.224-.586 0-.948.004-.004 2.605-3.665 2.873-4.906z" fill="currentColor"/></g><defs><clipPath id="rclip0_651_2882"><path fill="#fff" transform="translate(0 1.158)" d="M0 0h20.842v18.526H0z"/></clipPath></defs></svg><svg fill="none" viewBox="0 0 22 22" id="youtube" xmlns="http://www.w3.org/2000/svg"><g clip-path="url(#sclip0_651_2886)"><path d="M10.422 4.052c.041 0 3.902.002 6.48.201.362.045 1.15.05 1.855.836.555.6.736 1.962.736 1.962.002.023.185 1.61.185 3.197v1.499c0 1.599-.185 3.198-.185 3.198-.004.03-.187 1.368-.736 1.96-.704.786-1.493.79-1.855.837-2.576.197-6.434.206-6.484.206 0 0-4.816-.048-6.297-.2-.413-.082-1.337-.058-2.042-.844-.552-.596-.734-1.946-.736-1.96 0 0-.185-1.598-.185-3.197v-1.5c0-1.586.183-3.172.185-3.196 0 0 .181-1.362.736-1.962.705-.786 1.493-.791 1.855-.836 2.591-.2 6.48-.2 6.48-.2h.008zM8.105 14.474L13.895 11l-5.79-3.473v6.948z" fill="currentColor"/></g><defs><clipPath id="sclip0_651_2886"><path fill="#fff" transform="translate(1.158 1.737)" d="M0 0h18.526v18.526H0z"/></clipPath></defs></svg></svg>