<?xml version="1.0" encoding="utf-8"?><svg viewBox="0 0 148 31" xmlns="http://www.w3.org/2000/svg" xmlns:xlink="http://www.w3.org/1999/xlink"><style>:root>svg{display:none}:root>svg:target{display:block}</style><svg fill="none" viewBox="0 0 14 14" id="arrow_chevron" xmlns="http://www.w3.org/2000/svg"><path d="M11.62 5.22L7.817 9.025c-.45.45-1.185.45-1.634 0L2.38 5.221" stroke="currentColor" stroke-width="1.5" stroke-miterlimit="10" stroke-linecap="round" stroke-linejoin="round"/></svg><svg fill="none" viewBox="0 0 24 24" id="basket" xmlns="http://www.w3.org/2000/svg"><path d="M8.81 2L5.19 5.63M15.19 2l3.62 3.63" stroke="currentColor" stroke-width="1.5" stroke-miterlimit="10" stroke-linecap="round" stroke-linejoin="round"/><path d="M2 7.85c0-1.85.99-2 2.22-2h15.56c1.23 0 2.22.15 2.22 2 0 2.15-.99 2-2.22 2H4.22C2.99 9.85 2 10 2 7.85z" stroke="currentColor" stroke-width="1.5"/><path d="M9.76 14v3.55M14.36 14v3.55M3.5 10l1.41 8.64C5.23 20.58 6 22 8.86 22h6.03c3.11 0 3.57-1.36 3.93-3.24L20.5 10" stroke="currentColor" stroke-width="1.5" stroke-linecap="round"/></svg><svg fill="none" viewBox="0 0 24 24" id="close" xmlns="http://www.w3.org/2000/svg"><path d="M5 19L19 5M19 19L5 5" stroke="currentColor" stroke-width="1.5" stroke-linecap="round" stroke-linejoin="round"/></svg><svg fill="none" viewBox="0 0 148 31" id="its" xmlns="http://www.w3.org/2000/svg"><g opacity=".4" fill="currentColor"><path d="M7.403 8.338h2.036v14.307H7.403V8.338zM18.13 10.5h-5.487V8.338h14.002V10.5h-5.914v12.146h-2.133V10.499h-.468z" stroke="currentColor"/><path d="M42.953 10.915V7.868h-10.04c-3.112 0-4.307 1.815-4.307 4.744 0 2.93 1.716 4.3 4.307 4.3h6.439c1.2 0 1.236 1.19 1.236 1.903 0 .713-.276 1.48-1.243 1.48H28.991v2.82h10.354c2.591 0 4.308-1.371 4.308-4.3 0-2.93-1.192-4.722-4.304-4.722l-1.561-.001h-4.875c-.966 0-1.242-.766-1.242-1.48s0-1.697 1.201-1.697h10.08z"/><path d="M69.45 8.33v2.178H59.327c-.433 0-.806.024-1.117.094-.317.071-.601.198-.821.426-.22.229-.333.513-.393.815-.06.297-.075.645-.075 1.032V18.5c0 .677.181 1.268.633 1.68.442.404 1.062.56 1.773.56H67.369v-4.298h-3.391v-1.89h5.465v8.093H58.98c-2.101 0-3.112-.386-3.62-.9-.5-.508-.622-1.252-.622-2.327V11.9c0-1.318.147-2.146.66-2.679.516-.534 1.519-.891 3.582-.891h10.47zM74.961 18.111v4.534h-2.038V8.354h9.77c1.782 0 2.82.534 3.41 1.123.603.6.782 1.294.782 1.672v4.049a2.08 2.08 0 01-.692 1.541c-.526.482-1.47.903-3.121.903h-1.02l.664.775 3.618 4.228h-2.747l-3.97-4.832-.16-.195-.25.026a4.312 4.312 0 01-.342.004l-.163-.002c-.121-.002-.248-.004-.357-.004h-3.384v.47zm.469-7.938h-.469V15.961h7.732c.92 0 1.505-.308 1.819-.811.275-.442.274-.946.274-1.19V11.916v-.012c0-.168 0-.617-.293-1.02-.322-.441-.897-.71-1.8-.71H75.43zM94.657 8.354h5.899c2.269 0 4.267 1.84 4.267 4.054v6.356c0 2.195-1.978 3.916-4.267 3.916h-5.899c-2.294 0-4.3-1.725-4.3-3.916v-6.356c0-2.21 2.025-4.054 4.3-4.054zm5.899 12.557c.673 0 1.239-.378 1.619-.852.381-.475.622-1.099.622-1.708v-5.53c0-.606-.238-1.252-.613-1.749-.372-.492-.939-.914-1.628-.914h-5.899c-.686 0-1.253.422-1.625.914-.375.496-.617 1.142-.617 1.748v5.531c0 .61.245 1.235.626 1.708.38.473.946.852 1.616.852h5.899zM120.891 17.744v-9.39h2.14v10.402c0 2.143-1.755 3.89-3.937 3.89h-6.863c-2.181 0-3.936-1.747-3.936-3.89V8.347l2.097.006v9.399c0 1.073.203 1.876.773 2.382.555.492 1.346.593 2.213.593h4.776c.872 0 1.612-.153 2.107-.694.486-.528.63-1.315.63-2.289z" stroke="currentColor"/><path d="M129.769 15.23c0 .147.008.286.033.425h-.033v-.425zM129.802 10.627a2.368 2.368 0 00-.033.424v-.424h.033z"/><path d="M129.769 15.23c0 .147.008.286.033.425h-.033v-.425zM129.802 10.627a2.368 2.368 0 00-.033.424v-.424h.033z"/><path d="M129.063 17.96h-.469v4.685h-2.091V8.322h10.133c2.715 0 3.961 1.664 3.961 3.138v3.517c0 1.43-1.502 2.983-3.961 2.983h-7.573zm-.469-2.305v.47h8.042c1.185 0 2.15-.947 2.15-2.135v-1.698a2.138 2.138 0 00-2.15-2.135h-8.042V15.655z" stroke="currentColor"/></g></svg><svg fill="none" viewBox="0 0 29 23" id="main_burger" xmlns="http://www.w3.org/2000/svg"><path fill="currentColor" d="M29 .215v4.849H0V.214zM29 8.7v4.848H0V8.7zM29 17.185v4.85H0v-4.85z"/></svg><svg fill="none" viewBox="0 0 21 21" id="telegram" xmlns="http://www.w3.org/2000/svg"><g clip-path="url(#fclip0_651_2515)"><path d="M17.64 4.523l-2.335 11.255c-.177.795-.636.992-1.289.618l-3.558-2.68-1.717 1.688c-.19.194-.348.357-.715.357l.256-3.704 6.594-6.09c.287-.261-.062-.406-.445-.145L6.279 11.07l-3.51-1.123c-.763-.244-.777-.78.159-1.155l13.727-5.405c.636-.243 1.192.145.985 1.137z" fill="currentColor"/></g><defs><clipPath id="fclip0_651_2515"><path fill="currentColor" transform="translate(2.21 3.316)" d="M0 0h15.474v13.263H0z"/></clipPath></defs></svg><svg fill="none" viewBox="0 0 22 22" id="vk" xmlns="http://www.w3.org/2000/svg"><g clip-path="url(#gclip0_651_2882)"><path d="M19.72 5.417c.134-.453 0-.786-.644-.786h-2.131c-.543 0-.793.286-.926.605 0 0-1.086 2.645-2.62 4.36-.496.495-.724.655-.995.655-.134 0-.34-.16-.34-.612V5.417c0-.543-.152-.786-.601-.786h-3.35c-.34 0-.543.254-.543.489 0 .514.767.633.846 2.08v3.141c0 .688-.123.814-.394.814-.724 0-2.482-2.656-3.524-5.695-.21-.59-.417-.829-.963-.829H1.404c-.608 0-.731.286-.731.605 0 .564.724 3.368 3.369 7.074 1.762 2.529 4.244 3.9 6.502 3.9 1.357 0 1.523-.304 1.523-.828 0-2.417-.123-2.645.557-2.645.315 0 .858.159 2.124 1.378 1.448 1.448 1.687 2.095 2.497 2.095h2.131c.608 0 .916-.304.739-.904-.406-1.263-3.145-3.861-3.268-4.035-.315-.405-.224-.586 0-.948.004-.004 2.605-3.665 2.873-4.906z" fill="currentColor"/></g><defs><clipPath id="gclip0_651_2882"><path fill="#fff" transform="translate(0 1.158)" d="M0 0h20.842v18.526H0z"/></clipPath></defs></svg><svg fill="none" viewBox="0 0 22 22" id="youtube" xmlns="http://www.w3.org/2000/svg"><g clip-path="url(#hclip0_651_2886)"><path d="M10.422 4.052c.041 0 3.902.002 6.48.201.362.045 1.15.05 1.855.836.555.6.736 1.962.736 1.962.002.023.185 1.61.185 3.197v1.499c0 1.599-.185 3.198-.185 3.198-.004.03-.187 1.368-.736 1.96-.704.786-1.493.79-1.855.837-2.576.197-6.434.206-6.484.206 0 0-4.816-.048-6.297-.2-.413-.082-1.337-.058-2.042-.844-.552-.596-.734-1.946-.736-1.96 0 0-.185-1.598-.185-3.197v-1.5c0-1.586.183-3.172.185-3.196 0 0 .181-1.362.736-1.962.705-.786 1.493-.791 1.855-.836 2.591-.2 6.48-.2 6.48-.2h.008zM8.105 14.474L13.895 11l-5.79-3.473v6.948z" fill="currentColor"/></g><defs><clipPath id="hclip0_651_2886"><path fill="#fff" transform="translate(1.158 1.737)" d="M0 0h18.526v18.526H0z"/></clipPath></defs></svg></svg>